<svg width="241" height="38" viewBox="0 0 241 38" fill="none" xmlns="http://www.w3.org/2000/svg">
<path fill-rule="evenodd" clip-rule="evenodd" d="M10.2705 31.4008C10.2705 31.3583 10.2493 31.3185 10.2137 31.2946L0.0568523 24.4545C0.0212834 24.4305 0 24.3908 0 24.3483V0.128791C0 0.023202 0.121917 -0.0373641 0.207926 0.0254903L7.44158 5.31178C7.47482 5.33603 7.49437 5.37437 7.49437 5.41513V21.4207L10.2705 24.6348V11.9975C10.2705 11.9568 10.2902 11.9185 10.3235 11.8942L17.5572 6.62028C17.6432 6.55754 17.7649 6.61822 17.7649 6.72377V24.5448L20.5411 21.4078V5.35032L27.8276 0.0254903C27.9136 -0.0373641 28.0355 0.023202 28.0355 0.128791V24.2112C28.0355 24.2513 28.0164 24.2891 27.9841 24.3134L10.4799 37.4624C10.3941 37.5268 10.2705 37.4665 10.2705 37.36V31.4008ZM10.7919 12.3109L13.5029 11.4752V33.6793L10.7919 36.372V31.1377L4.27505 23.8868V4.73615L6.97302 5.7098V21.6101L10.7919 26.0313V12.3109ZM17.7649 29.6729V25.509L21.0624 21.6007V5.72728L23.6952 4.90765V23.523L17.7649 29.6729Z" fill="#1F2125"/>
<path d="M42.686 32.1L40.4688 23.2605H42.0323L43.8394 30.7867H45.0185L46.8256 23.2605H48.3892L46.172 32.1H42.686Z" fill="#3D4650"/>
<path d="M50.7542 30.9129V24.4475L51.9589 23.2605H56.8547L58.0594 24.4475V30.9129L56.8547 32.1H51.9589L50.7542 30.9129ZM52.2665 24.5485V30.8119H56.5471V24.5485H52.2665Z" fill="#3D4650"/>
<path d="M61.0159 32.1V23.2605H62.5026V30.8372H66.1552V28.5642H67.5266V32.1H61.0159Z" fill="#3D4650"/>
<path d="M70.151 30.9129V23.2605H71.6377V30.7867H75.5594V23.2605H77.0461V30.9129L75.8414 32.1H71.3557L70.151 30.9129Z" fill="#3D4650"/>
<path d="M80.0245 32.1V23.2605H81.7931L85.8687 30.1426V23.2605H87.3041V32.1H85.5355L81.4599 25.2178V32.1H80.0245Z" fill="#3D4650"/>
<path d="M92.4266 32.1V24.5485H89.8121V23.2605H96.5278V24.5485H93.9133V32.1H92.4266Z" fill="#3D4650"/>
<path d="M99.0455 32.1V23.2605H105.249V24.5233H100.532V26.9478H104.608V28.1853H100.532V30.8372H105.377V32.1H99.0455Z" fill="#3D4650"/>
<path d="M108.018 32.1V23.2605H114.221V24.5233H109.505V26.9478H113.58V28.1853H109.505V30.8372H114.349V32.1H108.018Z" fill="#3D4650"/>
<path d="M118.477 28.0085H122.45V24.498H118.477V28.0085ZM123.937 24.4475V28.0338L123.014 28.943L124.577 32.1H122.95L121.604 29.2461H118.477V32.1H116.99V23.2605H122.732L123.937 24.4475Z" fill="#3D4650"/>
<path d="M126.748 32.1505V30.9256L128.183 30.8624V24.498L126.748 24.4349V23.21L128.927 23.311L131.105 23.21V24.4349L129.67 24.498V30.8624L131.105 30.9256V32.1505L128.927 32.0494L126.748 32.1505Z" fill="#3D4650"/>
<path d="M133.934 32.1V23.2605H135.702L139.778 30.1426V23.2605H141.213V32.1H139.445L135.369 25.2178V32.1H133.934Z" fill="#3D4650"/>
<path d="M144.17 30.9129V24.4475L145.375 23.2605H150.629V24.5485H145.657V30.8119H149.694V28.1222H147.246V26.9099H151.065V32.1H145.375L144.17 30.9129Z" fill="#3D4650"/>
<path d="M158.757 32.1505V30.9256L160.193 30.8624V24.498L158.757 24.4349V23.21L160.936 23.311L163.115 23.21V24.4349L161.679 24.498V30.8624L163.115 30.9256V32.1505L160.936 32.0494L158.757 32.1505Z" fill="#3D4650"/>
<path d="M165.943 32.1V23.2605H167.712L171.787 30.1426V23.2605H173.223V32.1H171.454L167.379 25.2178V32.1H165.943Z" fill="#3D4650"/>
<path d="M176.051 32.1505V30.9256L177.487 30.8624V24.498L176.051 24.4349V23.21L178.23 23.311L180.409 23.21V24.4349L178.973 24.498V30.8624L180.409 30.9256V32.1505L178.23 32.0494L176.051 32.1505Z" fill="#3D4650"/>
<path d="M185.39 32.1V24.5485H182.776V23.2605H189.491V24.5485H186.877V32.1H185.39Z" fill="#3D4650"/>
<path d="M191.868 32.1505V30.9256L193.304 30.8624V24.498L191.868 24.4349V23.21L194.047 23.311L196.226 23.21V24.4349L194.79 24.498V30.8624L196.226 30.9256V32.1505L194.047 32.0494L191.868 32.1505Z" fill="#3D4650"/>
<path d="M198.554 32.1L200.771 23.2605H204.257L206.475 32.1H204.924L204.411 29.9532H200.618L200.105 32.1H198.554ZM200.874 28.7915H204.155L203.104 24.4727H201.925L200.874 28.7915Z" fill="#3D4650"/>
<path d="M210.255 32.1V24.5485H207.64V23.2605H214.356V24.5485H211.741V32.1H210.255Z" fill="#3D4650"/>
<path d="M216.733 32.1505V30.9256L218.168 30.8624V24.498L216.733 24.4349V23.21L218.911 23.311L221.09 23.21V24.4349L219.655 24.498V30.8624L221.09 30.9256V32.1505L218.911 32.0494L216.733 32.1505Z" fill="#3D4650"/>
<path d="M225.636 32.1L223.419 23.2605H224.982L226.789 30.7867H227.968L229.776 23.2605H231.339L229.122 32.1H225.636Z" fill="#3D4650"/>
<path d="M233.817 32.1V23.2605H240.02V24.5233H235.304V26.9478H239.379V28.1853H235.304V30.8372H240.148V32.1H233.817Z" fill="#3D4650"/>
<path d="M40.3838 14.3822V5.025L42.9246 2.52153H50.2555V5.66113H44.0076V13.7461H50.4637V16.8857H42.9246L40.3838 14.3822Z" fill="#1F2125"/>
<path d="M52.9143 16.8857L56.1215 2.52153H62.9109L66.1182 16.8857H62.4111L61.8071 13.8077H57.2253L56.6213 16.8857H52.9143ZM57.6627 11.3247H61.3697L60.1618 5.25073H58.8706L57.6627 11.3247Z" fill="#1F2125"/>
<path d="M72.517 10.073H77.3071V5.27125H72.517V10.073ZM80.8059 5.025V10.2166L79.119 11.8788L81.639 16.8857H77.7236L75.8701 12.8227H72.517V16.8857H69.0182V2.52153H78.2651L80.8059 5.025Z" fill="#1F2125"/>
<path d="M91.4277 16.8857V2.52153H101.424V5.64061H94.9265V9.41633H101.008V12.4123H94.9265V16.8857H91.4277Z" fill="#1F2125"/>
<path d="M104.644 14.3822V5.025L107.185 2.52153H114.391L116.932 5.025V14.3822L114.391 16.8857H107.185L104.644 14.3822ZM108.268 5.51749V13.8897H113.308V5.51749H108.268Z" fill="#1F2125"/>
<path d="M124.027 10.073H128.817V5.27125H124.027V10.073ZM132.316 5.025V10.2166L130.629 11.8788L133.149 16.8857H129.234L127.38 12.8227H124.027V16.8857H120.528V2.52153H129.775L132.316 5.025Z" fill="#1F2125"/>
<path d="M142.938 14.3822V2.52153H146.437V13.7666H150.977V2.52153H154.476V14.3822L151.935 16.8857H145.479L142.938 14.3822Z" fill="#1F2125"/>
<path d="M158.149 16.8857V2.52153H161.648V8.10304H163.731L166.542 2.52153H170.416L166.792 9.29321L170.728 16.8857H166.813L163.897 11.099H161.648V16.8857H158.149Z" fill="#1F2125"/>
<path d="M176.941 10.073H181.731V5.27125H176.941V10.073ZM185.23 5.025V10.2166L183.543 11.8788L186.063 16.8857H182.147L180.294 12.8227H176.941V16.8857H173.442V2.52153H182.689L185.23 5.025Z" fill="#1F2125"/>
<path d="M188.005 16.8857L191.212 2.52153H198.001L201.209 16.8857H197.502L196.898 13.8077H192.316L191.712 16.8857H188.005ZM192.753 11.3247H196.46L195.252 5.25073H193.961L192.753 11.3247Z" fill="#1F2125"/>
<path d="M204.046 16.9678V14.2796L205.837 14.177V5.23021L204.046 5.1276V2.43945L207.587 2.60362L211.127 2.43945V5.1276L209.336 5.23021V14.177L211.127 14.2796V16.9678L207.587 16.8036L204.046 16.9678Z" fill="#1F2125"/>
<path d="M214.724 16.8857V2.52153H218.035L223.637 11.653V2.52153H226.886V16.8857H223.575L217.973 7.75419V16.8857H214.724Z" fill="#1F2125"/>
<path d="M230.545 16.8857V2.52153H240.792V5.39437H234.044V8.18512H239.75V10.9348H234.044V14.0129H241V16.8857H230.545Z" fill="#1F2125"/>
</svg>
