<?xml version="1.0" encoding="utf-8"?>
<!-- Generator: Adobe Illustrator 25.4.1, SVG Export Plug-In . SVG Version: 6.00 Build 0)  -->
<svg version="1.1" id="Layer_1" xmlns="http://www.w3.org/2000/svg" xmlns:xlink="http://www.w3.org/1999/xlink" x="0px" y="0px"
	 viewBox="0 0 280 160" style="enable-background:new 0 0 280 160;" xml:space="preserve">
<style type="text/css">
	.st0{fill:#CC0000;}
	.st1{fill:#FFFFFF;}
</style>
<g>
	<path class="st0" d="M73.8,80c0,12.9,10.5,23.4,23.4,23.4h21.9c1.4,0,2.4-1.3,2.4-2.4V58.1c0-2.7,2.2-4.9,4.9-4.9
		c1.7,0,3.3,0.9,4.2,2.4c0.1,0.2,6.7,11.6,13.7,23.7c6.7,11.5,13.6,23.5,13.7,23.7c0.4,0.6,1,1,1.7,1c1.1,0,2-0.9,2-2V58.1
		c0-2.7,2.2-4.9,4.9-4.9c1.7,0,3.3,0.9,4.2,2.4c0.1,0.2,6.7,11.6,13.7,23.7c6.7,11.5,13.6,23.4,13.7,23.7c0.4,0.6,1,1,1.7,1
		c1.1,0,2-0.9,2-2V45.1h-8.6v33.8c0,0-15.6-26.8-16.1-27.7c-2.3-3.9-6.6-6.4-11.2-6.4c-7.2,0-13,5.9-13,13v21
		c0,0-15.6-26.8-16.1-27.7c-2.3-3.9-6.6-6.4-11.2-6.4c-7.2,0-13,5.9-13,13v34.6c0,1.3-0.9,2.4-2.3,2.4H97.3
		c-8.2,0-14.8-6.6-14.8-14.8s6.6-14.8,14.8-14.8h11.1v-8.6H97.2C84.3,56.6,73.8,67.1,73.8,80"/>
	<path class="st0" d="M205.1,45.1v56.7c0,2.7-2.2,4.9-4.9,4.9c-1.7,0-3.3-0.9-4.2-2.4c-0.1-0.2-6.7-11.6-13.7-23.7
		c-6.7-11.5-13.6-23.4-13.7-23.7c-0.4-0.6-1-1-1.7-1c-1.1,0-2,0.9-2,2v43.8c0,2.7-2.2,4.9-4.9,4.9c-1.7,0-3.3-0.9-4.2-2.4
		c-0.1-0.2-6.7-11.6-13.7-23.7c-6.7-11.5-13.6-23.5-13.7-23.7c-0.4-0.6-1-1-1.7-1c-1.1,0-2,0.9-2,2V101c0,2.8-2.5,5.3-5.3,5.3H97.2
		C82.7,106.3,71,94.5,71,80s11.8-26.3,26.3-26.3h11.2v-8.6H97.2C78,45.1,62.4,60.7,62.4,80s15.6,34.9,34.9,34.9h22.1
		c8.4,0,13.7-4.9,13.7-13.9V81c0,0,15.7,27.1,16.1,27.7c2.3,3.9,6.6,6.4,11.2,6.4c7.2,0,13-5.9,13-13V81c0,0,15.6,26.8,16.1,27.7
		c2.3,3.9,6.6,6.4,11.2,6.4c7.2,0,13-5.9,13-13v-57H205.1z"/>
	<path class="st1" d="M71,80c0,14.5,11.8,26.3,26.3,26.3h21.9c2.8,0,5.3-2.5,5.3-5.3V58.1c0-1.1,0.9-2,2-2c0.7,0,1.4,0.4,1.7,1
		c0.1,0.2,7,12.1,13.7,23.7c7,12.1,13.6,23.5,13.7,23.7c0.9,1.5,2.5,2.4,4.2,2.4c2.7,0,4.9-2.2,4.9-4.9V58.1c0-1.1,0.9-2,2-2
		c0.7,0,1.4,0.4,1.7,1c0.1,0.2,7,12.1,13.7,23.7c7,12.1,13.6,23.5,13.7,23.7c0.9,1.5,2.5,2.4,4.2,2.4c2.7,0,4.9-2.2,4.9-4.9V45.1
		h-2.9v56.7c0,1.1-0.9,2-2,2c-0.7,0-1.4-0.4-1.7-1c-0.1-0.2-7-12.1-13.7-23.7c-7-12.1-13.6-23.5-13.7-23.7c-0.9-1.5-2.5-2.4-4.2-2.4
		c-2.7,0-4.9,2.2-4.9,4.9v43.8c0,1.1-0.9,2-2,2c-0.7,0-1.4-0.4-1.7-1c-0.1-0.2-7-12.1-13.7-23.7c-7-12.1-13.6-23.5-13.7-23.7
		c-0.9-1.5-2.5-2.4-4.2-2.4c-2.7,0-4.9,2.2-4.9,4.9V101c0,1.1-1.1,2.4-2.4,2.4H97.2c-12.9,0-23.4-10.5-23.4-23.4
		s10.5-23.4,23.4-23.4h11.2v-2.9H97.2C82.8,53.7,71,65.5,71,80"/>
</g>
</svg>
