<?xml version="1.0" encoding="utf-8"?>
<!-- Generator: Adobe Illustrator 25.4.1, SVG Export Plug-In . SVG Version: 6.00 Build 0)  -->
<svg version="1.1" id="Layer_1" xmlns="http://www.w3.org/2000/svg" xmlns:xlink="http://www.w3.org/1999/xlink" x="0px" y="0px"
	 viewBox="0 0 280 160" style="enable-background:new 0 0 280 160;" xml:space="preserve">
<style type="text/css">
	.st0{fill-rule:evenodd;clip-rule:evenodd;fill:#111111;}
	.st1{fill:#3C70B7;}
</style>
<g>
	<path class="st0" d="M26.2,93.6h5.7v33.2h-5.7C26.2,126.8,26.2,93.6,26.2,93.6z M72,114.8L49,93.1v33.7h5.4v-21.6l23,22.1V93.6H72
		V114.8z M106.9,108.3l-5.4-2c-2.8-1-4.4-2-4.4-4.4c0-2.7,2.5-4,5.9-4c3.9,0,7,1.5,9.7,3.6v-5.8c-2.7-1.7-6.1-2.7-9.8-2.7
		c-6.1,0-11.3,3.2-11.3,9c0,5.4,3.4,7.8,7.8,9.4l4.8,1.7c3,1.1,4.7,2.2,4.7,4.8c0,3-2.7,4.3-6.5,4.3c-3.9,0-7.6-1.4-10.6-3.9v5.9
		c2.3,1.6,6.1,2.9,10.6,2.9c6.8,0,12-3.3,12-9.4C114.6,113.1,112.2,110.2,106.9,108.3z M127.3,93.6h5.7v33.2h-5.7V93.6z M163.2,93.6
		h-12.8v33.2h12.8c9.8,0,16.2-6.5,16.2-16.6S173,93.6,163.2,93.6z M163,121.8h-6.9V98.6h6.9c7,0,10.8,4.5,10.8,11.6
		C173.7,117.3,170,121.8,163,121.8z M192.2,126.8h20.3v-5h-14.7v-10.3h13.2v-4.9h-13.2v-8h14.7v-4.9h-20.3L192.2,126.8L192.2,126.8z
		 M241.8,113.1c5.3-0.8,7.8-4,7.8-9.6c0-6.5-4.4-10-11.4-10h-12.1v33.2h5.7v-13.4h4l11.6,13.4h6.4L241.8,113.1L241.8,113.1z
		 M231.8,108.6V98.5h6.3c3.8,0,5.9,2,5.9,5.1s-2.1,5.1-5.9,5.1L231.8,108.6L231.8,108.6z"/>
</g>
<g>
	<path class="st1" d="M58.5,34.3v15.4h-4.8v-7.9l-3.3,5.3h-1.3l-3.4-5.4v8h-4.8V34.3h5.2l3.6,5.4l3.6-5.4H58.5z"/>
	<path class="st1" d="M68.8,49.7H64V34.3h4.8V49.7z"/>
	<path class="st1" d="M85.9,45.6v4.1H74.3V34.3h4.8v11.3H85.9z"/>
	<path class="st1" d="M95.2,49.7h-4.8V34.3h4.8V49.7z"/>
	<path class="st1" d="M112.8,38.4h-4.1v11.3h-4.8V38.4h-4.1v-4.1h13V38.4z"/>
	<path class="st1" d="M127,49.7l-0.8-2.2h-5.6l-0.8,2.2h-5.2l6.3-15.4h5.2l6.3,15.4H127z M122,43.6h2.7l-1.4-3.7L122,43.6z"/>
	<path class="st1" d="M150.1,49.7h-5.6l-2.5-4.3h-0.8v4.3h-4.8V34.3h6.6c1.9,0,3.5,0.5,4.7,1.6c1.2,1.1,1.8,2.4,1.8,4
		c0,2-0.8,3.5-2.5,4.5L150.1,49.7z M144.7,39.9L144.7,39.9c0-0.5-0.2-0.9-0.5-1.2c-0.3-0.3-0.8-0.5-1.3-0.5h-1.7v3.2h1.7
		c0.6,0,1-0.1,1.3-0.4C144.6,40.8,144.7,40.4,144.7,39.9z"/>
	<path class="st1" d="M168.7,34.3l-6,9.6v5.8h-4.8v-5.8l-6-9.6h5.7l2.8,4.9l2.8-4.9H168.7z"/>
	<path class="st1" d="M192.7,49.7l-0.8-2.2h-5.6l-0.8,2.2h-5.2l6.3-15.4h5.2l6.3,15.4H192.7z M187.7,43.6h2.7l-1.4-3.7L187.7,43.6z"
		/>
	<path class="st1" d="M211.9,34.3h4.8v15.4h-4.5l-5.2-7v7h-4.8V34.3h4.5l5.2,7.1V34.3z"/>
	<path class="st1" d="M222.2,49.7l0-15.4h6.5c2.4,0,4.4,0.7,5.9,2.1c1.5,1.4,2.3,3.3,2.3,5.6c0,2.3-0.8,4.2-2.3,5.6
		c-1.5,1.4-3.5,2.1-5.9,2.1H222.2z M227,45.6h1.7c2.2,0,3.4-1.2,3.4-3.6c0-2.4-1.1-3.6-3.4-3.6H227V45.6z"/>
</g>
<g>
	<path class="st1" d="M80.7,78.4l0-15.4h6.5c2.4,0,4.4,0.7,5.9,2.1c1.5,1.4,2.3,3.3,2.3,5.6c0,2.3-0.8,4.2-2.3,5.6
		c-1.5,1.4-3.5,2.1-5.9,2.1H80.7z M85.5,74.3h1.7c2.2,0,3.4-1.2,3.4-3.6c0-2.4-1.1-3.6-3.4-3.6h-1.7V74.3z"/>
	<path class="st1" d="M105.2,67.1v1.7h5.9v3.9h-5.9v1.6h6.8v4.1h-11.6V63H112v4.1H105.2z"/>
	<path class="st1" d="M121.7,67.1v1.7h5.9v3.9h-5.9v5.7h-4.8V63h11.6v4.1H121.7z"/>
	<path class="st1" d="M138,67.1v1.7h5.9v3.9H138v1.6h6.8v4.1h-11.6V63h11.6v4.1H138z"/>
	<path class="st1" d="M159.5,63h4.8v15.4h-4.5l-5.2-7v7h-4.8V63h4.5l5.2,7.1V63z"/>
	<path class="st1" d="M171.5,72.7L171.5,72.7c1.7,1.1,3.4,1.6,5.1,1.6c1.1,0,1.6-0.2,1.6-0.7c0-0.2-0.2-0.4-0.6-0.5
		c-0.5-0.1-1-0.2-1.6-0.3c-0.6-0.1-1.3-0.2-2.1-0.4c-0.8-0.2-1.5-0.5-2.1-0.8c-0.6-0.3-1.2-0.8-1.6-1.4s-0.6-1.4-0.6-2.4
		c0-1.5,0.6-2.7,1.8-3.6c1.2-0.9,2.8-1.4,4.7-1.4c2.6,0,4.9,0.8,6.8,2.5l-2.4,3.3c-0.6-0.5-1.3-0.8-2.1-1.1
		c-0.8-0.3-1.6-0.4-2.4-0.4c-1,0-1.5,0.2-1.5,0.6c0,0.2,0.2,0.4,0.6,0.5c0.4,0.1,0.9,0.2,1.6,0.3c0.6,0.1,1.3,0.2,2.1,0.4
		c0.8,0.2,1.5,0.5,2.1,0.8c0.6,0.3,1.2,0.8,1.6,1.4c0.4,0.7,0.6,1.4,0.6,2.4c0,1.6-0.6,2.8-1.7,3.8c-1.1,0.9-2.7,1.4-4.8,1.4
		c-2.9,0-5.4-0.9-7.5-2.7L171.5,72.7z"/>
	<path class="st1" d="M192.6,67.1v1.7h5.9v3.9h-5.9v1.6h6.8v4.1h-11.6V63h11.6v4.1H192.6z"/>
</g>
</svg>
