<?xml version="1.0" encoding="utf-8"?>
<!-- Generator: Adobe Illustrator 25.4.1, SVG Export Plug-In . SVG Version: 6.00 Build 0)  -->
<svg version="1.1" id="Layer_1" xmlns="http://www.w3.org/2000/svg" xmlns:xlink="http://www.w3.org/1999/xlink" x="0px" y="0px"
	 viewBox="0 0 280 160" style="enable-background:new 0 0 280 160;" xml:space="preserve">
<style type="text/css">
	.st0{fill-rule:evenodd;clip-rule:evenodd;fill:#111111;}
</style>
<g>
	<path class="st0" d="M28.2,63.4h5.7v33.2h-5.7C28.2,96.6,28.2,63.4,28.2,63.4z M74,84.6L51,62.9v33.7h5.4V75l23,22.1V63.4H74V84.6z
		 M108.9,78.1l-5.4-2c-2.8-1-4.4-2-4.4-4.4c0-2.7,2.5-4,5.9-4c3.9,0,7,1.5,9.7,3.6v-5.8c-2.7-1.7-6.1-2.7-9.8-2.7
		c-6.1,0-11.3,3.2-11.3,9c0,5.4,3.4,7.8,7.8,9.4l4.8,1.7c3,1.1,4.7,2.2,4.7,4.8c0,3-2.7,4.3-6.5,4.3c-3.9,0-7.6-1.4-10.6-3.9v5.9
		c2.3,1.6,6.1,2.9,10.6,2.9c6.8,0,12-3.3,12-9.4C116.6,82.9,114.2,80,108.9,78.1z M129.3,63.4h5.7v33.2h-5.7V63.4z M165.2,63.4
		h-12.8v33.2h12.8c9.8,0,16.2-6.5,16.2-16.6S175,63.4,165.2,63.4z M165,91.6h-6.9V68.4h6.9c7,0,10.8,4.5,10.8,11.6
		C175.7,87.1,172,91.6,165,91.6z M194.2,96.6h20.3v-5h-14.7V81.3h13.2v-4.9h-13.2v-8h14.7v-4.9h-20.3L194.2,96.6L194.2,96.6z
		 M243.8,82.9c5.3-0.8,7.8-4,7.8-9.6c0-6.5-4.4-10-11.4-10h-12.1v33.2h5.7V83.1h4l11.6,13.4h6.4L243.8,82.9L243.8,82.9z M233.8,78.4
		V68.3h6.3c3.8,0,5.9,2,5.9,5.1s-2.1,5.1-5.9,5.1L233.8,78.4L233.8,78.4z"/>
</g>
</svg>
