<?xml version="1.0" encoding="utf-8"?>
<!-- Generator: Adobe Illustrator 25.4.1, SVG Export Plug-In . SVG Version: 6.00 Build 0)  -->
<svg version="1.1" id="Livello_1" xmlns="http://www.w3.org/2000/svg" xmlns:xlink="http://www.w3.org/1999/xlink" x="0px" y="0px"
	 viewBox="0 0 280 160" style="enable-background:new 0 0 280 160;" xml:space="preserve">
<style type="text/css">
	.st0{fill:#FFFFFF;}
	.st1{fill:#9D9D9C;}
	.st2{fill:#B2B2B2;}
	.st3{fill:#AB0000;}
	.st4{fill:#CB0002;}
	.st5{fill:#3C3A38;}
</style>
<g>
	<g>
		<path class="st0" d="M18.5,50.4c-2.2,0-4,1.8-4,4v51.3c0,2.2,1.8,4,4,4h94.9V50.4H18.5"/>
		<path class="st1" d="M18.5,109.6H114v-1.2H18.5c-1.5,0-2.7-1.2-2.7-2.7V54.4c0-1.5,1.2-2.7,2.7-2.7H114v-1.3H18.5
			c-2.2,0-4,1.8-4,4v51.3C14.5,107.8,16.3,109.6,18.5,109.6"/>
	</g>
	<g>
		<path class="st2" d="M114,50.4H18.5c-2.2,0-4,1.8-4,4v36.5c0-1.4,0.4-2.6,1.2-3.6V54.4c0-1.5,1.2-2.7,2.7-2.7H114L114,50.4"/>
	</g>
	<g>
		<path class="st3" d="M261.5,50.4H113v59.2h148.6c2.2,0,4-1.8,4-3.9V54.4C265.5,52.2,263.7,50.4,261.5,50.4"/>
		<path d="M81.1,103.1c0.6,0.3,1.9,0.7,3.6,0.8c2.8,0,4.3-1,5.5-3.5l15.1-33.6c-0.6-0.3-2-0.7-3.1-0.7c-1.9,0-4.5,0.4-6.2,4.3
			L91,81.8l-9.6-15.6c-0.6-0.2-2.1-0.4-3.2-0.4c-3.4,0-5.3,1.3-7.2,3.4l-9.3,10.2l7.5,11.8c1.4,2.2,3.2,3.2,6.2,3.2
			c1.9,0,3.6-0.4,4.3-0.8l-9-13.6l6.4-6.8l10.5,16.5L81.1,103.1 M61.3,90.3c0,2.5-1,3.9-5.8,3.9l-1.7-0.1V61.2
			c0-2.5,0.9-5.1,5.7-5.1l1.8,0.2L61.3,90.3 M51.3,85.4c0,4.6-3,8-9.2,8.7c-4.5,0.5-10.9-0.1-13.9-0.4L28,92c0-4,2.2-5,4.2-5
			c2.1,0,5.5,0.4,8,0.4c2.7,0,3.6-0.9,3.6-1.8c0-1.2-1.1-1.6-3.2-2.1l-5.8-1.1c-4.9-0.9-7.4-4.3-7.4-7.8c0-4.3,3.1-8,9.1-8.6
			c4.5-0.5,10.1,0,13.1,0.4l0.2,1.6c0,4-2.1,4.9-4.2,4.9c-1.6,0-4-0.3-6.8-0.3c-2.8,0-4,0.8-4,1.8c0,1,1.1,1.4,2.9,1.7l5.6,1
			C48.9,78.1,51.3,81.4,51.3,85.4"/>
		<path class="st4" d="M261.5,50.4H113v30.7l152.5-6.2V54.4C265.5,52.2,263.7,50.4,261.5,50.4"/>
		<path class="st0" d="M229.9,92.5c-0.3-2.3,0.4-3.5,1.7-3.5c1.3,0,4.5,1.5,9,1.5c4.8,0,6.7-1.8,6.7-4.1c0-1.6-0.7-2.9-5.1-4.1
			l-4.9-1.4c-5.3-1.4-7.4-4.1-7.4-7.4c0-4,3.2-7.8,10.6-7.8c3.3,0,7.5,0.8,10,1.8c0.2,2.2-0.4,3.5-1.6,3.5c-1.2,0-4.2-1.4-8.3-1.4
			c-4.5,0-6.2,1.6-6.2,3.7c0,1.4,0.6,2.7,4.7,3.8l5,1.4c5.5,1.6,7.8,4.2,7.8,7.8c0,4.3-3.4,8.1-11.3,8.1
			C236.9,94.3,232.5,93.5,229.9,92.5"/>
		<path class="st0" d="M226.2,66.8L218.8,92c-0.4,1.6-1.6,2-3.2,2c-0.9,0-1.8-0.2-2.7-0.4l-7.1-22.5L199.2,92c-0.5,1.6-1.7,2-3.2,2
			c-0.9,0-1.9-0.2-2.7-0.4l-7.8-26.8c0.6-0.4,1.8-0.7,2.8-0.7c1.2,0,1.9,0.4,2.2,1.6l5.6,21.2h0l7-22.1c0.8-0.4,1.8-0.7,2.8-0.7
			c1.7,0,2.7,0.4,3.2,2.1l6.4,20.7h0.1l5.5-21.2c0.4-1.2,1-1.6,2.2-1.6C224.4,66.1,225.6,66.4,226.2,66.8"/>
		<path class="st0" d="M182.6,81.8h-21.4c0.7,5.3,4.4,8.4,10,8.4c2.4,0,4.2-0.5,5.9-1.1c1.2-0.4,1.8-0.6,2.2-0.6
			c1.2,0,2,1.1,1.7,3.6c-2.4,1.1-6.2,2.2-10.1,2.2c-8.6,0-14.5-5.8-14.5-14.4c0-8.2,6.2-14.2,13.7-14.2c8.5,0,12.6,6.7,12.6,13.3
			C182.8,79.9,182.8,80.8,182.6,81.8 M161.2,78.1h17.2c-0.2-4.7-3.2-8.5-8.2-8.5C165.9,69.6,161.9,72.6,161.2,78.1"/>
		<path class="st0" d="M151.3,77.5v14.8c0,1.1-0.6,1.7-2.4,1.7c-0.8,0-1.6-0.1-2.1-0.2V78c0-5.6-2.8-8.4-6.9-8.4
			c-3.3,0-6.8,2.3-8.2,4.9v17.6c0,1.1-0.6,1.7-2.4,1.7c-0.8,0-1.7-0.1-2.1-0.2V66.4c0.4-0.1,1.3-0.3,2.1-0.3c1.8,0,2.4,0.7,2.4,1.7
			v2.4c2-2.4,5.1-4.4,9.2-4.4C146.6,65.7,151.3,69.3,151.3,77.5"/>
	</g>
	<g>
		<path class="st0" d="M40.6,83.5c0.7,0.1,1.3,0.3,1.8,0.5h0C41.9,83.8,41.3,83.7,40.6,83.5 M45,77.5C45.1,77.5,45.1,77.5,45,77.5
			C45.1,77.5,45.1,77.5,45,77.5 M44.9,77.5C45,77.5,45,77.5,44.9,77.5C45,77.5,44.9,77.5,44.9,77.5 M44.8,77.5
			C44.8,77.5,44.8,77.5,44.8,77.5C44.9,77.5,44.8,77.5,44.8,77.5 M44.7,77.4C44.7,77.4,44.7,77.4,44.7,77.4
			C44.7,77.4,44.7,77.4,44.7,77.4 M44.4,77.4c0.1,0,0.2,0,0.2,0C44.6,77.4,44.5,77.4,44.4,77.4 M44.3,77.3
			C44.3,77.3,44.4,77.3,44.3,77.3C44.4,77.3,44.3,77.3,44.3,77.3 M44.2,77.3C44.2,77.3,44.3,77.3,44.2,77.3
			C44.3,77.3,44.2,77.3,44.2,77.3 M43.7,77.2c0.2,0,0.3,0.1,0.5,0.1C44,77.3,43.8,77.2,43.7,77.2 M43.5,77.2c0,0,0.1,0,0.1,0
			C43.6,77.2,43.6,77.2,43.5,77.2 M43.4,77.1C43.4,77.1,43.5,77.2,43.4,77.1C43.5,77.1,43.4,77.1,43.4,77.1 M43.3,77.1
			C43.3,77.1,43.4,77.1,43.3,77.1C43.4,77.1,43.3,77.1,43.3,77.1 M38.6,72.6c-2.7,0-3.9,0.8-3.9,1.8c0,1,1.1,1.4,2.9,1.7l5.6,1
			c0,0,0.1,0,0.1,0c0,0-0.1,0-0.1,0l-5.6-1c-1.8-0.3-2.9-0.7-2.9-1.7C34.7,73.3,35.8,72.6,38.6,72.6 M49.4,66.4c0,0,0.1,0,0.1,0
			l0.2,1.6l-0.2-1.6C49.5,66.4,49.4,66.4,49.4,66.4 M36.4,66L36.4,66c-6,0.7-9.1,4.3-9.1,8.6l0,0C27.3,70.2,30.4,66.6,36.4,66
			 M40.4,65.8c-1.2,0-2.5,0-3.6,0.2C37.9,65.8,39.1,65.8,40.4,65.8 M40.4,65.8L40.4,65.8L40.4,65.8L40.4,65.8"/>
		<path class="st5" d="M40.4,65.8L40.4,65.8c-1.3,0-2.5,0-3.6,0.2c-0.1,0-0.2,0-0.4,0c-6,0.6-9.1,4.3-9.1,8.6c0,3.6,2.6,6.9,7.4,7.8
			l5.8,1.1c0.7,0.1,1.3,0.3,1.8,0.5l8.8-0.4c-0.5-2.7-2.5-4.9-6.1-6.1c0,0,0,0,0,0c0,0,0,0,0,0c0,0,0,0,0,0s0,0,0,0c0,0,0,0-0.1,0
			c0,0,0,0,0,0c0,0-0.1,0-0.1,0c0,0,0,0,0,0c-0.1,0-0.1,0-0.2,0c0,0,0,0,0,0s-0.1,0-0.1,0h0c0,0-0.1,0-0.1,0c0,0,0,0,0,0
			c-0.2,0-0.3-0.1-0.5-0.1h0c0,0-0.1,0-0.1,0h0c0,0-0.1,0-0.1,0s0,0,0,0s-0.1,0-0.1,0s0,0,0,0c0,0-0.1,0-0.1,0l-5.6-1
			c-1.8-0.3-2.9-0.7-2.9-1.7c0-0.9,1.2-1.7,3.9-1.8c0,0,0.1,0,0.1,0c2.8,0,5.2,0.3,6.8,0.3c2.1,0,4.2-0.9,4.2-4.9l-0.2-1.6
			c0,0-0.1,0-0.1,0C47.2,66.2,43.9,65.8,40.4,65.8L40.4,65.8"/>
		<path class="st0" d="M70.6,79.9L70.6,79.9l1.9,2.9L70.6,79.9 M78.2,65.7c-3.4,0-5.3,1.3-7.2,3.4l-9.3,10.2L71,69.1
			C72.9,67,74.8,65.7,78.2,65.7c1.1,0,2.6,0.3,3.2,0.4L91,81.8l4.9-11.5c1.6-3.8,4.1-4.3,6-4.3c0.1,0,0.1,0,0.2,0
			c1.1,0,2.5,0.4,3.1,0.7l-6.7,15.1l0,0l6.7-15.1c-0.6-0.3-2-0.7-3.1-0.7c-0.1,0-0.1,0-0.2,0c-1.9,0-4.4,0.5-6,4.3L91,81.8
			l-9.6-15.6C80.8,66,79.3,65.7,78.2,65.7"/>
		<path class="st5" d="M78.2,65.7c-3.4,0-5.3,1.3-7.2,3.4l-9.3,10.2l2.4,3.8l8.4-0.4l-1.9-2.9l6.4-6.7l5.9,9.2l15.6-0.6l6.7-15.1
			c-0.6-0.3-2-0.7-3.1-0.7c-0.1,0-0.1,0-0.2,0c-1.9,0-4.4,0.5-6,4.3L91,81.8l-9.6-15.6C80.8,66,79.3,65.7,78.2,65.7"/>
		<path class="st5" d="M59.5,56.1c-4.9,0-5.7,2.6-5.7,5.1v22.3l7.6-0.3V56.3L59.5,56.1"/>
	</g>
</g>
</svg>
