<?xml version="1.0" encoding="utf-8"?>
<!-- Generator: Adobe Illustrator 25.4.1, SVG Export Plug-In . SVG Version: 6.00 Build 0)  -->
<svg version="1.1" id="Layer_1" xmlns="http://www.w3.org/2000/svg" xmlns:xlink="http://www.w3.org/1999/xlink" x="0px" y="0px"
	 viewBox="0 0 280 160" style="enable-background:new 0 0 280 160;" xml:space="preserve">
<style type="text/css">
	.st0{fill:#1D1D1B;}
</style>
<path class="st0" d="M46.9,96.7c4.5-0.4,9-1.9,9-6.7V74.9l-2.1-2.1l-2.4,2.1v11.4l1.9,1.7L49,91.8h-0.2l-4.3-3.6l1.1-1.1V63.9
	c0-1.7-1.5-2.6-2.4-2.8v-0.4c0.4-0.2,1.1-0.4,1.9-0.4c1.5,0,2.8,0.9,3.2,1.9h0.2c0.9-1.3,2.4-1.9,3.6-1.9c0.4,0,0.9,0,1.3,0.2v0.4
	c-0.6,0.2-1.9,1.1-1.9,3.4V74l5.8-5.4h0.4c0.4,0.4,2.8,2.6,3.4,3c0.2,0.2,0.4,0.2,0.9,0.2s0.9-0.2,1.3-0.4v0.6
	c-0.4,0.4-1.1,1.1-1.1,2.1v13.1c0,5.8-6.4,9.4-15,10.1v-0.6H46.9z M44.7,60.9c0.9,0.6,1.7,1.3,1.7,2.8v23.8l-0.9,0.9l3.6,3l1.1-0.9
	l-2.8-2.4l0.4-0.4V63.9C47.8,62,46,61.1,44.7,60.9 M54.8,95.2c1.7-1.1,3.4-2.4,3.4-4.9V74l-2.6-2.8l-1.3,1.1l2.1,2.4v15.4
	C56.8,92.2,55.9,93.9,54.8,95.2z M65.6,74c2.6-1.3,6.2-3.4,8.8-5.4h0.4c1.7,1.7,4.1,4.5,6.2,6.4v0.4l-9.4,6v3.9
	c0.9,0.6,3.6,1.9,5.4,2.6l3.9-3.6l0.4,0.4L73.7,92h-0.4c-2.6-1.1-5.8-2.6-7.9-3.6c0.2-0.9,0.4-2.8,0.4-5.1V74H65.6z M74.4,90.5
	c-2.6-1.1-4.7-2.1-6.9-3.2c0.2-0.6,0.2-1.7,0.2-4.1v-9.7l-1.5,0.9v8.8c0,2.4,0,4.1-0.2,4.7c1.9,1.1,4.7,2.4,7.3,3.4
	C73.3,91.4,74.4,90.5,74.4,90.5z M71.6,80.9l4.3-2.8c-1.5-1.7-3-3.4-4.3-4.7V80.9z M72.9,71.4l-1.1,0.9c1.3,1.5,3,3.4,4.7,5.4
	l1.3-0.9C75.9,74.9,74.1,72.9,72.9,71.4 M249.4,96.7c4.5-0.4,9-1.9,9-6.7V74.9l-2.1-2.1l-2.4,2.1v11.4l1.9,1.7l-4.3,3.9h-0.4
	l-4.3-3.6l1.1-1.1V63.9c0-1.7-1.5-2.6-2.4-2.8v-0.4c0.4-0.2,1.1-0.4,1.9-0.4c1.5,0,2.8,0.9,3.2,1.9h0.2c0.9-1.3,2.4-1.9,3.6-1.9
	c0.4,0,0.9,0,1.3,0.2v0.4c-0.6,0.2-1.9,1.1-1.9,3.4V74l5.6-5.4h0.4c0.4,0.4,2.8,2.6,3.4,3c0.2,0.2,0.4,0.2,0.9,0.2s0.9-0.2,1.3-0.4
	v0.9c-0.4,0.4-1.1,1.1-1.1,2.1v12.9c0,5.8-6.4,9.4-15,10.1C249.4,97.4,249.4,96.7,249.4,96.7z M247.3,60.9c0.6,0.4,1.7,1.3,1.7,2.8
	v23.6l-0.9,0.9l3.6,3l1.1-0.9l-2.8-2.4l0.4-0.4V63.9C250.3,62,248.6,61.1,247.3,60.9 M257.1,95c1.7-1.1,3.4-2.4,3.4-4.9V74l-2.6-2.8
	l-1.1,1.1l2.1,2.4v15.4C259.3,92.2,258.4,93.9,257.1,95z M121.1,74c2.6-1.3,6.2-3.4,8.8-5.4h0.4c1.7,1.7,4.1,4.5,6,6.2v0.4l-9.2,6
	v3.9c1.1,0.6,3.6,1.9,5.4,2.6l3.9-3.6l0.4,0.4l-7.5,7.3h-0.4c-2.6-1.1-5.8-2.6-7.9-3.6c0.2-0.9,0.4-2.8,0.4-5.1v-9H121.1z
	 M129.7,90.5c-2.6-1.1-4.7-2.1-6.9-3.2c0.2-0.6,0.2-1.7,0.2-4.1v-9.7l-1.3,0.6V83c0,2.4,0,4.1-0.2,4.7c1.9,1.1,4.7,2.4,7.3,3.4
	C128.8,91.2,129.7,90.5,129.7,90.5z M127.1,80.6l4.3-2.8c-1.5-1.7-3-3.4-4.3-4.7V80.6z M128.4,71.4l-1.3,0.9c1.3,1.5,3,3.4,4.7,5.4
	l1.3-0.9C131.4,74.9,129.7,72.9,128.4,71.4 M144.9,63.3v22.5c0,0.9,0.9,1.9,1.7,2.1l1.3-1.3l0.4,0.4l-4.7,4.9h-0.4
	c-1.7-0.4-4.3-2.1-4.3-4.9v-21l-1.3-1.3l-1.5,1.5l-0.4-0.4l5.4-5.6h0.4L144.9,63.3z M144.3,90.3c-1.7-0.4-3.4-1.5-3.4-3.9V65.2
	l-1.9-1.9l-1.1,1.1l1.7,1.5v21.2c0,2.4,1.9,3.9,3.6,4.3C143.2,91.4,144.3,90.3,144.3,90.3z M150.5,74c2.6-1.3,6.2-3.4,8.8-5.4h0.4
	c1.7,1.7,4.1,4.5,6,6.2v0.4l-9.2,6v3.9c0.9,0.6,3.6,1.9,5.4,2.6l3.9-3.6l0.4,0.4l-7.5,7.3h-0.4c-2.6-1.1-5.8-2.6-7.9-3.6
	c0.2-0.9,0.4-2.8,0.4-5.1v-9H150.5z M159.1,90.5c-2.6-1.1-4.7-2.1-6.9-3.2c0.2-0.6,0.2-1.7,0.2-4.1v-9.7l-1.3,0.6V83
	c0,2.4,0,4.1-0.2,4.7c1.9,1.1,4.7,2.4,7.3,3.4C158.2,91.2,159.1,90.5,159.1,90.5z M156.5,80.6l4.3-2.8c-1.5-1.7-3-3.4-4.3-4.7V80.6z
	 M157.8,71.4l-1.1,0.9c1.3,1.5,3,3.4,4.7,5.4l1.1-0.9C160.8,74.9,159.1,72.9,157.8,71.4 M196,74.9v10.9c0,0.9,0.9,1.9,1.7,1.9
	l1.3-1.3l0.4,0.4l-4.7,4.9h-0.2c-1.7-0.4-4.3-1.9-4.3-4.9V74.4l-1.3-1.3l-1.5,1.3L187,74l5.4-5.4h0.4l3.4,3.4V74l4.3-5.1h0.4
	c0.9,0.9,2.1,2.1,3.4,3l-3.6,4.3c-1.1-0.9-2.4-2.1-3.2-2.8C197.5,73.3,196,74.9,196,74.9z M195.6,90.3c-1.7-0.4-3.4-1.5-3.4-3.9
	V73.6l-1.7-1.9l-1.1,1.1l1.5,1.5v12.7c0,2.4,1.9,3.9,3.6,4.3C194.5,91.2,195.6,90.3,195.6,90.3z M197.9,72.9
	c0.6,0.6,1.7,1.7,2.6,2.4l0.9-1.1c-0.9-0.6-2.1-1.9-2.8-2.4C198.6,71.8,197.9,72.9,197.9,72.9z M209.9,92l-5.1-3.4v-6.9
	c1.3-0.9,4.1-2.8,5.4-3.6c-2.1-1.1-3.9-2.4-4.9-3.9v-0.4c3-1.7,5.4-3.4,7.1-5.1h0.4c0,0,6.4,3,6.7,3.2c0.4,0.2,0.6,0.2,0.9,0.2
	c0.4,0,0.9-0.2,1.3-0.4v0.6c-0.4,0.4-1.1,1.1-1.1,1.9v11.4c0,1.3,1.1,1.9,1.9,2.1l1.3-1.3l0.4,0.4l-4.7,4.9h-0.2
	c-1.9-0.4-4.1-2.4-4.3-4.5l-4.5,4.5h-0.4V92z M211,90.3l-4.3-2.8v-6.4l-1.3,0.9v6.2l4.7,3L211,90.3z M214.7,79.1v-3.4l-6.2-3.2
	c-0.4,0.4-2.1,1.3-2.6,1.7C207.4,75.9,211.2,78.3,214.7,79.1 M220.2,90.3c-1.7-0.6-3.4-1.7-3.4-4.1V74.4l-6.4-3.2
	c-0.2,0.2-0.9,0.6-1.1,0.9l6.2,3.2v11.6c0,2.1,2.1,3.9,3.6,4.5L220.2,90.3z M214.7,86.7v-6.9c-1.3-0.4-2.8-0.9-4.1-1.5v8.6l2.4,1.5
	L214.7,86.7z M168.1,88.4V74l7.7-5.4h0.4c1.5,0.6,6.4,2.8,6.9,3c0.2,0,0.4,0.2,0.9,0.2c0.4,0,0.9-0.2,1.5-0.4v0.9
	c-0.4,0.4-1.1,1.3-1.1,1.9v12.2c0,2.8,0.6,4.5,1.7,5.6v0.4c-1.7,1.7-5.6,5.8-7.3,7.7h-0.2c-1.7-0.9-4.5-1.7-6.7-1.7
	c-1.7,0-3.6,0.4-4.9,1.5l-0.4-0.2c1.3-3,4.1-6.2,7.7-6.2c2.1,0,5.1,0.9,7.7,2.4c-1.7-1.9-3.2-5.6-3.2-8.4l-4.5,4.3h-0.4
	C173.9,91.8,168.1,88.4,168.1,88.4z M171.8,96.7c-1.7,0-3.2,0.9-4.1,1.9v0.2c1.1-0.6,2.1-0.9,4.1-0.9c2.1,0,5.1,0.6,6.7,1.5l0.9-1.1
	C177.3,97.6,174.5,96.7,171.8,96.7 M173.5,91.4l1.1-0.9l-4.5-3.2V73.6l-1.3,0.9v13.7C168.7,88.2,173.5,91.4,173.5,91.4z M180.3,73.6
	l-6.4-2.6v1.3l4.9,2.1v12.9c0,2.8,1.3,5.8,3.2,8.2l1.1-1.1c-1.7-2.1-2.8-4.5-2.8-7.3C180.3,87.1,180.3,73.6,180.3,73.6z M178.4,86.7
	V74.9l-4.3-1.9v13.5l2.8,1.7L178.4,86.7z M233.3,74l5.6-5.4h0.4c0.4,0.4,3,2.8,3.4,3c0.2,0.2,0.4,0.2,0.6,0.2c0.4,0,0.9-0.2,1.3-0.4
	v0.9c-0.4,0.4-1.1,1.3-1.1,2.1v13.7c-2.4,0.6-4.3,1.9-6.4,4.3H237l-3.6-0.9v3l1.9,1.7l-4.5,3.9h-0.2l-4.3-3.6l1.1-1.3v-5.1
	c-0.4,0-1.3-0.2-1.7-0.4V89c0.4-0.2,1.9-1.5,1.9-2.6V74.6l-1.3-1.3l-1.5,1.5l-0.4-0.4l5.4-5.4h0.4l3.4,3.4V74H233.3z M228,95.7
	l-0.9,0.9l3.4,3l1.1-0.9l-2.8-2.4l0.4-0.4V73.6l-1.9-1.9l-0.9,0.9L228,74L228,95.7L228,95.7z M237.6,87.3V74.9l-2.1-2.1l-2.4,2.1
	v11.4C234.2,86.7,237.2,87.1,237.6,87.3 M237,91.8c0.2-0.4,0.6-0.9,0.9-1.1l-4.7-0.9v1.3C233.1,91.2,237,91.8,237,91.8z M235.9,72.5
	l2.4,2.4v12.4l1.3-0.6V74l-2.6-2.6L235.9,72.5z M16.2,79.4c0-5.6,4.1-9.2,7.9-10.9l0.2,0.4c-1.3,1.5-2.1,3-2.1,6.4
	c0,3.9,1.1,6.4,2.6,8.2c0.4-0.6,0.9-1.5,0.9-2.4v-5.6l6.9-4.9l0.2,0.4c-0.4,0.6-0.9,1.5-0.9,2.8v3.6c0,2.6-4.1,5.4-6.7,6.2
	c1.7,1.7,4.1,2.4,6.7,2.4c0.9,0,1.7,0,2.6-0.2V70.1c-2.4-0.2-4.5-0.6-6.4-1.3c-2.1-0.6-4.3-1.3-6-1.3c-2.8,0-6.2,0.9-6.2,4.9v1.3
	L15.1,74c-0.4-1.3-0.6-2.6-0.6-3.6c0-4.9,3.6-9.2,9.4-9.2c2.4,0,4.7,0.6,6.9,1.3s4.3,1.3,6.4,1.3c1.1,0,1.7-0.6,1.7-1.7
	c0-1.1-0.4-1.5-1.3-1.7v-0.4c2.6,0.4,5.1,1.9,5.1,5.1c0.2,3.2-2.6,5.1-7.3,5.1h-0.4V86c3-0.6,5.1-1.9,6.7-4.5l0.4,0.2
	c-1.7,5.4-5.8,10.5-12.9,10.5S16.2,87.9,16.2,79.4 M35.5,68.2c-5.1,0-9.9-2.6-13.5-2.6c-2.6,0-5.4,1.1-6.2,3.9H16
	c1.1-1.9,3.6-2.6,6-2.6c3.9,0,8.4,2.6,13.5,2.6c4.1,0,6.7-1.5,6.9-4.7h-0.2C41.7,67.3,39.6,68.2,35.5,68.2 M20.7,71.4
	c-1.9,1.9-3.6,4.5-3.6,7.9c0,8.2,5.4,12.2,12.4,12.2c4.3,0,7.3-2.4,9-4.1l-0.2-0.2c-1.9,1.7-4.7,3-9,3c-5.6,0-10.9-3.4-10.9-10.9
	C18.4,76.4,19.4,73.3,20.7,71.4z M27.6,80.6v-6l-1.3,1.1v5.6c0,0.6-0.2,1.1-0.2,1.5h0.2C26.9,82.1,27.6,81.5,27.6,80.6 M92.6,79.4
	c0-5.6,4.1-9.2,7.9-10.9l0.2,0.4c-1.5,1.7-2.4,3.2-2.4,6.4c0,3.9,1.1,6.4,2.6,8.2c0.4-0.6,0.9-1.5,0.9-2.4v-5.6l7.1-5.1l0.2,0.4
	c-0.6,0.9-0.9,1.7-0.9,3v3.6c0,2.6-4.1,5.4-6.7,6.2c1.7,1.7,4.1,2.4,6.7,2.4c0.9,0,1.7,0,2.6-0.2V70.1c-2.4-0.2-4.5-0.6-6.4-1.3
	c-2.1-0.6-4.3-1.3-6-1.3c-2.8,0-6.2,0.9-6.2,4.9v1.3L91.7,74c-0.4-1.3-0.6-2.6-0.6-3.6c0-4.9,3.6-9.2,9.4-9.2c2.4,0,4.7,0.6,6.9,1.3
	s4.3,1.3,6.4,1.3c1.1,0,1.7-0.6,1.7-1.7c0-1.1-0.4-1.5-1.3-1.7v-0.4c2.6,0.4,5.1,1.9,5.1,5.1c0,3.9-2.8,5.6-7.5,5.6h-0.4v15.9
	c3-0.6,5.1-1.9,6.7-4.5l0.4,0.2c-1.7,5.4-5.8,10.5-12.9,10.5C98.6,92.2,92.6,87.9,92.6,79.4 M111.9,68.2c-5.1,0-9.9-2.6-13.5-2.6
	c-2.4,0-5.1,1.1-6.2,3.9h0.2c1.1-1.9,3.6-2.6,6-2.6c3.9,0,8.4,2.6,13.5,2.6c4.1,0,6.7-1.5,6.9-4.7h-0.2
	C117.9,67.3,116,68.2,111.9,68.2 M97.1,71.4c-1.9,1.9-3.6,4.5-3.6,7.9c0,8.2,5.4,12.2,12.4,12.2c4.3,0,7.3-2.4,9-4.1l-0.2-0.2
	c-1.9,1.7-4.7,3-9,3c-5.6,0-10.9-3.4-10.9-10.9C94.7,76.4,95.8,73.3,97.1,71.4z M104,80.6v-6l-1.3,0.9v5.6c0,0.6-0.2,1.1-0.2,1.5
	h0.2C103.3,82.1,104,81.5,104,80.6"/>
</svg>
