<?xml version="1.0" encoding="utf-8"?>
<!-- Generator: Adobe Illustrator 25.4.1, SVG Export Plug-In . SVG Version: 6.00 Build 0)  -->
<svg version="1.1" id="Layer_1" xmlns="http://www.w3.org/2000/svg" xmlns:xlink="http://www.w3.org/1999/xlink" x="0px" y="0px"
	 viewBox="0 0 280 160" style="enable-background:new 0 0 280 160;" xml:space="preserve">
<style type="text/css">
	.st0{fill:#D21E1E;}
</style>
<g transform="translate(-14.716233 -1019.5262)">
	<g>
		<g>
			<path class="st0" d="M148,1139.9h68.3c1.9-0.1,3.7-1.1,4.8-2.9l11.2-16.3l-67.8,0c-2.1,0-4,1-5.3,2.9L148,1139.9z"/>
			<path class="st0" d="M150.3,1059.2l-71.5,0c-2.1,0-4,1-5.3,2.9l-11.1,16.3h71.6c1.9-0.1,3.7-1.1,4.9-2.9L150.3,1059.2z"/>
			<path class="st0" d="M210.7,1109.2c13.8-0.1,28.9-11.3,31.8-25c2.9-13.7-8.6-24.8-22.2-25.1l-52.1,0c-2.1,0-4,1-5.3,2.9
				l-10.8,16.4c0.8,0,64.7,0,64.7,0c3.2,0,4.7,2.5,4,5.8c-0.6,3.1-3.8,5.6-6.9,5.8l-28.2,0c-2.1,0-4,1.1-5.3,3l-11.1,16.2
				L210.7,1109.2z"/>
			<path class="st0" d="M167.6,1090l-20.3,0c-2.3,0-4.2,1.1-5.4,2.8l-28.1,41.4l5.1-44.7H97.6l-4.9,42.9c0,0.7,0,1.3,0.1,2
				c0,0.1,0.1,0.2,0.1,0.3c0.3,1.5,1.2,3.1,2.4,4.1c0.4,0.3,0.9,0.6,1.5,0.8c0.5,0.2,1,0.2,1.4,0.3H130c2.3,0,4.2-1.1,5.4-2.8
				L167.6,1090z"/>
		</g>
	</g>
</g>
</svg>
