<?xml version="1.0" encoding="utf-8"?>
<!-- Generator: Adobe Illustrator 27.0.0, SVG Export Plug-In . SVG Version: 6.00 Build 0)  -->
<svg version="1.1" id="Layer_1" xmlns="http://www.w3.org/2000/svg" xmlns:xlink="http://www.w3.org/1999/xlink" x="0px" y="0px"
	 viewBox="0 0 280 160" style="enable-background:new 0 0 280 160;" xml:space="preserve">
<style type="text/css">
	.st0{fill-rule:evenodd;clip-rule:evenodd;fill:#334155;}
	.st1{fill:#334155;}
</style>
<g>
	<path class="st0" d="M32.6,92.9H38v31.3h-5.4V92.9z M75.8,112.9L54.1,92.4v31.8h5.1v-20.4l21.7,20.9V92.9h-5.1
		C75.8,92.9,75.8,112.9,75.8,112.9z M108.8,106.8l-5.1-1.9c-2.6-0.9-4.2-1.9-4.2-4.2c0-2.5,2.4-3.8,5.6-3.8c3.7,0,6.6,1.4,9.2,3.4
		v-5.5c-2.5-1.6-5.8-2.5-9.2-2.5c-5.8,0-10.7,3-10.7,8.5c0,5.1,3.2,7.4,7.4,8.9l4.5,1.6c2.8,1,4.4,2.1,4.4,4.5
		c0,2.8-2.5,4.1-6.1,4.1c-3.7,0-7.2-1.3-10-3.7v5.6c2.2,1.5,5.8,2.7,10,2.7c6.4,0,11.3-3.1,11.3-8.9
		C116,111.3,113.8,108.5,108.8,106.8z M128,92.9h5.4v31.3H128V92.9z M161.9,92.9h-12.1v31.3h12.1c9.2,0,15.3-6.1,15.3-15.7
		S171.1,92.9,161.9,92.9z M161.7,119.5h-6.5V97.6h6.5c6.6,0,10.2,4.2,10.2,10.9C171.8,115.2,168.3,119.5,161.7,119.5z M189.3,124.2
		h19.2v-4.7h-13.9v-9.7H207v-4.6h-12.5v-7.6h13.9V93h-19.2v31.2H189.3z M236.1,111.3c5-0.8,7.4-3.8,7.4-9.1c0-6.1-4.2-9.4-10.8-9.4
		h-11.4v31.3h5.4v-12.6h3.8l10.9,12.6h6L236.1,111.3L236.1,111.3z M226.6,107v-9.5h5.9c3.6,0,5.6,1.9,5.6,4.8s-2,4.8-5.6,4.8
		L226.6,107L226.6,107z"/>
</g>
<g>
	<path class="st1" d="M63.1,36.9v14.5h-4.5V44l-3.1,5h-1.2L51,43.9v7.6h-4.5V36.9h4.9l3.4,5.1l3.4-5.1H63.1z"/>
	<path class="st1" d="M72.8,51.4h-4.5V36.9h4.5V51.4z"/>
	<path class="st1" d="M88.9,47.6v3.9H78V36.9h4.5v10.7C82.5,47.6,88.9,47.6,88.9,47.6z"/>
	<path class="st1" d="M97.7,51.4h-4.5V36.9h4.5V51.4z"/>
	<path class="st1" d="M114.3,40.8h-3.9v10.7h-4.5V40.8H102v-3.9h12.3V40.8z"/>
	<path class="st1" d="M127.7,51.4l-0.8-2.1h-5.3l-0.8,2.1H116l5.9-14.5h4.9l5.9,14.5C132.8,51.4,127.7,51.4,127.7,51.4z M123,45.7
		h2.5l-1.3-3.5L123,45.7z"/>
	<path class="st1" d="M149.5,51.4h-5.3l-2.4-4.1H141v4.1h-4.5V36.9h6.2c1.8,0,3.3,0.5,4.4,1.5c1.1,1,1.7,2.3,1.7,3.8
		c0,1.9-0.8,3.3-2.4,4.2L149.5,51.4z M144.4,42.2L144.4,42.2c0-0.5-0.2-0.8-0.5-1.1s-0.8-0.5-1.2-0.5h-1.6v3h1.6
		c0.6,0,0.9-0.1,1.2-0.4C144.3,43,144.4,42.7,144.4,42.2z"/>
	<path class="st1" d="M167.1,36.9l-5.7,9.1v5.5h-4.5V46l-5.7-9.1h5.4l2.6,4.6l2.6-4.6C161.9,36.9,167.1,36.9,167.1,36.9z"/>
	<path class="st1" d="M189.7,51.4l-0.8-2.1h-5.3l-0.8,2.1H178l5.9-14.5h4.9l5.9,14.5C194.8,51.4,189.7,51.4,189.7,51.4z M185,45.7
		h2.5l-1.3-3.5L185,45.7z"/>
	<path class="st1" d="M207.9,36.9h4.5v14.5h-4.2l-4.9-6.6v6.6h-4.5V36.9h4.2l4.9,6.7V36.9z"/>
	<path class="st1" d="M217.6,51.4V36.9h6.1c2.3,0,4.2,0.7,5.6,2c1.4,1.3,2.2,3.1,2.2,5.3s-0.8,4-2.2,5.3s-3.3,2-5.6,2
		C223.7,51.4,217.6,51.4,217.6,51.4z M222.1,47.6h1.6c2.1,0,3.2-1.1,3.2-3.4s-1-3.4-3.2-3.4h-1.6V47.6z"/>
</g>
<g>
	<path class="st1" d="M84,78.5V64h6.1c2.3,0,4.2,0.7,5.6,2s2.2,3.1,2.2,5.3c0,2.2-0.8,4-2.2,5.3c-1.4,1.3-3.3,2-5.6,2
		C90.2,78.5,84,78.5,84,78.5z M88.6,74.7h1.6c2.1,0,3.2-1.1,3.2-3.4s-1-3.4-3.2-3.4h-1.6V74.7z"/>
	<path class="st1" d="M107.2,67.9v1.6h5.6v3.7h-5.6v1.5h6.4v3.9h-10.9V64h10.9v3.9H107.2z"/>
	<path class="st1" d="M122.7,67.9v1.6h5.6v3.7h-5.6v5.4h-4.5V64h10.9v3.9H122.7z"/>
	<path class="st1" d="M138.1,67.9v1.6h5.6v3.7h-5.6v1.5h6.4v3.9h-10.9V64h10.9v3.9H138.1z"/>
	<path class="st1" d="M158.4,64h4.5v14.5h-4.2l-4.9-6.6v6.6h-4.5V64h4.2l4.9,6.7V64z"/>
	<path class="st1" d="M169.7,73.2L169.7,73.2c1.6,1,3.2,1.5,4.8,1.5c1,0,1.5-0.2,1.5-0.7c0-0.2-0.2-0.4-0.6-0.5
		c-0.5-0.1-0.9-0.2-1.5-0.3c-0.6-0.1-1.2-0.2-2-0.4c-0.8-0.2-1.4-0.5-2-0.8s-1.1-0.8-1.5-1.3c-0.4-0.6-0.6-1.3-0.6-2.3
		c0-1.4,0.6-2.5,1.7-3.4c1.1-0.8,2.6-1.3,4.4-1.3c2.5,0,4.6,0.8,6.4,2.4l-2.3,3.1c-0.6-0.5-1.2-0.8-2-1c-0.8-0.3-1.5-0.4-2.3-0.4
		c-0.9,0-1.4,0.2-1.4,0.6c0,0.2,0.2,0.4,0.6,0.5c0.4,0.1,0.8,0.2,1.5,0.3c0.6,0.1,1.2,0.2,2,0.4c0.8,0.2,1.4,0.5,2,0.8
		s1.1,0.8,1.5,1.3c0.4,0.7,0.6,1.3,0.6,2.3c0,1.5-0.6,2.6-1.6,3.6c-1,0.8-2.5,1.3-4.5,1.3c-2.7,0-5.1-0.8-7.1-2.5L169.7,73.2z"/>
	<path class="st1" d="M189.6,67.9v1.6h5.6v3.7h-5.6v1.5h6.4v3.9h-10.9V64H196v3.9H189.6z"/>
</g>
</svg>
