<?xml version="1.0" encoding="utf-8"?>
<!-- Generator: Adobe Illustrator 27.0.0, SVG Export Plug-In . SVG Version: 6.00 Build 0)  -->
<svg version="1.1" id="Layer_1" xmlns="http://www.w3.org/2000/svg" xmlns:xlink="http://www.w3.org/1999/xlink" x="0px" y="0px"
	 viewBox="0 0 280 160" style="enable-background:new 0 0 280 160;" xml:space="preserve">
<style type="text/css">
	.st0{fill:#334155;}
</style>
<g>
	<path class="st0" d="M37.9,78.1V86c0,0.4,0,0.9-0.1,1.2c0,1,0.1,1.7,0.3,2.3c0.1,0.5,0.4,1,0.9,1.2c0.4,0.3,1.2,0.5,2.3,0.7
		c1.2,0.1,1.7,0.5,1.7,1.2c0,0.8-0.4,1.2-1.3,1.2s-2.3,0-4.4-0.1s-3.6-0.1-4.6-0.1c-0.7,0-2.1,0-4,0.1s-3.4,0.1-4.3,0.1
		c-0.4,0-0.8-0.1-1.1-0.2c-0.2-0.1-0.4-0.4-0.4-1c0-0.4,0.1-0.7,0.4-0.9c0.3-0.2,0.7-0.3,1.1-0.3c1.1-0.1,2-0.4,2.4-0.7
		c0.5-0.3,0.9-0.8,1-1.3s0.2-1.3,0.2-2.3v-1.2V65.4v-1.2c0-1.5-0.2-2.6-0.5-3.3s-1.3-1-2.7-1.2c-0.7-0.1-1.1-0.2-1.4-0.3
		c-0.1-0.1-0.3-0.3-0.3-0.8s0.1-0.8,0.3-0.9c0.2-0.1,0.5-0.2,1-0.2c1.2,0,2.7,0,4.7,0.1c2.1,0.1,3.4,0.1,4.3,0.1
		c1.2,0,2.5,0,4.2-0.1s2.9-0.1,4.2-0.1c0.9,0,1.3,0.3,1.3,1c0,0.4-0.1,0.7-0.3,0.8s-0.7,0.3-1.2,0.4c-1.2,0.2-2.1,0.4-2.5,0.8
		c-0.4,0.3-0.8,0.8-0.9,1.4c-0.1,0.7-0.1,1.7-0.1,3.4v7.3c0,0.2,0,0.4-0.1,0.7c0.1,0.3,0.2,0.4,0.3,0.4s0.7-0.3,1.5-1.1
		c0.3-0.4,1-1,1.9-1.9s1.7-1.7,2.5-2.5s2.3-2.4,4.5-4.7c1.4-1.5,2.2-2.5,2.2-3.1c0-0.7-0.5-0.9-1.6-0.9c-0.9-0.1-1.5-0.2-1.9-0.3
		s-0.5-0.4-0.5-1c0-0.4,0.1-0.7,0.3-0.8s0.7-0.1,1.2-0.1H62h0.4c0.9,0,1.3,0.2,1.3,0.8c0,1-1.1,1.4-3.2,1.4c-2.4,0-4.5,0.8-6.3,2.4
		l-6,5.6c-1.4,1.4-2.2,2.4-2.2,2.8c0,0.3,0.3,0.8,0.8,1.3l13.4,15.8c1.4,1.6,2.3,2.7,2.8,3.1c0.4,0.3,1,0.5,1.7,0.7
		c0.8,0.1,1.2,0.2,1.4,0.2c0.2,0.1,0.3,0.3,0.3,0.9c0,0.9-0.8,1.4-2.4,1.4c-0.9,0-2.3,0-4.2-0.1s-3.3-0.1-4.2-0.1s-2.2,0-3.9,0.1
		s-3.1,0.1-3.8,0.1c-1.1,0-1.5-0.4-1.5-1.4c0-0.4,0.1-0.7,0.4-0.9c0.2-0.1,0.7-0.2,1.1-0.3c0.4-0.1,0.9-0.1,1.1-0.2
		c0.2-0.1,0.3-0.3,0.3-0.7c0-0.2-0.1-0.4-0.2-0.7s-0.3-0.4-0.5-0.8c-0.2-0.3-0.5-0.5-0.8-0.9l-8.2-10.2c-0.8-1-1.3-1.4-1.6-1.5
		c-0.1,0-0.3,0.3-0.4,1.1C37.8,77.7,37.9,77.9,37.9,78.1"/>
	<path class="st0" d="M64,74.4c-0.7-1.3-1.2-2.3-1.6-2.9c-0.4-0.8-0.9-1.2-1.2-1.4s-0.7-0.4-1-0.4s-0.7-0.1-0.9-0.1
		c-1.1-0.2-1.6-0.7-1.6-1.3s0.7-1,1.9-1H74c1.3,0,2.1,0.3,2.1,1c0,0.5-0.3,0.9-1,1.1s-1.2,0.3-1.9,0.5c-0.7,0.2-1,0.5-1,1.1
		c0,0.3,0.3,1.2,1,2.5l4.3,9.1c0.1,0.1,0.2,0.3,0.4,0.7c0.2,0.3,0.3,0.5,0.4,0.8c0.1,0.2,0.2,0.2,0.4,0.2c0.2,0,0.5-0.2,0.7-0.7
		c0.2-0.4,0.3-0.8,0.5-1.2l3.8-8.7c0.4-1,0.7-1.7,0.7-2.3c0-0.7-0.2-1.1-0.7-1.3c-0.4-0.2-1.1-0.3-1.9-0.4c-0.9-0.1-1.4-0.2-1.7-0.3
		c-0.3-0.1-0.5-0.4-0.5-1c0-0.7,0.7-1,2-1h9.8c0.7,0,1,0,1.2,0.1s0.3,0.3,0.3,0.8c0,0.8-0.5,1.2-1.5,1.3c-0.9,0.1-1.6,0.2-2,0.4
		c-0.4,0.2-0.9,0.7-1.4,1.5s-1.3,2.3-2.3,4.4l-8.5,17.9c-0.1,0.2-0.7,1.5-1.6,3.9c-1.1,2.5-1.6,3.9-1.7,4.2
		c-0.5,1.5-0.9,2.5-1.1,2.9s-0.5,0.8-1.1,1s-1.4,0.3-2.6,0.3c-1.7,0-2.9-0.2-3.8-0.7c-0.9-0.4-1.2-1.3-1.2-2.5c0-2.4,1-3.7,3.1-3.9
		c1,0.1,1.9,0.2,2.6,0.2c1,0,1.9-0.4,2.7-1.2c0.9-0.8,1.3-1.6,1.3-2.7c0-0.9-0.4-1.9-1.2-3.2L64,74.4z"/>
	<path class="st0" d="M96.3,77.2v-1.1c0-1-0.2-1.6-0.5-2.2c-0.3-0.5-1-0.8-2.1-0.9c-0.1,0-0.2,0-0.3,0.1c-0.4-0.1-0.9-0.2-1.1-0.3
		C92.1,72.7,92,72.5,92,72c0-0.3,0.2-0.7,0.5-0.8c0.4-0.2,1-0.3,1.9-0.5c1.2-0.2,2.5-0.8,4-1.4c1.5-0.8,2.6-1.5,3.4-2.5
		c0.7-0.7,1.3-1,2.1-1c0.3,0,0.5,0.1,0.8,0.4c0.1,0.3,0.2,0.9,0.2,1.6v17.8c0,1.1,0,1.9-0.1,2.4c0,0.9,0.1,1.5,0.2,1.9
		c0.1,0.3,0.2,0.7,0.4,0.8c0.2,0.2,0.5,0.3,1.1,0.3c0.4,0.1,1.1,0.1,1.9,0.2c0.4,0,0.8,0.2,1,0.4s0.3,0.4,0.3,0.7
		c0,0.8-0.5,1.2-1.7,1.2H93.4c-1.2,0-1.9-0.4-1.9-1.2c0-0.4,0.2-0.8,0.5-0.9s0.9-0.2,1.5-0.3c0.7,0,1.2-0.1,1.5-0.2s0.5-0.3,0.7-0.7
		c0.3-0.7,0.4-2.2,0.4-4.6L96.3,77.2L96.3,77.2z"/>
	<path class="st0" d="M95.3,59.4c0-1.3,0.5-2.4,1.5-3.2c1.1-0.8,2.2-1.2,3.5-1.2s2.5,0.4,3.6,1.2c1,0.8,1.5,1.9,1.5,3.3
		c0,1.5-0.5,2.6-1.5,3.5s-2.3,1.2-3.6,1.2c-1.4,0-2.5-0.4-3.5-1.3C95.9,61.9,95.3,60.8,95.3,59.4"/>
	<path class="st0" d="M111.5,73.6c-0.7-1.3-1.1-2.2-1.3-2.7c-0.2-0.4-0.7-0.8-1-1.1c-0.4-0.2-1-0.4-1.7-0.5
		c-0.5-0.1-0.9-0.2-1.1-0.3c-0.2-0.1-0.3-0.3-0.3-0.8c0-0.8,0.7-1.1,1.9-1.1h14.4c1.2,0,1.7,0.3,1.7,1.1c0,0.4-0.1,0.8-0.4,0.9
		s-0.8,0.2-1.4,0.3c-0.7,0.1-1.2,0.2-1.5,0.3c-0.3,0.1-0.5,0.4-0.5,1c0,0.2,0.1,0.5,0.2,1c0.2,0.4,0.3,0.9,0.4,1.1l4.2,9.3
		c0.4,1.1,0.8,1.6,1,1.6c0.3,0,0.7-0.4,0.9-1.4l3.1-6.8c0.9-2,1.3-3.3,1.3-4c-0.1-1.1-1-1.9-2.6-2c-0.7-0.1-1.2-0.2-1.5-0.3
		c-0.3-0.1-0.4-0.4-0.4-0.9c0-0.8,0.4-1.1,1.4-1.1h10.2c1.1,0,1.6,0.3,1.6,1.1c0,0.5-0.4,1-1.3,1.2c-1.3,0.2-2.2,0.4-2.6,0.7
		s-0.9,0.9-1.3,2L125,91.9c-0.5,1-1,1.6-1.2,2c-0.3,0.3-0.8,0.4-1.5,0.4c-0.4,0-0.8,0-1-0.1s-0.4-0.2-0.7-0.3
		c-0.1-0.2-0.3-0.4-0.5-0.9s-0.3-0.8-0.4-0.9L111.5,73.6z"/>
	<path class="st0" d="M161.4,72.7c0,1.2,0.1,1.9,0.3,2.1c0.7,0.5,1.7,0.8,3.2,0.8s2.8-0.4,3.8-1.2s1.6-1.7,2.1-2.9
		c0.4-1.2,0.7-2.4,0.7-3.7c0-2.2-0.7-3.9-1.9-5.6c-1.3-1.5-2.9-2.3-4.9-2.3c-1.3,0-2.1,0.3-2.6,1c-0.4,0.7-0.7,1.6-0.7,3.1v2.6
		L161.4,72.7L161.4,72.7z M161.4,78.8V86c0,1.4,0,2.4,0.1,3.1s0.4,1.1,0.9,1.5s1.3,0.7,2.4,0.9c1.2,0.1,1.7,0.5,1.7,1.2
		c0,0.8-0.4,1.2-1.3,1.2c-0.9,0-2.3,0-4.4-0.1c-2.1-0.1-3.6-0.1-4.6-0.1c-0.7,0-2.1,0-4,0.1c-2,0.1-3.4,0.1-4.3,0.1
		c-0.4,0-0.8-0.1-1.1-0.2c-0.2-0.1-0.4-0.4-0.4-1c0-0.4,0.1-0.7,0.4-0.9s0.7-0.3,1.1-0.3c1.1-0.1,2-0.4,2.4-0.7
		c0.5-0.3,0.9-0.8,1-1.3s0.2-1.3,0.2-2.3V86V65.4v-1.2c0-1.1-0.1-2-0.2-2.5c-0.1-0.5-0.4-1-0.9-1.3c-0.4-0.3-1.2-0.5-2.2-0.7
		c-0.8-0.1-1.2-0.2-1.5-0.3s-0.4-0.3-0.4-0.8c0-0.8,0.4-1.2,1.3-1.2c1.2,0,2.5,0,3.9,0.1s2.6,0.1,3.5,0.1c1.9,0,4,0,6.4-0.1
		s4.4-0.1,6-0.1c2.1,0,3.7,0.1,5,0.4c1.3,0.2,2.5,0.8,3.7,1.5c2.9,1.9,4.5,4.6,4.5,8.2c0,1.9-0.5,3.6-1.4,5.4
		c-0.9,1.7-2.2,3.1-3.9,4.2s-3.8,1.6-6.2,1.6c-1,0-1.9-0.1-2.6-0.2c-0.8-0.1-1.6-0.4-2.8-0.8c-1.1-0.3-1.9-0.4-2.3-0.4
		c-0.4,0-0.7,0.2-0.8,0.8C161.4,78.2,161.4,78.5,161.4,78.8"/>
	<path class="st0" d="M189.4,78.8c0,2.1,0.3,4.2,0.9,6.2c0.7,2.1,1.5,3.7,2.6,5.1c1.2,1.3,2.5,2,4,2c1.9,0,3.4-1,4.6-2.9
		c1.2-2,1.7-4.6,1.7-8c0-2.3-0.3-4.4-1-6.4s-1.5-3.6-2.7-4.7c-1.1-1.2-2.4-1.7-3.7-1.7c-1.2,0-2.3,0.4-3.3,1.3s-1.7,2.1-2.3,3.7
		C189.6,74.9,189.4,76.8,189.4,78.8 M180,80.3c0-2.6,0.8-5,2.3-7.2c1.5-2.1,3.6-3.7,6.1-4.9c2.5-1.2,5.1-1.7,7.9-1.7
		c2.3,0,4.5,0.3,6.4,1.1c2,0.7,3.7,1.6,5.1,2.9c1.4,1.2,2.5,2.6,3.3,4.3s1.2,3.3,1.2,5c0,2.8-0.8,5.2-2.3,7.4
		c-1.5,2.2-3.6,3.8-6.1,5s-5.1,1.7-8,1.7c-2.7,0-5.2-0.5-7.8-1.5c-2.4-1.1-4.5-2.6-6-4.7C180.7,85.7,180,83.2,180,80.3"/>
	<path class="st0" d="M213.8,86.9c0.1-0.8,0.2-1.3,0.3-1.6c0.1-0.3,0.4-0.4,1.1-0.4c0.5,0,1,0.3,1.4,1.1c0.4,0.8,0.9,1.6,1.5,2.6
		c0.5,1.1,1.4,1.9,2.4,2.5s2.4,1,4,1c0.8,0,1.6-0.1,2.5-0.4c0.9-0.2,1.6-0.7,2.3-1.2s1-1.3,1-2.1c0-1.1-0.4-1.9-1.2-2.5
		s-2-1.2-3.6-1.7c-2.3-0.8-3.8-1.3-4.8-1.6c-0.9-0.3-2-0.8-3.1-1.4c-1.1-0.7-2.1-1.4-2.7-2.4s-1.1-2.1-1.1-3.4
		c0-1.5,0.5-3.1,1.5-4.4c1.1-1.3,2.5-2.4,4.3-3.2c1.7-0.8,3.7-1.2,5.8-1.2c2.3,0,5,0.3,8.1,1.1c0.8,0.2,1.3,0.4,1.4,0.7
		s0.2,0.8,0.2,1.6v1.3c-0.1,0.5-0.2,1.1-0.3,1.6c-0.1,0.7-0.4,0.9-0.9,0.9s-1.2-0.4-2-1.3c-1-1.3-1.6-2.2-2-2.5
		c-0.3-0.3-0.9-0.8-1.4-1c-0.7-0.3-1.5-0.4-2.6-0.4c-1.3,0-2.5,0.2-3.4,0.8c-0.9,0.5-1.3,1.3-1.3,2.3c0,1.1,0.4,1.9,1.3,2.2
		c0.9,0.4,2.8,1.1,5.8,2c2.9,1,5.1,2,6.6,3.2c1.4,1.2,2.1,2.8,2.1,5.1c0,1.7-0.5,3.4-1.5,4.9s-2.5,2.7-4.6,3.7s-4.5,1.4-7.4,1.4
		c-3.3,0-6-0.5-8.1-1.7c-0.7-0.3-1.1-0.7-1.3-1.1c-0.2-0.3-0.3-1-0.3-2V86.9z"/>
	<path class="st0" d="M249.7,72.2v9.6c0,1.6,0.1,2.9,0.2,4.2c0.1,1.1,0.4,2,0.8,2.7c0.4,0.7,1,1,1.9,1c0.5,0,1.1-0.1,1.5-0.3
		c0.4-0.2,1-0.5,1.5-0.9c0.5-0.3,0.9-0.5,1.1-0.5s0.3,0.1,0.4,0.2s0.2,0.3,0.2,0.5c0,0.5-0.4,1.2-1.3,2.1c-0.9,0.9-2,1.6-3.4,2.3
		c-1.4,0.7-2.8,1-4.5,1c-2.2,0-3.9-0.8-5.2-2.2s-2-3.7-2-6.7V73.1c0-1.4-0.1-2.3-0.2-2.6c-0.1-0.3-0.5-0.5-1.3-0.5
		c-0.4,0-0.9,0-1.3,0.1c-0.8-0.1-1.2-0.4-1.2-0.8s0.1-0.5,0.4-0.8c0.3-0.2,0.8-0.4,1.4-0.8c3.7-1.4,6.2-3.5,7.6-6.2
		c0.7-1.3,1.3-1.9,2-1.9s1,0.4,1,1.3v0.9v3.9c0,0.8,0,1.2,0.1,1.3c0.1,0.1,0.4,0.2,1.1,0.3c0.2-0.1,0.4-0.1,0.7-0.1h3.2h0.7
		c0.4,0,0.9,0.1,1,0.2c0.2,0.1,0.2,0.4,0.2,0.9c0,0.8-0.1,1.2-0.3,1.4c-0.2,0.1-0.8,0.2-1.7,0.2h-2.8c-0.7,0-1.2,0-1.4,0.1
		s-0.3,0.2-0.4,0.5C249.7,70.9,249.7,71.4,249.7,72.2"/>
</g>
</svg>
