<?xml version="1.0" encoding="utf-8"?>
<!-- Generator: Adobe Illustrator 27.0.0, SVG Export Plug-In . SVG Version: 6.00 Build 0)  -->
<svg version="1.1"
	 id="svg2" xmlns:dc="http://purl.org/dc/elements/1.1/" xmlns:sodipodi="http://sodipodi.sourceforge.net/DTD/sodipodi-0.dtd" xmlns:cc="http://creativecommons.org/ns#" xmlns:inkscape="http://www.inkscape.org/namespaces/inkscape" xmlns:svg="http://www.w3.org/2000/svg" xmlns:rdf="http://www.w3.org/1999/02/22-rdf-syntax-ns#"
	 xmlns="http://www.w3.org/2000/svg" xmlns:xlink="http://www.w3.org/1999/xlink" x="0px" y="0px" viewBox="0 0 280 160"
	 style="enable-background:new 0 0 280 160;" xml:space="preserve">
<style type="text/css">
	.st0{fill-rule:evenodd;clip-rule:evenodd;fill:#334155;}
	.st1{fill:#FFFFFF;}
</style>
<g id="g4285" transform="matrix(6.8207449,0,0,6.8207449,2382.4852,546.30188)">
	<path id="rect4270" inkscape:connector-curvature="0" class="st0" d="M-347.2-73.1h36.8v9.4h-36.8V-73.1z"/>
	<path id="Logo-Copy" inkscape:connector-curvature="0" class="st1" d="M-339.2-70h-0.4v3.7h-0.8l-1.9-2.5v1.7h0.4v0.8h-1.8v-0.8
		h0.4V-70h-0.4v-0.8h1.3l1.8,2.3V-70h-0.4v-0.8h1.8V-70L-339.2-70z M-336.4-67.9c0,0.1,0,0.1,0,0.2h-2c-0.1,0.6,0.2,0.8,0.5,0.8
		s0.5-0.2,0.5-0.5h0.8c0,0.6-0.3,1.2-1.4,1.2s-1.6-0.8-1.6-1.7c0-0.8,0.5-1.6,1.6-1.6C-336.9-69.6-336.4-68.8-336.4-67.9
		L-336.4-67.9z M-331.6-68.7h-0.3l-0.7,2.4h-1l-0.4-1.3l-0.4,1.3h-1l-0.8-2.4h-0.3v-0.8h1.7v0.8h-0.4l0.4,1.3l0.6-2.1h0.5l0.7,2.1
		l0.4-1.3h-0.4v-0.8h1.4C-331.6-69.5-331.6-68.7-331.6-68.7z M-330.4-68.7c0,0.1,0.1,0.2,0.4,0.3l0.5,0.1c0.4,0.1,0.9,0.4,0.9,1
		c0,0.7-0.5,1-1.1,1c-0.5,0-0.9-0.2-1-0.4v0.3h-0.8v-1.1h0.8c0,0.4,0.4,0.6,0.6,0.6s0.4-0.1,0.4-0.2s-0.1-0.2-0.5-0.4l-0.4-0.1
		c-0.4-0.1-0.9-0.4-0.9-1c0-0.7,0.6-1,1.1-1s0.8,0.1,0.9,0.3v-0.3h0.8v1h-0.9c0-0.3-0.3-0.4-0.6-0.4
		C-330.3-68.9-330.4-68.8-330.4-68.7L-330.4-68.7L-330.4-68.7z M-323.7-68.7h-0.3l-0.7,2.4h-1l-0.4-1.3l-0.4,1.3h-1l-0.8-2.4h-0.3
		v-0.8h1.7v0.8h-0.4l0.4,1.3l0.6-2.1h0.5l0.7,2.1l0.4-1.3h-0.4v-0.8h1.4L-323.7-68.7L-323.7-68.7z M-320.7-67.9c0,0.1,0,0.1,0,0.2
		h-1.9c-0.1,0.6,0.2,0.8,0.5,0.8s0.5-0.2,0.5-0.5h0.8c0,0.6-0.3,1.2-1.4,1.2s-1.6-0.8-1.6-1.7c0-0.8,0.5-1.6,1.6-1.6
		C-321.1-69.6-320.7-68.9-320.7-67.9L-320.7-67.9z M-317.5-67.9c0,0.1,0,0.1,0,0.2h-1.9c-0.1,0.6,0.2,0.8,0.5,0.8s0.5-0.2,0.5-0.5
		h0.8c0,0.5-0.3,1.2-1.4,1.2s-1.6-0.8-1.6-1.7c0-0.8,0.5-1.6,1.6-1.6C-318-69.6-317.5-68.9-317.5-67.9L-317.5-67.9z M-314-66.3h-1
		l-1-1.3l-0.3,0.3v0.3h0.3v0.8h-1.5V-67h0.3v-3h-0.4v-0.8h1.3v2.6l0.7-0.5h-0.4v-0.8h1.8v0.8h-0.3l-0.7,0.5l0.8,1.1h0.4
		C-314-67.1-314-66.3-314-66.3z M-319.4-68.2h1.1c0-0.5-0.3-0.6-0.5-0.6C-319.2-68.9-319.4-68.7-319.4-68.2L-319.4-68.2z
		 M-322.6-68.2h1.1c0-0.5-0.3-0.6-0.5-0.6C-322.4-68.9-322.6-68.7-322.6-68.2L-322.6-68.2L-322.6-68.2z M-338.3-68.2h1.1
		c0-0.5-0.3-0.6-0.5-0.6C-338.1-68.9-338.3-68.7-338.3-68.2z"/>
</g>
</svg>
