<?xml version="1.0" encoding="utf-8"?>
<!-- Generator: Adobe Illustrator 27.0.0, SVG Export Plug-In . SVG Version: 6.00 Build 0)  -->
<svg version="1.1" id="Livello_1" xmlns="http://www.w3.org/2000/svg" xmlns:xlink="http://www.w3.org/1999/xlink" x="0px" y="0px"
	 viewBox="0 0 280 160" style="enable-background:new 0 0 280 160;" xml:space="preserve">
<style type="text/css">
	.st0{fill:#FFFFFF;}
	.st1{fill:#334155;}
</style>
<g>
	<g>
		<path class="st0" d="M18.5,50.4c-2.2,0-4,1.8-4,4v51.3c0,2.2,1.8,4,4,4h94.9V50.4H18.5"/>
		<path class="st1" d="M18.5,109.6H114v-1.2H18.5c-1.5,0-2.7-1.2-2.7-2.7V54.4c0-1.5,1.2-2.7,2.7-2.7H114v-1.3H18.5
			c-2.2,0-4,1.8-4,4v51.3C14.5,107.8,16.3,109.6,18.5,109.6"/>
	</g>
	<g>
		<path class="st1" d="M261.5,50.4H113v59.2h148.6c2.2,0,4-1.8,4-3.9V54.4C265.5,52.2,263.7,50.4,261.5,50.4"/>
		<path class="st1" d="M81.1,103.1c0.6,0.3,1.9,0.7,3.6,0.8c2.8,0,4.3-1,5.5-3.5l15.1-33.6c-0.6-0.3-2-0.7-3.1-0.7
			c-1.9,0-4.5,0.4-6.2,4.3l-5,11.4l-9.6-15.6c-0.6-0.2-2.1-0.4-3.2-0.4c-3.4,0-5.3,1.3-7.2,3.4l-9.3,10.2l7.5,11.8
			c1.4,2.2,3.2,3.2,6.2,3.2c1.9,0,3.6-0.4,4.3-0.8l-9-13.6l6.4-6.8l10.5,16.5L81.1,103.1 M61.3,90.3c0,2.5-1,3.9-5.8,3.9l-1.7-0.1
			V61.2c0-2.5,0.9-5.1,5.7-5.1l1.8,0.2V90.3 M51.3,85.4c0,4.6-3,8-9.2,8.7c-4.5,0.5-10.9-0.1-13.9-0.4L28,92c0-4,2.2-5,4.2-5
			c2.1,0,5.5,0.4,8,0.4c2.7,0,3.6-0.9,3.6-1.8c0-1.2-1.1-1.6-3.2-2.1l-5.8-1.1c-4.9-0.9-7.4-4.3-7.4-7.8c0-4.3,3.1-8,9.1-8.6
			c4.5-0.5,10.1,0,13.1,0.4l0.2,1.6c0,4-2.1,4.9-4.2,4.9c-1.6,0-4-0.3-6.8-0.3s-4,0.8-4,1.8s1.1,1.4,2.9,1.7l5.6,1
			C48.9,78.1,51.3,81.4,51.3,85.4"/>
		<path class="st0" d="M229.9,92.5c-0.3-2.3,0.4-3.5,1.7-3.5s4.5,1.5,9,1.5c4.8,0,6.7-1.8,6.7-4.1c0-1.6-0.7-2.9-5.1-4.1l-4.9-1.4
			c-5.3-1.4-7.4-4.1-7.4-7.4c0-4,3.2-7.8,10.6-7.8c3.3,0,7.5,0.8,10,1.8c0.2,2.2-0.4,3.5-1.6,3.5c-1.2,0-4.2-1.4-8.3-1.4
			c-4.5,0-6.2,1.6-6.2,3.7c0,1.4,0.6,2.7,4.7,3.8l5,1.4c5.5,1.6,7.8,4.2,7.8,7.8c0,4.3-3.4,8.1-11.3,8.1
			C236.9,94.3,232.5,93.5,229.9,92.5"/>
		<path class="st0" d="M226.2,66.8L218.8,92c-0.4,1.6-1.6,2-3.2,2c-0.9,0-1.8-0.2-2.7-0.4l-7.1-22.5L199.2,92c-0.5,1.6-1.7,2-3.2,2
			c-0.9,0-1.9-0.2-2.7-0.4l-7.8-26.8c0.6-0.4,1.8-0.7,2.8-0.7c1.2,0,1.9,0.4,2.2,1.6l5.6,21.2l0,0l7-22.1c0.8-0.4,1.8-0.7,2.8-0.7
			c1.7,0,2.7,0.4,3.2,2.1l6.4,20.7h0.1l5.5-21.2c0.4-1.2,1-1.6,2.2-1.6C224.4,66.1,225.6,66.4,226.2,66.8"/>
		<path class="st0" d="M182.6,81.8h-21.4c0.7,5.3,4.4,8.4,10,8.4c2.4,0,4.2-0.5,5.9-1.1c1.2-0.4,1.8-0.6,2.2-0.6
			c1.2,0,2,1.1,1.7,3.6c-2.4,1.1-6.2,2.2-10.1,2.2c-8.6,0-14.5-5.8-14.5-14.4c0-8.2,6.2-14.2,13.7-14.2c8.5,0,12.6,6.7,12.6,13.3
			C182.8,79.9,182.8,80.8,182.6,81.8 M161.2,78.1h17.2c-0.2-4.7-3.2-8.5-8.2-8.5C165.9,69.6,161.9,72.6,161.2,78.1"/>
		<path class="st0" d="M151.3,77.5v14.8c0,1.1-0.6,1.7-2.4,1.7c-0.8,0-1.6-0.1-2.1-0.2V78c0-5.6-2.8-8.4-6.9-8.4
			c-3.3,0-6.8,2.3-8.2,4.9v17.6c0,1.1-0.6,1.7-2.4,1.7c-0.8,0-1.7-0.1-2.1-0.2V66.4c0.4-0.1,1.3-0.3,2.1-0.3c1.8,0,2.4,0.7,2.4,1.7
			v2.4c2-2.4,5.1-4.4,9.2-4.4C146.6,65.7,151.3,69.3,151.3,77.5"/>
	</g>
</g>
</svg>
