<?xml version="1.0" encoding="utf-8"?>
<!-- Generator: Adobe Illustrator 27.0.0, SVG Export Plug-In . SVG Version: 6.00 Build 0)  -->
<svg version="1.1"
	 id="svg19978" xmlns:rdf="http://www.w3.org/1999/02/22-rdf-syntax-ns#" xmlns:inkscape="http://www.inkscape.org/namespaces/inkscape" xmlns:svg="http://www.w3.org/2000/svg" xmlns:sodipodi="http://sodipodi.sourceforge.net/DTD/sodipodi-0.dtd" xmlns:dc="http://purl.org/dc/elements/1.1/" xmlns:cc="http://creativecommons.org/ns#"
	 xmlns="http://www.w3.org/2000/svg" xmlns:xlink="http://www.w3.org/1999/xlink" x="0px" y="0px" viewBox="0 0 280 160"
	 style="enable-background:new 0 0 280 160;" xml:space="preserve">
<style type="text/css">
	.st0{fill:#334155;}
</style>
<sodipodi:namedview  bordercolor="#666666" borderopacity="1.0" fit-margin-bottom="0" fit-margin-left="0" fit-margin-right="0" fit-margin-top="0" id="base" inkscape:current-layer="svg19978" inkscape:cx="284.31218" inkscape:cy="67.13247" inkscape:document-units="mm" inkscape:pageopacity="0.0" inkscape:pageshadow="2" inkscape:window-height="1001" inkscape:window-maximized="1" inkscape:window-width="1920" inkscape:window-x="-9" inkscape:window-y="-9" inkscape:zoom="1.4189276" pagecolor="#ffffff" showgrid="false">
	</sodipodi:namedview>
<g>
	<path id="path874" inkscape:connector-curvature="0" class="st0" d="M84,111.7V47.8H66v10h8v43.9h-8v10H84z M38,57.7v-10H20v63.9
		h18v-10h-8V57.7H38z"/>
	<path id="path876" inkscape:connector-curvature="0" class="st0" d="M62,111.7v-12l-20-20v31.9L62,111.7z M42,59.7l20,20V47.8H42
		V59.7z"/>
	<path id="path878" inkscape:connector-curvature="0" class="st0" d="M125.3,111.7v-30h-8v19.1l-9.2-19.1H97.5v30h8V92.6l9.2,19.1
		H125.3z M141.9,97.6c-9.4,0.7-14.7,2.8-14.7,8c0,4,3.6,6.7,7.9,6.7c3.1,0,5.9-1,7.6-3.4v2.9h7.7c-0.2-1.8-0.4-4.5-0.4-6.7v-2.2
		v-4.3c0.1-7.4-4.4-9.8-10.8-9.8c-7.3,0-11.1,4.1-11.5,8.2h7.1c0.3-1.9,1.7-2.9,3.8-2.9c1.8,0,3.3,0.5,3.3,2.9L141.9,97.6z
		 M142.1,102.4c0,3.4-1.9,4.3-4,4.3c-1.9,0-2.7-1.1-2.7-2c0-1.9,2.3-2.6,6.7-2.9V102.4z M154.5,89.4H150v5.2h4.5V105
		c0,6.1,2.1,6.7,8.2,6.7h5.7v-5.6h-4.1c-1.1,0-1.6-0.2-1.6-1.5v-9.9h5.7v-5.2h-5.7v-6.1h-8.3v6H154.5z M170.1,111.7h8.3V89.4h-8.3
		V111.7z M170.1,87.6h8.3v-5.9h-8.3V87.6z M191.9,94.9c2.1,0,3.7,1.4,3.7,5.6c0,4.1-1.6,5.5-3.7,5.5c-2.1,0-3.7-1.4-3.7-5.5
		S189.8,94.9,191.9,94.9 M191.9,112.2c6.6,0,12.2-3.9,12.2-11.7s-5.7-11.8-12.2-11.8c-6.7,0-12.2,4-12.2,11.8
		C179.7,108.4,185.3,112.2,191.9,112.2 M213.7,89.4h-8.3v22.3h8.3V100c0-3.3,1.3-4.5,3.4-4.5c2.4,0,2.7,2,2.7,3.8v12.3h8.3V97.8
		c0-5.4-1.9-8.8-7.4-8.8c-3.1,0-5.4,1.1-6.9,3.4v-3H213.7z M244.7,97.6c-9.4,0.7-14.7,2.8-14.7,8c0,4,3.6,6.7,7.9,6.7
		c3.1,0,5.9-1,7.6-3.4v2.9h7.7c-0.2-1.8-0.4-4.5-0.4-6.7v-2.2v-4.3c0.1-7.4-4.4-9.8-10.8-9.8c-7.3,0-11.1,4.1-11.5,8.2h7.1
		c0.3-1.9,1.7-2.9,3.8-2.9c1.8,0,3.3,0.5,3.3,2.9L244.7,97.6z M245,102.4c0,3.4-1.9,4.3-4,4.3c-1.9,0-2.7-1.1-2.7-2
		c0-1.9,2.3-2.6,6.7-2.9V102.4z M264,81.7h-8.3v30h8.3V81.7z"/>
	<path id="path880" inkscape:connector-curvature="0" class="st0" d="M97.6,77.8h8.6V55.2h9v-7.4H88.7v7.4h8.9V77.8z M124.9,47.8
		h-8.3v30h8.3V66.1c0-3.3,1.3-4.5,3.3-4.5c2.4,0,2.7,2,2.7,3.8v12.2h8.3V63.8c0-5.4-1.9-8.8-7.4-8.8c-3.1,0-5.4,1.1-6.9,3.4V47.8z
		 M153.4,78.4c7,0,10.7-4.8,11.7-8.1h-7.8c-0.5,1.2-2.2,2-3.8,2c-2.6,0-4.2-1.4-4.5-3.7h16.1c0.5-7.7-4.3-13.9-12.1-13.9
		c-6.7,0-12,4.6-12,11.7C141,73.3,145.5,78.4,153.4,78.4 M153.5,60.4c1.8,0,4,1,4.2,3.6h-8.6C149.7,61.3,151.8,60.4,153.5,60.4"/>
</g>
</svg>
