<?xml version="1.0" encoding="utf-8"?>
<!-- Generator: Adobe Illustrator 27.0.0, SVG Export Plug-In . SVG Version: 6.00 Build 0)  -->
<svg version="1.1" id="Layer_1" xmlns="http://www.w3.org/2000/svg" xmlns:xlink="http://www.w3.org/1999/xlink" x="0px" y="0px"
	 viewBox="0 0 1000 680" style="enable-background:new 0 0 1000 680;" xml:space="preserve">
<style type="text/css">
	.st0{fill-rule:evenodd;clip-rule:evenodd;fill:#334155;}
	
		.st1{clip-path:url(#SVGID_00000091012057315008774750000013174289123799361950_);fill-rule:evenodd;clip-rule:evenodd;fill:#334155;}
	
		.st2{clip-path:url(#SVGID_00000173854061666166185640000016494985619188100254_);fill-rule:evenodd;clip-rule:evenodd;fill:#334155;}
</style>
<g>
	<path class="st0" d="M65.6,328.4H18.7v-1.2l13-6.2v-76.2c0,0-3.8,0-7.4,0.9c-1.7,0.7-3.6,1.1-6.3,3.7c-2.6,2.4-16.6,16.8-16.6,16.8
		l-1.5-0.7L2,240.7h30.2h0h48.3l2.6,24.8l-1.5,0.7c0,0-13.9-14.4-16.6-16.8c-2.7-2.6-4.7-3.1-6.4-3.7c-3.5-0.9-6.5-0.8-6.5-0.8v75.9
		l13.3,6.1v1.5h0.2V328.4z"/>
	<path class="st0" d="M670.5,328.4h-46.7v-1.2l13-6.2v-76.2h-0.1c0,0-3.8,0-7.4,0.9c-1.6,0.7-3.7,1.1-6.2,3.7
		c-2.7,2.4-16.7,16.8-16.7,16.8l-1.5-0.7l2.1-24.8h30.3h48.2l2.7,24.8l-1.6,0.7c0,0-13.8-14.4-16.4-16.8c-2.7-2.6-4.7-3.1-6.2-3.7
		c-3.5-0.9-6.5-0.8-6.5-0.8v75.9l13.2,6.1L670.5,328.4L670.5,328.4z"/>
	<polygon class="st0" points="177.5,248.2 188,242 188,240.8 146.4,240.8 146.4,241.9 157.3,247.9 157.3,280.5 117.2,280.9 
		117.2,248.2 128,242 128,240.8 86.3,240.8 86.3,241.9 97.1,248.2 97.1,321.1 86.3,327.2 86.3,328.4 128,328.4 128,327.1 117.2,321 
		117.2,285.9 157.3,286 157.3,321.1 146.4,327.2 146.4,328.4 188,328.4 188,327.1 177.5,321 	"/>
	<polygon class="st0" points="702,321.1 691.2,327.2 691.2,328.3 732.8,328.3 732.7,327.1 722.1,321 722.1,248.2 732.7,242 
		732.8,240.8 691.2,240.8 691.2,241.9 702,247.9 	"/>
	<g>
		<g>
			<g>
				<defs>
					<rect id="SVGID_1_" x="283.1" y="221.1" width="329.5" height="117.9"/>
				</defs>
				<clipPath id="SVGID_00000129901682802909252540000000884115386686440103_">
					<use xlink:href="#SVGID_1_"  style="overflow:visible;"/>
				</clipPath>
				
					<path style="clip-path:url(#SVGID_00000129901682802909252540000000884115386686440103_);fill-rule:evenodd;clip-rule:evenodd;fill:#334155;" d="
					M440,251l0.8,2l0.3-0.1c0,0,0.1-1.2,0.3-1.2c0.3-0.1,1.6-0.4,1.6-0.3c0.1,0.1,0.9,4.4,1.1,4.8c0.3,0.4,0.1,0.8-0.1,0.9
					c-0.1,0-0.4,0.3-0.4,0.3v0.3c0,0,1.1,0,1.5-0.1c0.4-0.1,1.5-0.3,1.5-0.3l-0.1-0.3c0,0-0.7,0-0.8-0.4c-0.1-0.7-0.8-4.8-0.8-5.1
					c0-0.1,0.3-0.4,0.7-0.4c0.3-0.1,1.1-0.3,1.5-0.1c0.1,0.3,0.4,0.9,0.4,0.9l0.3-0.1l-0.3-1.8c0,0-2.6,0.3-3.5,0.4
					C442.7,250.4,440,251,440,251L440,251z M437.6,252.4c0,0,0.7,0,0.8,0.1c0,0.3,2,5,2.1,5.1c0,0.3-0.3,0.8-0.3,0.8l0.1,0.4
					l1.8-0.9v-0.3c0,0-0.7,0.1-0.8-0.1c-0.1-0.3-2.1-4.8-2.3-5.3c-0.1-0.3,0.3-0.7,0.3-0.7l-0.1-0.4l-1.8,0.8L437.6,252.4
					L437.6,252.4z M433.2,253.5c-0.8,0.7-2.4,3.1-0.8,5.1c1.8,2.1,3.5,2.7,4.8,2c1.5-0.8,2-3.5,0.3-5.8
					C436.1,252.4,434,252.9,433.2,253.5L433.2,253.5z M433.8,254.5c-0.7,0.7-1.5,2.1-0.1,3.8c1.1,1.6,2.6,1.8,3.2,1.2
					c0.4-0.4,0.8-1.6-0.1-3.4C435.6,254.7,434.5,254.1,433.8,254.5L433.8,254.5z M429,256.9v0.4c0,0-0.8,0.1-1.6,0.4
					c-0.8,0.3-1.6,1.5-1.5,2.1c0,0.7,1.1,1.2,2.6,1.5c1.5,0,2.8-0.1,3.2,0.3c0.4,0.3,0.1,1.5-0.9,1.6c-0.9,0.1-2-0.7-2-0.7l-0.1,0.3
					l2.1,2.3v-0.8c0,0,0.8-0.4,1.6-0.4c0.8-0.1,1-2,0.7-2.7c-0.4-0.7-1.1-0.9-1.8-0.9c-0.4,0-3.2,0.3-4.4-0.3
					c-0.9-0.7,1.5-1.6,2-1.6c0.5,0,2,0.7,2,0.7l0.1-0.3l-1.7-2.1L429,256.9L429,256.9z M423.5,262.9l-1.5,2.6l0.3,0.1
					c0,0,0.4-0.4,0.8-0.1c0.3,0.1,3.9,2.6,4.4,2.7c0.3,0,0.3,0.3,0.3,0.3l-0.3,0.4l0.4,0.1l1.5-2.7l-0.3-0.3c0,0-0.4,0.4-0.7,0.7
					c-0.3,0.1-0.7,0.1-1,0c-0.1-0.1-3.2-2.3-3.4-2.4c-0.3-0.1-0.4-0.7-0.3-0.8c0.1-0.1,0.3-0.3,0.3-0.3L423.5,262.9L423.5,262.9z
					 M426.4,264.2l1.6,0.1l-0.8-1.5h-1.2L426.4,264.2L426.4,264.2z M470.1,306.6l-3.8,4.4l1.2,1.2h0.3c0,0-0.1-1.1-0.1-1.5
					c0.1-0.3,1.7-1.6,1.7-1.6l1.6,1.6c0,0-0.3,0.7-0.7,0.9c-0.3,0.4-1.2,0-1.2,0l-0.1,0.1l2,1.6V313c0,0-0.1-0.4,0-0.8
					c0.1-0.3,0.9-0.9,0.9-0.9l2.1,1.5l-0.3,0.4c-0.3,0.4-1.6,1.5-2.1,1.6c-0.3,0.3-0.8-0.1-0.8-0.1l-0.3,0.3l1.5,1.2l4.4-4.6
					l-0.3-0.1c0,0-0.7,0.3-1.2-0.1c-0.4-0.3-3.9-3.2-4.4-3.5c-0.3-0.3,0-1.2,0-1.2L470.1,306.6L470.1,306.6z M472.9,302.8l-0.3,0.3
					l0.4,0.4c0,0-1.5,0.7-1.6,1.1c-0.1,0.4-0.8,1.8,0.4,2.4c1.5,0.8,2.7,0.3,3.4,0c0.8-0.3,2.1-0.8,2.4-0.1c0.4,0.7,0,1.2-0.4,1.8
					c-0.4,0.4-1,0.7-1.2,0.7c-0.3,0-1.1-0.1-1.1-0.1l-0.3,0.1l2.4,1.7l0.3-0.3l-0.4-0.8c0,0,2.3-1.2,2.4-2c0-0.4-0.1-1.8-0.9-2.3
					c-0.7-0.4-1.8-0.7-2.4-0.3c-0.7,0.4-1.7,0.9-2.3,1.1c-0.4,0-2-0.4-1.1-1.2c0.8-0.7,1.5-1.1,2.1-0.8c0.7,0.3,1.1,0.4,1.1,0.4
					l0.1-0.4L472.9,302.8L472.9,302.8z M475.2,296.6l-0.7,1.5l0.4,0.1c0,0,0.1-0.8,0.7-0.4c0.3,0.1,4.1,1.2,4.1,1.2l-6.1,2.1
					l-0.3,0.1c0,0,5.9,2.8,6.2,3.1c0.1,0.3,0.3,1.2,0.3,1.2l0.3,0.3l1.1-2.7H481c0,0-0.1,0.4-0.7,0.4h-0.8l-4.4-2.1l7.1-2.3l0.8-1.5
					l-0.4-0.1c0,0-0.1,0.8-0.4,0.8c-0.4,0-5.7-1.2-5.9-1.2c-0.4-0.1-0.7-0.8-0.7-0.8l-0.3-0.1L475.2,296.6L475.2,296.6z
					 M476.4,291.8c0,0.4-0.8,3.2-0.8,3.2l2.1,0.8v-0.4c0,0-1.1-0.8-1.2-0.9c0-0.3,0.4-1.7,0.4-1.7l2.8,0.4c0,0-0.1,0.7-0.1,1.1
					c-0.1,0.3-0.7,0.3-0.7,0.3v0.4l2,0.3l-0.1-0.3c0,0-0.4-0.3-0.4-0.4c0-0.3,0.3-1.2,0.3-1.2l2.4,0.3c0,0-0.1,0.7-0.1,1.1
					c0,0.4-0.1,1.1-0.4,1.1s-0.7,0.1-0.7,0.1v0.4l1.5,0.3l0.7-5.1h-0.4c0,0-0.3,0.7-0.7,0.7c-0.4,0-5.1-0.7-5.7-0.8
					c-0.3-0.1-0.3-1.1-0.3-1.1h-0.3C476.5,290.3,476.4,291.4,476.4,291.8L476.4,291.8z M480,287.8c0,0,0.1,1.1,0.1,1.5
					s0.3,0.4,0.8,0.4c0.7,0,0.9,0.1,1.5,0c0.4-0.1,0.7-0.7,0.7-0.9c0-0.3-0.1-0.9-0.1-0.9h-2.9l0,0H480z M476.4,288.4h0.4
					c0,0,0-0.7,0.3-0.7h1.8c0,0,0.1,0.9,0.1,1.5c0,0.4,0.4,1.6,0.9,1.6s1.5,0.1,2.3,0c0.8,0,1.6-1.2,1.6-2c0-0.4-0.1-3.2-0.1-3.2
					h-0.4c0,0-0.1,0.8-0.7,0.8c-0.4,0.1-5,0-5.4,0c-0.3,0-0.3-0.7-0.3-0.7h-0.3L476.4,288.4L476.4,288.4z M482.4,276.6h-0.3
					c0,0,0,0.7-0.3,1s-1.5,2-1.6,2.3s-0.3,0.7-0.7,0.8c-0.3,0.1-2.4,0.3-2.7,0.3c-0.4,0-0.8-0.7-0.8-0.7h-0.1c0,0,0.1,1.1,0.1,1.5
					c0,0.4,0.1,1.5,0.1,1.5h0.3c0,0,0.1-0.4,0.1-0.8c0-0.1,0-0.3,0.3-0.3s2.7-0.1,2.7-0.1s2.6,2,2.8,2.1c0.3,0.1,0.3,0.9,0.3,0.9
					h0.3c0,0,0.1-0.9,0.1-1.5c0.1-0.4,0-1.2,0-1.2h-0.4v0.4c0,0.1-0.1,0.3-0.7,0c-0.3-0.1-2.1-1.5-2.1-1.5s1.5-2.4,1.7-2.7
					c0.1-0.3,0.8,0.4,0.8,0.4h0.3L482.4,276.6L482.4,276.6L482.4,276.6z M480.3,271.5c0,0,0.3,0.9-0.1,1.1c-0.3,0.1-3.9,1.5-4.8,1.7
					c-0.8,0.1-0.9-0.8-0.9-0.8l-0.4,0.3c0,0,0.7,1.7,0.8,2.3c0,0.4,0.4,2.3,0.4,2.3l2.3-0.4l0.1-0.4c0,0-2,0-2-0.3
					c-0.1-0.1-0.3-0.7-0.3-1.1c0-0.3,0-0.4,0.3-0.7c0.1,0,4.6-1.6,5-1.7c0.4,0,0.7,0.1,0.7,0.1h0.4l-0.8-2.4L480.3,271.5
					L480.3,271.5z M474.2,268.3l0.8,1.8l2.7-2.4L474.2,268.3L474.2,268.3z M470.6,268.1l1.2,1.6h0.3c0,0-0.1-0.7-0.1-1
					c-0.1-0.1-0.1-0.3,0.3-0.4c0.4,0,0.7,0,0.8,0s0.3,0.3,0.3,0.3s0.7,1.2,0.7,1.6c0.1,0.1,0,0.7,0,0.7s-0.3,0.4-0.7,0.4
					c-0.1,0.1-0.4-0.7-0.4-0.7l-0.3,0.1l0.8,2.4l0.4-0.3c0,0-0.1-0.4,0-0.7c0.1-0.3,5.1-5.3,5.1-5.3v-0.3c0,0-6.6,1.1-7.1,1.2
					c-0.3,0-0.9-0.3-0.9-0.3L470.6,268.1L470.6,268.1z M468.6,255.2l-0.3,0.3c0,0,0.3,0.7,0.4,0.8c0.1,0.1,0,0.7-0.1,0.8
					c-0.1,0.3-2.3,3.6-2.4,3.9c-0.1,0.3-0.4,0.3-0.7,0.1c-0.3-0.1-0.4-0.1-0.4-0.1l-0.1,0.3l1.5,1.6l0.3-0.3c0,0,0-0.3,0.1-0.8
					c0.1-0.4,2.3-4.1,2.4-4.6c0.1-0.1,0.4-0.1,0.4-0.1l-2.3,7.1l6.6-1.7c0,0-3.2,2.7-3.5,2.8c-0.4,0.3-0.7,0.3-0.8,0.1
					c-0.1-0.1-0.3-0.4-0.3-0.4l-0.4,0.3l1.2,2l0.4-0.4c0,0-0.1-0.3,0.1-0.7c0.3-0.1,3.9-3.6,4.1-3.6c0.1-0.1,0.7,0.4,0.7,0.4
					l0.3-0.1l-0.9-1.8l-6.2,1.5l1.8-5.6L468.6,255.2L468.6,255.2z M464.8,253l-0.1,0.3c0,0,0.3,0.3,0.4,0.4c0.1,0,0,0.4-0.1,0.7
					c0,0.3-2.1,4.1-2.1,4.7c-0.1,0.4-0.3,0.3-0.7,0.3c-0.1,0-0.7-0.3-0.7-0.3l-0.1,0.4c0,0,1,0.4,1.2,0.7c0.3,0.3,1.1,0.7,1.1,0.7
					l0.1-0.4c0,0-0.1-0.4-0.3-0.7c-0.1,0,0.1-0.3,0.1-0.7c0-0.1,2-3.9,2.1-4.1c0.1-0.3,0.4-0.4,0.8-0.3c0.1,0,0.4,0,0.4,0l0.1-0.3
					L464.8,253L464.8,253z M459.4,251.2l-2.3-1v0.7c0,0,0.8,0.3,0.7,0.4c-0.1,0.3-0.7,2.6-1.1,4.4c-0.4,1.6,0.4,2.4,1.5,2.8
					c0.8,0.4,2.3,0.1,2.6-0.3c0.3-0.7,2.1-4.1,2.1-4.7c0.1-0.3,0.9,0,0.9,0l0.3-0.4c0,0-0.7-0.1-1.1-0.7c-0.3-0.3-1.5-0.7-1.5-0.7
					l-0.1,0.3c0,0,0.4,0.3,0.7,0.4c0.1,0,0.1,0.3,0.1,0.7c0,0.3-1.5,3.2-1.6,3.4c0,0.1-0.4,0.7-1.1,0.8c-0.7,0.3-2-0.4-2-1.1
					c0-0.7,1.2-3.9,1.2-4.6c0.1-0.4,0.4-0.3,0.4-0.3L459.4,251.2L459.4,251.2z M419.6,271.1c-0.3,0.1-0.9,1.5-0.9,1.5h0.1
					c0,0,0.3-0.4,0.8-0.3c0.4,0.1,4.7,1.6,5,1.8c0.3,0.1,0.3,0.8,0.3,0.8l0.1,0.1l0.9-2.4l-0.4-0.3c0,0-0.1,0.8-0.4,0.8
					c-0.4,0-3.8-1.5-3.8-1.5s3.7-0.7,4.4-0.8c0.8-0.1,1.6-0.1,1.6-0.1l0.4-0.9c0,0-5.1-2.1-5.4-2.3c-0.1,0-0.1-0.3,0-0.8l0.1-0.3
					h-0.4c0,0-0.8,0.9-0.9,1.2c-0.1,0.4-0.7,1.6-0.7,1.6h0.3c0,0,0.9-0.8,1.6-0.7c0.4,0.1,3.9,1.5,3.9,1.5s-2.3,0.1-2.8,0.3
					C422.4,270.5,419.6,271.1,419.6,271.1L419.6,271.1z M417.7,275.5c-0.3,1.1-0.7,2.7,1.8,3.5c2.4,0.7,4.8,0.7,5.4-1.6
					c0.8-2.3-2-3.2-3.1-3.4C420.6,274,418.1,274.2,417.7,275.5L417.7,275.5z M418.6,275.8c-0.1,0.7-0.7,2,0.9,2.4
					c1.6,0.4,3.4,0.1,3.7,0.1c0.3,0,0.7-0.8,0.7-1.5c0.1-0.8,0-0.8-1.2-1.1C421.6,275.3,418.8,274.8,418.6,275.8L418.6,275.8z
					 M449.9,250.6c0,0.7-0.3,3.4-0.3,4.6c0.1,1.1,1.5,2.1,2.1,2.1c0.7,0,1.5-0.1,1.5-0.1l0.1,0.1c0.1,0.3,1.2,1.2,2,1.2
					s1.6-0.3,1.6-0.3s-0.8-0.1-1.5-0.4c-0.7-0.3-1.5-1.1-1.5-1.1s0.4-0.8,0.8-1.5c0.1-0.7,0.1-1.2,0.3-3.2c0.1-2.1-1.8-2.8-2.6-2.8
					C451.2,249.1,449.9,249.7,449.9,250.6L449.9,250.6z M450.8,251.5c-0.1,0.8-0.3,1.7-0.3,3.6c0.1,2.1,2.1,1.1,2.1,1.1
					s-0.8-0.8,0-1.2c0.4-0.1,0.7,0.4,0.7,0.4s0.4-1.5,0.4-2.7c0-1.5-0.4-2.4-1.2-2.6C451.6,250.2,450.8,250.6,450.8,251.5
					L450.8,251.5z M417,279.5c0,0-0.1,1.2-0.1,1.7v1.2h0.3c0,0,0.1-0.8,0.3-0.8h1.6l0.1,3.6h-1.8c-0.1,0-0.4-1.1-0.4-1.1h-0.4v3.2
					h0.4c0,0,0.3-0.9,0.8-0.9c0.4,0.1,4.1,0,4.6,0c0.3,0,0.8,0.8,0.8,0.8l0.3,0.1c0,0,0.1-1.1,0.1-1.6c-0.1-0.4,0-1.5,0-1.5h-0.4
					c0,0-0.1,0.9-0.8,0.9c-0.4,0-2-0.1-2-0.1v-3.5c0,0,1.8,0.3,2.1,0.3s0.7,0.3,0.7,0.7c0,0.1,0,0.4,0,0.4l0.7-0.1c0,0,0-0.9,0-1.5
					c0-0.3,0.1-0.9,0.1-0.9l-0.3-0.1c0,0-0.1,0.4-0.4,0.4c-0.4,0-4.7-0.3-5.1-0.3c-0.4-0.1-0.3-1.1-0.3-1.1H417V279.5z M479.2,284.5
					c0.9,0,0.3-1.1-0.3-0.9C478.2,283.5,478.2,284.7,479.2,284.5L479.2,284.5z M478,279.7c0.9,0,0.9-1.2,0-1.1
					C477.1,278.6,477.2,279.8,478,279.7L478,279.7z M465.7,257.7c-0.4,0.4,0.1,1.5,0.9,0.8C467.3,257.7,466.2,257.1,465.7,257.7
					L465.7,257.7z M447.2,254.7c0,0.4,1.2,0.4,1.2-0.3C448.4,253.6,447.2,253.3,447.2,254.7L447.2,254.7z M463.3,288.6
					c0,0.7,0.3,0.9,0.8,1.2c0.4,0.3-0.1,0.7-0.8,0.3c-0.4-0.3-0.7-0.7-1.2-0.4c-0.8,0.1-0.9,0.4-0.7,0.7c0.4,0.1,0.9,0,1.1,0.4
					c0.1,0.3-1.5,0.3-1.8,0.3c-0.4,0-0.9,0-0.7,0.4c0.4,0.4,0.3,0.3,0.9,0.3h1.2c0,0,1.2,0.1,1.2,0.7v4.7c0,0.7,0.7,1.6,0.7,1.6
					s-0.1-0.9,0.4-1.2c0.7-0.4,0.8-0.1,0.9-0.8c0.1-0.7,1.2-1.1,1.6-2.1c0.3-0.9,0.1-2,0.8-2.8c0.4-0.8,0.9-1.8,0.9-2.3
					c0-0.7-0.3-0.1-0.7,0.3c-0.3,0.7-0.9,1.2-1.2,2c-0.3,0.7-0.4,2.1-0.7,2.6c0,0.3-0.7,0.7-0.7,0.7s0.3-2.3,0.3-2.7
					s0.1-0.9,0.8-1.6c0.7-0.7,1.1-0.8,0.8-1.2c-0.3-0.4-0.3-0.8-0.3-0.8l-0.8-0.7l-0.4,0.7h-2.5L463.3,288.6L463.3,288.6z
					 M414.4,291.1c0,0.7-0.1,0.9,1.2,0.9c1.5-0.1,2.1-0.7,2.1-0.7s-0.1-0.8,0.3-0.9c0.3,0,2-0.3,2.3-0.3c0.3-0.1,0.3,0.7,0.8,0.7
					c0.4,0,3.9-1.1,4.7-1.2c0.7-0.3,0-3.5,0-4.5c0.1-6.3,2.7-18.6,13.6-23c10.8-4.6,19.1-2.4,23,0.8c3.9,3.2,11.9,10.2,11.7,22.1
					c-0.3,11.7-2.6,17.8-7.4,22.4c-4.8,4.7-6.5,5.9-6.5,5.9l6.5,8.5l1.1-0.4l-5.9-7.8l1-0.7c0,0,6.1,8.3,6.5,8.5
					c0.4,0.1,0.8-0.7,0.8-0.7l-6.2-8.2l0.4-0.4l7.1,8.1c0,0,7-5.3,9.4-11.3c2.4-6.2,9.6-18.4,0.1-42.5c-3.6-9-12.4-13.9-12.4-13.9
					c-0.1,0.3-0.4,0.4-0.9,0.4c-0.7,0-7.3-5-17.1-5.1c-7.5,0-16.4,3.1-19.4,5.6c-1.2,1.2-2.4,0-2.4,0s-6.5,6.2-9,12
					c-3.5,7.7-4.7,13.2-5.3,16.7C413.8,285.4,414.4,291.1,414.4,291.1L414.4,291.1z M572,314.4l0.7-0.4l-0.4-0.8l-0.7,0.4L572,314.4
					L572,314.4z M570.4,315.6l0.8-0.7l-0.4-0.7l-0.8,0.4L570.4,315.6L570.4,315.6z M530.8,315.9l1.1,5.1v0.3c0,0,1.5,0.4,2.3,0.4
					c0.9,0,0.7-2,0.3-2.7c-0.3-0.7-0.9-2.4-2-2.8c-0.9-0.7-2-0.8-2-0.8L530.8,315.9L530.8,315.9z M443.5,273c-0.1,0.4,0,0.8,0.1,0.4
					c0.3-0.1,0.3-1.1,0.1-1.6C443.8,271.9,443.5,272.7,443.5,273L443.5,273z M442.3,270.8c0,0-0.4,0.9-0.4,1.6c0,0.8,0,0.8,0.4,0.7
					c0.4,0,0-1.5,0-2.1V270.8h0.1H442.3L442.3,270.8z M441.4,267.8c-0.1,0.1,0,0.1,0.1,0.7c0.1,0.4-0.3,0.4-0.3,0.9
					c0,0.4,0.1,5.8,0.1,6.2c0,0.7,0.4,1.2,1.1,1.2c0.4,0,0.4-0.4,0.4-0.9c-0.1-0.4-0.8-0.4-0.8-0.8c0-0.3,0.1-0.4,0.4-0.3
					s1.2,2,1.2,2.6c0,0.7-0.4,0.3-0.9,0c-0.4-0.1-1,0-1.5,0.3c-0.4,0.1,0.7,3.5,0.7,4.1c0,0.4-0.8,0.4-0.9,0.8
					c-0.3,0.3,1.2,0.3,2.1,0.1c0.9,0,0-0.8-0.3-1.5c-0.3-0.8-0.3-2-0.1-2.4c0.1-0.3,0.4,0.7,0.9,1.7c0.4,1.1,1.5,1.2,2,1.5
					c0.7,0.1,0,0.7-0.4,1c-0.3,0.3-1.5,0.4-2.3,0.4c-0.7,0,0,0.3-0.1,0.7c0,0.3-1.1,0.1-1.2,0.4c-0.1,0.1,0.3,0.1,1.6,0.1
					c1.1,0.1,2.1,0,2.8-0.4c0.9-0.7,0.4-3.4,0.3-3.8c0-0.4-0.8-1.6-0.8-2.1c-0.1-0.4,0.8-0.7,0.8-0.9v-6.1c0-0.7,0.3-1.1,0.3-1.7
					c0.1-0.4,0-1-0.3-0.8c-0.3,0-0.3,0.1-0.7,0.8c-0.3,0.7,0,1.1,0.1,1.6c0.1,0.4,0.1,4.7,0.1,5.4c-0.1,0.8-0.4-1.8-0.7-2.6
					c-0.1-0.7-0.3-2-0.3-2.6c0-0.7,0.3-2.4,0.7-3.1c0.3-0.4,0.7-1.5,0.7-2c0-0.4-0.1-0.8-0.1-0.8s-0.3,0.1-0.7,0.4
					c-0.3,0.3-0.3,0.7-0.3,0.7h-1.2l-0.3-0.8c0,0-0.1,0.1-0.3,0.3c-0.3,0.1-0.3,0.4-0.3,1.1c0,0.7,0.1,0.4,0.1,0.9
					c0,0.3,0.4,0.4,0.8,0.7c0.1,0.1-0.3,0.7-0.4,1c-0.3,0.4-0.3,0-0.7-0.3c-0.1-0.3-0.7-0.1-0.8-0.7c-0.3-0.3,0.1-0.3,0.3-0.7
					c0-0.3,0-0.7-0.1-1.1C442.2,267.6,441.5,267.6,441.4,267.8L441.4,267.8z M435.2,280.4c0,0-0.4-0.3-0.3,0.1
					c0.1,0.4,1.1,0.9,2.3,0.9s1,0.4,0.4,0.4c-0.3,0-0.9,0-1.8-0.1c-0.8-0.1-0.9,0-2-0.3c-0.8-0.1-1.2,0-1.6,0s-0.3,0.1-0.4,0.7
					c-0.3,0.3-0.7,0.8,0,1.2c0.7,0.4,0,0.3-0.3,0.7c-0.3,0.1,0,0.3,0.4,0.1c0.4,0,1.2-0.7,1.2-0.3c0.1,0.1-2,1.1-1.5,1.2
					c0.3,0,0.1,0.1,1.6-0.1c1.2-0.1,1.1-0.7,1.5-0.8c0.3-0.3,1.1-0.7,2-0.4c0.7,0.1-0.1,0.1-0.7,0.4c-0.3,0.1-1.6,0.8-1.1,0.8
					c0.7,0,1.5,0,1.7-0.1c0.1-0.3,1.2-0.3,2-0.4c0.4,0,0-0.4,0-0.8c0.1-0.1,0.1-1.1,0.1-1.5s-0.1-0.7-0.4-0.8
					c-0.4-0.3-1.6-0.1-2.3-0.1c-0.8-0.1-0.9-0.4-0.8-0.7L435.2,280.4L435.2,280.4z M436.2,275.8c0.7,0.4,1.5,0.7,2,0.7
					c0.4,0,0.3,0.4-0.3,0.4c-0.4,0-1.5-0.1-2.1-0.4c-0.7-0.4-0.9-0.7-1.5-0.8c-0.4,0-0.8,0.4-0.9,0.9c-0.3,0.3-0.3,0.3-0.3,0.7
					c0,0.1,0.4,0.7,0.3,0.8c0,0.3-0.8,0.8-0.4,1.1c0.1,0.3,0.4-0.1,0.7-0.3c0.3-0.1,0.7-0.3,0.9-0.1c0.4,0.1-0.9,0.7-0.9,0.9
					c-0.1,0.1,0,0,0.7,0c0.8,0,0.9-0.3,1.2-0.3c0.3-0.1,0.8-0.4,1.2-0.7c0.4-0.1,1.2-0.3,1,0c-0.1,0.3-2,0.7-1.8,0.8
					c0,0.1,0.4-0.1,1.1-0.1c0.7-0.1,1.5,0.1,2,0c0.3-0.3,0-1.7,0-2.1c0-0.3,0.1-0.4,0.3-0.8c0.3-0.3-0.3-0.3-1.2-0.4
					c-1.1-0.1-1.1-0.3-1.8-0.4C436.2,275.4,435.6,275.3,436.2,275.8L436.2,275.8z M434.1,271.2c-4.4,4.1-4.6,15.1-4.6,15.1h18.7
					v-22.7C441.1,264.2,438.5,266.8,434.1,271.2L434.1,271.2z M439.5,269.1c-0.3,0-1.6,0.3-1.6,0.8c0,0.4,0.7,0.9,0.9,1.2
					c0.4,0.3,0.3,0.7,0.3,0.7s-0.8,0.1-1.5,0c-0.7-0.1-0.3-0.7-1-0.8c-0.7-0.1-0.9,0.4-0.9,0.4s0.1,0.4,0.3,0.7
					c0,0.1-0.3,0.3-0.3,0.7c-0.1,0.3-0.7,0.3-0.9,0.3c-0.4,0.1-0.3,0.3,0,0.3c0.3,0.1,0.7,0,1.2,0c0.4-0.1,0.7-0.3,0.9-0.4
					c0.3-0.1,1,0,1.1-0.1c0.1,0-0.3,0.4,0,0.7c0.1,0.1,0.8,0,1.1,0c0.3,0,0.1-0.3,0-0.7c-0.3-0.3,0-0.4,0.1-0.4
					c0.1-0.1,0.1-0.7-0.1-1.1c-0.1-0.4-0.4-0.3-0.8-0.9c-0.3-0.7,0.8-0.4,1.2-0.8C439.9,269.3,439.9,268.9,439.5,269.1L439.5,269.1z
					 M463.6,272.9c-0.4,1.5,0.1,2.3,0.7,3.2c0.4,0.9,1.1,4.4,1.1,4.4h0.7c0,0,0.1-1.5,0.1-2c0-0.7,0.7-2,1.1-2.7
					c0.3-0.7,0.9-2.3,0.8-3.4c-0.1-1.1-2.7-2.8-2.7-2.8S464.1,271.6,463.6,272.9L463.6,272.9z M467,280.1h0.4c0,0-0.3-1.5,1.6-1.5
					c1.8,0,0.8,2.6,0.8,2.6s3.7-4.6-0.1-5.1C465.7,275.4,467,280.1,467,280.1L467,280.1z M464.6,280.1c0,0-0.7-4.7-2.6-4.6
					c-2,0-2.8,1.8-2.6,2.8c0.3,0.9,1.2,1.8,2,1.8c0.7,0-0.3-1.8,1.1-1.8c1.2,0,1.1,1.8,1.1,1.8L464.6,280.1L464.6,280.1z
					 M464.4,281.1c-0.4,0-0.4,0.9,0,0.9h3.7c0.7,0,0.8-0.9,0-0.9C467.1,281.1,464.4,281.1,464.4,281.1L464.4,281.1z M454.6,275v1.6
					h0.8v-0.9h0.7v0.9h0.9v-1.1h0.8v1.1h0.9V275H454.6L454.6,275z M454.8,273.8c-0.4,0-0.7,0.4-0.1,0.4h3.9c0.3,0,0.4-0.4,0-0.4
					H454.8L454.8,273.8z M450.9,268.1c-0.8,0.3-2,2.3-1.6,3.5c0.1,1.5,0.4,3.2,1.5,3.8c0.9,0.4,0.3-2.4,0.8-2.7
					c0.4-0.4,1.2-0.8,1.6-0.4c0.4,0.4,0.7,0.8,0.7,0.8h1.1C455,273,454.7,266.6,450.9,268.1L450.9,268.1z M458.8,273
					c0,0,0.9-0.8,1.7-0.3c0.9,0.3,0.7,2.3,0.9,2.1c0.3-0.1,1.6-2.8,1.6-3.1c0-0.1,0.9-4.4-1.8-3.9c-2.7,0.1-3.6,4.7-3.6,5.3
					L458.8,273L458.8,273z M453.9,265.7c-0.3,1.5,0.9,4.7,1.5,5.3c0.3,0.8,0.3,2.1,0.3,2.1h1.1c0,0,0.1-1.1,0.1-1.6
					c0.1-0.7,1.6-3.6,1.6-5.4c0.1-1.8-1.6-3.8-2-3.8C456.3,262.2,454.4,264.2,453.9,265.7L453.9,265.7z M464.3,283.2v1.6h0.8v-1.1
					h0.8v1.1h1.2v-1.1h0.7v1.1h0.7v-1.6H464.3L464.3,283.2z M454.7,286.6h0.7v-0.7h0.8v0.7h0.9v-0.7h1v0.7h0.4v-1.1H455v0.9
					L454.7,286.6L454.7,286.6z M450,281.6c-0.3,3.2,1.1,4.7,1.5,4.7c0.3,0.1,0.9,0.1,0.4,0c-0.3-0.1-0.3-0.8-0.3-1.5
					c0-0.4,0.1-1.6,0.9-2c0.8-0.3,2,0.9,2.1,0.7c0.3-0.3-0.3-1.7-0.9-2.8c-0.8-1.1-1.8-1.1-2.6-0.9C450.8,279.8,450,279.7,450,281.6
					L450,281.6z M458.8,283.5c0.3,0,1.1-0.3,2,0c0.7,0.4-0.3,2.7,0.1,2.7c0.4,0,1.5-0.3,1.8-0.7c0.3-0.1,0.9-1.6,0.3-3.2
					c-0.4-1.5-2.6-1.2-3.5-0.9c-0.9,0.3-1.2,1.8-1.1,2C458.3,283.3,458.3,283.5,458.8,283.5L458.8,283.5z M454.7,284.4
					c0,0.3-0.1,0.4,0.4,0.4h3.1c0.7,0,0.7-0.4,0-0.4c-0.7,0-2.8,0.1-3.1,0C454.8,284,454.7,284,454.7,284.4L454.7,284.4z
					 M456.3,283.5c0.8,0,1.6-1.2,1.6-3.1c0-1.6-1.1-3.2-1.6-3.2c-0.3-0.1-1.5,2-1.5,3.2C455,281.7,455.6,283.5,456.3,283.5
					L456.3,283.5z M459.3,288c0,0.3-0.1,5.8-0.1,5.8s1.6,0.1,2.1,0.1c0.4,0,0.7,0.3,0.7,0.8v4.6c0,0.3,2.8,3.1,3.4,2.8
					c0.7,0,2.8-4.4,3.5-5.8c0.7-1.6,1.5-7.5,1.5-8.2c0-0.4-0.8-0.7-1.5-0.7h-9.3C459.4,287.5,459.3,287.6,459.3,288L459.3,288z
					 M455.3,290.3c0,0.3,0,1.5,0.1,2c0,0.4-0.9,0.7-1.2,0.7c-0.3,0,0.1-0.4,0.3-1c0-0.3,0.3-0.4,0.3-0.9c0-0.3,0.1-0.9,0.1-1.5
					c0-0.3-0.7-0.1-1.1-0.3c-0.4,0-1.1,0-1.8,0.3c-0.4,0.3-0.3,2.7-0.1,3.5c0.1,0.7,1,1.5,1,1.8c-0.1,0.3-0.4,0.4-0.8,0.4
					c-0.3,0,0,0.7,0.1,1.2c0.3,0.8,0,1.5,0,1.8c0.1,0.3,1.5-0.4,1.6-0.7c0.1-0.1,0.4-1.2,0.3-2c-0.1-0.4,0.1-2,0.4-2.3
					c0.1-0.4,1.1-0.7,1.1-0.9c0.1-0.3,0-1.6,0-2c0-0.3,0.9-0.8,0.3-1.1C455.9,289.4,455.5,290.2,455.3,290.3L455.3,290.3z
					 M457.7,287.5c-0.3,0-7,0.1-7.5,0.1c-0.7,0-0.7,0.3-0.7,0.7c0,0.3,0,13.3,0,13.6c0,0.1,0.1,1.1,0.4,0.8c0.1-0.1,4.7-3.4,5-3.7
					c0.3-0.1,0.4-0.3,0.4-0.4c0-0.3,0-3.6,0-4.1c0-0.4,0-0.4,0.7-0.4h2v-5.9C458.1,288,458.1,287.5,457.7,287.5L457.7,287.5z
					 M456.7,295.6v2.1c0,0.3,0.3,0.8,0.7,1.1c0.4,0.3,0.8,0.4,1.2,0.7c0.4,0.1,1.6-1.2,1.8-1.5c0-0.1,0-0.4,0-1v-1.5
					c0-0.3-0.3-0.3-0.8-0.3h-2.4C456.7,295.1,456.7,295.6,456.7,295.6L456.7,295.6z M455.9,300c-0.4,0.1-0.7,0.3-0.4,0.8
					c0.1,0.4,0.8,0.9,0.8,0.9s0,0.1-0.7,0.3c-0.4,0.1-2.6-0.1-3.1,0.1c-0.7,0.1-0.9,0.3-0.9,0.7c0.1,0.1,0.7,0.1,0.8,0.1
					c0.1-0.1,0.7-0.3,1.1-0.3s0.9,0,1.1,0.3c0,0.3-0.7,0.9-0.8,1.5c-0.1,0.4-0.1,0.8,0.1,0.8c0.4-0.1,0.7-0.4,0.7-0.7
					c0-0.1,0.7-0.8,0.9-0.9c0.3-0.1,1.1,0,1.8-0.1c0.7-0.1,0.8-0.7,1.2-0.8c0.4,0,0.8,0,1.2,0.1c0.7,0,0.9,0.4,0.4,0.7
					c-0.4,0-1.8,0-1.8,0.3c-0.1,0.1-0.3,0.3-0.3,0.3s0.3,0,0.9,0c0.4,0,1.6,0.3,1.8,0c0-0.4,0.3-0.4,0.4-0.8
					c0.1-0.3,0.1-0.3,0.3-0.3c0.1,0,0.7,0,0.7,0s-0.4,0.1-0.4,0.8c0,0.4,1.1,0.3,1.1,0c0-0.4,0-1.1,0-1.5c0.1-0.1-0.1-0.1-0.4-0.1
					s-0.8,0.3-1.1,0.1c-0.3,0-0.4-0.4,0-0.4c0.4-0.1,1-0.1,0.8-1c-0.1-0.7-2.4-0.8-3.2-0.8c-0.8,0.1-0.4,0.7,0,0.7
					c0.3,0,1.8,0.1,2.1,0.3c0.3,0.1-0.1,0.4-0.4,0.7c-0.4,0.1-2.1,0.3-2.6,0.1c-0.4-0.1-0.1-1.2-0.7-1.7c-0.4-0.3-0.4-0.1-0.7,0
					c0,0.3-0.4,0.4-0.4,0.1C456.2,300.3,455.9,300,455.9,300L455.9,300z M431.3,289c-0.1,0.3-0.3,1.1,0.3,2c0.7,0.8,1.8,2.6,2.1,2.6
					c0.4,0,0.3,1.6,0.4,2.1c0,0.4,3.2,8.1,3.7,8.8c0.3,0.8,0.4,1.8,1.6,1.1c1.2-0.4,3.9-2,3.9-2.3s0.7-1.5,0.7-1.8
					c0-0.3,3.8-10.1,3.8-10.8c0-0.8-1.1-0.9-1.5-0.3c-0.3,0.4-0.3-1.1-0.3-1.5c-0.1-0.3,0.1-0.9-0.7-1.1c-0.9-0.1-1.8,0.4-1.8,0.4
					s-12,0-12.3,0.1C431.3,288.7,431.3,289,431.3,289L431.3,289z M435.2,295.6c0.1,0.3,1.2,3.8,2.1,5.3s2,3.5,2,3.5l0.3-0.3
					c0,0-0.3-0.4-0.8-1.1c-0.3-0.7-3.2-8.5-3.2-8.5S435.2,294.9,435.2,295.6L435.2,295.6z M444.7,290.9c-0.3,0.4-4.1,1.5-5,1.8
					c-0.7,0.1-3.8-0.4-4.4-0.4c-0.7,0,0,0.7,0,0.7s0,0.3,0.1,0.8c0.1,0.4,4.7,9.6,4.7,9.6l0.4-0.4l-4.4-9.4l0.9-0.1l3.8,8.8l0.1-0.8
					l-3.1-7.8h1.1l2.6,6.3l0.3-0.9l-2-5.4l0.9-0.1l1.5,4.6l0.7-1.6l-1.1-3.4l1-0.1l0.7,2.3l0.7-1.6l-0.3-1.5h0.7c0,0,0.1,1,0.3,0.3
					c0-0.4,0.4-1.5,0.4-1.5S445,290.6,444.7,290.9L444.7,290.9z M433,289.7l0.1,0.7c0,0,3.5,0.1,4.6,0.1c0.9,0,4.8-0.1,5.8-0.3
					c0.9-0.1,1.6-0.3,1.6-0.3v-0.4c0,0-2.1,0.1-2.7,0.3C441.5,289.7,433,289.7,433,289.7L433,289.7z M418.1,308
					c0.3,0.1,0.8,0.4,1.5,0.3c0.4-0.1,7.8-3.2,7.8-3.2l-0.4-0.7c0,0-3.6,1.2-4.7,1.6C421,306.6,418.1,308,418.1,308L418.1,308z
					 M416.1,305.3c0,0,0.7,0.7,1.1,0.7s9.2-3.1,9.2-3.1l-0.3-1.1c0,0-6.5,2.4-7.7,2.7C417.1,304.9,416.1,305.3,416.1,305.3
					L416.1,305.3z M415.5,308.8c1.1,1.2,4.4,2.6,4.8,2.4c0.3-0.3-0.4-1.5-0.4-1.5l8.5-3.5c0,0,2.3,0.7,2.6,0.4
					c0.1,0-0.1-0.7-0.7-1.5c-0.3-0.7-2.3-3.2-2.6-4.6c-0.3-1.2-0.7-5.3-0.7-5.4c0-0.3-0.4-0.3-0.7,0.4c-0.3,0.7-0.3,4.6-0.3,4.6
					l-10.6,3.8c0,0-0.1-0.3-0.3-0.9c-0.1-0.7-0.8-2.4-0.8-2.1C413.2,304,414.3,307.4,415.5,308.8L415.5,308.8z M421.4,299.6
					c-2.1,1-2-1.2-2.1-1.1c-0.1,0-0.7,0.7-0.7,1.2c0,0.8,0.9,2,3.5,1.1s2.1-3.6,1.6-3.6C423.4,297.2,423.5,298.7,421.4,299.6
					L421.4,299.6z M421.7,291.9c-0.1,0.3-0.1,0.8,0,1.1c0,0.4,0.4,0.9,0.7,1.5c0.1,0.3,0.8,0.3,1.2,0.1c0.7,0,3.9-0.9,4.6-0.9
					c0.4,0,1.1,0.4,1.1,1.6c0,1.2,0,2.6,0,3.2c0,0.7,0.4,1.6,0.4,1.6s-1.1,0.3-0.7,1.1c0.3,0.8,1.6,0.4,1.6,0.4s1.1,1.8,1.5,2.6
					c0.3,0.7,1,2.7,0.7,3.1c-0.4,0.1-2.4,0.7-3.1,0.8c-0.7,0.1-8.8,3.2-10,3.8c-1.1,0.7-2,1.2-1.5,2.1c0.3,0.7,1.1,2.3,4.1,1.5
					c2.8-0.8,12.4-4.4,12.7-6.6c0.1-2.4-0.4-5.1-1.2-5.9c-0.8-0.9-2.4-2-2.4-2.3s0.9-7.1-1.2-8.8c-2.1-1.8-3.2-1.2-4.7-0.9
					C424.1,291.1,422.1,291.7,421.7,291.9L421.7,291.9z M412.3,295.1c-0.1,0.4-0.7,2.4-0.3,3.1c0.1,0.8,0.3,1.1,0.3,1.1
					s1.2-1.2,2.6-1.7c1.2-0.7,3.5-1.5,3.4-2.3c-0.1-0.8-0.4-1.5-0.8-2c-0.1-0.4-0.9-0.3-1.6-0.1
					C415.4,293.6,412.5,294.8,412.3,295.1L412.3,295.1z M419.3,292.1c-0.4,0.3,0,2.6,0.1,3.6c0.3,1.2,0.4,2.1,0.9,2.8
					c0.3,0.7,2.3-0.4,2.1-0.9c-0.3-0.7-1.5-2.7-2-3.6C420.2,293.3,419.6,291.9,419.3,292.1L419.3,292.1z M457.8,315.9
					c0.3,0.3,5,6.2,5.4,6.3c0.4,0.3,1.5-0.1,1.2-0.7c-0.1-0.3-5.4-7.5-5.4-7.5S457.5,315.6,457.8,315.9L457.8,315.9z M448.9,318.3
					c0,0,10.6-10.2,11.5-11.2c0.9-0.8-0.1-2.4-1.5-2.1c-1.2,0.1-2.8,1.8-2.8,1.8l-7.8,0.1l-1.1,2h7.3l-0.4,0.8h-7.5l-0.8,1.1
					l7.4,0.3l-0.3,0.8l-8.1-0.1l-0.9,1.2l8.1,0.3C448.9,317.5,448.9,318.3,448.9,318.3L448.9,318.3z M444.2,321.8l-0.8-0.3
					c0,0-2.7,1.5-3.7,2c-0.8,0.4-3.8,2-3.8,2l0.8,0.7c0,0,1.5-0.8,2-1.1c0.7-0.3,0.9,0.7,0.7,1c-0.4,0.3-1.6,0.8-1.6,0.8l0.8,0.3
					c0,0,1.1-0.4,1.6-0.8c0.7-0.1,1.2,0.1,0.9,0.4c-0.3,0.3-1.5,0.8-1.5,0.8l1.8,0.7l7.4-3.8l-0.9-0.3c0,0-2.1,0.8-2.6,1.1
					c-0.4,0.1-0.8-0.7-0.3-0.9c0.3-0.3,1.5-0.8,1.5-0.8l-0.9-0.7c0,0-0.9,0.7-1.5,0.9c-0.4,0.1-1.6-0.3-0.9-0.8
					C443.5,322.6,444.2,321.8,444.2,321.8L444.2,321.8z M441.4,320.5c0,0-3.1,1.5-3.9,2c-0.8,0.4-3.6,1.8-3.6,1.8l0.9,0.8l7.5-3.9
					L441.4,320.5L441.4,320.5z M435,321.3c-0.8,0.4-3.4,1.5-3.4,1.5l0.8,0.7c0,0,2.4-1,3.2-1.2c1.1-0.4,4.8-2.4,4.8-2.4l-0.9-0.7
					C439.4,319,436,321,435,321.3L435,321.3z M435,319c-0.4,0.1-4.8,2.3-4.8,2.3l0.7,0.7l7.7-3.6l-0.7-0.7
					C437.9,317.5,435.4,318.7,435,319L435,319z M428.7,323.7c3.8,4.7,13.5,8.2,18.7,10c5.3,1.7,11.1,2,11.5,1.7
					c0.4-0.1,1.5-0.9,0.1-0.9c-1.1-0.1-3.1-0.7-3.1-0.7s5.8-3.1,6.2-3.5c0.7-0.4,0.1-1.5-0.9-0.8c-0.9,0.7-7.1,3.6-7.1,3.6l-2.4-0.4
					c0,0,5.7-3.1,6.2-3.5c0.8-0.3-0.3-0.8-1.1-0.4c-0.7,0.3-6.5,3.4-6.5,3.4l-1.6-0.7c0,0,4.8-2.4,5.8-3.1c0.9-0.4-0.4-0.9-1.2-0.4
					c-0.7,0.3-5.8,2.8-5.8,2.8l-2.3-0.8c0,0,5.8-2.7,6.2-3.2c0.4-0.4-0.7-0.8-1.2-0.4c-0.4,0.3-6.5,3.2-6.5,3.2l-1.1-0.7l7.8-3.8
					c0,0,4.1,1.5,7.7,2.1c3.4,0.7,10.8,0.8,11.5,0.7c0.9-0.1,2.7-2.3,1.5-1.7c-1.2,0.4-7.8,0-10.2-0.3c-2.6-0.3-6.1-1.2-11.8-3.8
					c-5.8-2.4-13.5-10-13.8-10.2c-0.3-0.4-0.4-0.3-1.1,0.3c-0.8,0.7,0.4,3.1,0.4,3.1l-1.2,0.8c0,0-0.8-0.4-1.2-0.4
					c-0.4-0.1-1.5,0.4-1.5,1c0.1,0.3,1.6,0,1.7,0.4c0.3,0.3,0.1,1.2,1,1.2c0.7-0.1,0.3-1.1,0.3-1.1l1.8-1.1l1.1,1.1
					c0,0-2,0.9-2.3,1.2c-0.3,0.1-1.2,0.7-1.8,0.7c-0.3,0-3.4,1.7-3.4,1.7l-1.1-0.8c0,0,0.9-0.7,1.2-0.9c0.3-0.3-0.3-1.2-0.7-0.9
					c-0.1,0.3-1.2,1.1-1.2,1.1s-0.7-0.3-0.9-0.8c-0.3-0.4-1.8-0.7-1.6,0C425.3,319.3,424.8,318.9,428.7,323.7L428.7,323.7z
					 M456.1,318.7c-0.4-0.1-1.7,0.7-1.5,1.2c0.3,0.7,2,0.9,2.8,1.5c1.1,0.3,1.2-0.3,0.8-1C458.1,319.7,456.1,318.7,456.1,318.7
					L456.1,318.7z M442.7,314.6c0.3,0.4,1.6,1,2.4,1.1c0.8,0.1,1.2,0.1,1.2,0.1l1.5-1.1c0,0-1.6-0.1-2.4-0.1H442.7L442.7,314.6z
					 M442.3,307.8c-1.2,2-2.7,5-2.8,5.1c0,0.3,0.1,0.4,0.8,0.1c0.4-0.1,5.1-4.4,5.8-5.6c0.7-1.1,0.3-1.8-0.8-2
					C443.9,305.3,443.5,305.8,442.3,307.8L442.3,307.8z M430.5,318.3c0.8,0.7,2.1-0.1,1.1-0.9C430.9,316.9,429.9,317.8,430.5,318.3
					L430.5,318.3z M439.9,324.9c0.3,0.7,1.2-0.4,2.3,0c0.8,0.7-0.3,1.1,0.1,1.6c0.4,0.4,0.8,0.1,1.1-0.1c0.3-0.3,0.3-1.6-0.3-2.1
					c-0.6-0.5-1.8-0.8-2.6-0.4C439.5,324.3,439.8,324.4,439.9,324.9L439.9,324.9z M431.6,330.2c0.1-0.4-0.9-1.6-2-2
					c-0.9-0.4-2,0.3-1.5,2c0.4,1.6,1.2,5.1,1.2,5.1s3.1,0.4,6.1,0.4c3.1,0,3.9-1.8,1.2-3.2c-2.7-1.5-5,1.6-5,1.6s-0.8-0.3-1.2-0.4
					c-0.3-0.3-0.4-0.8-0.4-0.8S431.4,330.9,431.6,330.2L431.6,330.2z M381.3,291.9c-0.1,1.1-1.7,2.7-2.3,2.8c-0.4,0-0.8,1.5-1.5,2.1
					c-0.4,0.7-0.9,2.3-0.9,2.3h-1.5c0,0-0.1-0.9-0.3-2.4c-0.3-1.5-0.7-2.3-0.9-2.4c-0.3-0.1-1.1,1.5-2,2.1c-0.8,0.7-4.7,3.5-5.6,4.1
					c-0.9,0.7-0.9,1.6-0.3,2c0.7,0.4,1.8,0.9,2.4,0.7c0.8-0.1,4.7-3.1,5.1-3.4c0.7-0.1,0.9,0.2,0.8,0.3c-0.1,0.1-4.4,3.4-5,3.9
					c-0.7,0.8-1.6,1.8-1.6,2.3c-0.1,0.4,1.5,0.8,2.6,0.4c1.1-0.3,2.4-1.5,3.2-2c0.8-0.4,6.2-4.7,6.6-5.1c0.4-0.4,2-0.9,1.2-0.3
					c-0.7,0.7-3.1,2.8-3.8,3.5c-0.7,0.4-2.3,2.1-1.5,2c0.9-0.3,1.6-0.3,2.8-1c1.2-0.8,3.8-2.6,5.1-3.4c1.1-0.8,4.1-2.1,4.7-2.3
					c0.4,0,1.2,0.3,1.2,0.3s-2.3,1.6-3.1,2.3c-0.7,0.4-0.9,1.5,0.3,1.2c1.1-0.3,3.2-1.2,4.1-1.8c0.9-0.4,3.8-0.4,3.8-0.4
					s-0.8,0.4-1.1,1.6c-0.4,0.9,0.8,0.7,0.7,1.1c-0.1,0.4,0.4,1.1,0.9,0.9c0.4-0.1,0.4,0.3,0.4,0.9c0,0.4-0.8,1.7-0.8,1.7l0.7-0.3
					c0.4-0.3,0.9-0.4,1.1-0.9c0-0.4,0.7,0.4,0.7,1.1c0,0.8-0.7,1.8-0.7,1.8l0.4-0.1c0.4-0.1,1.1-1.1,1.2-1.5c0.1-0.1,0.4-0.1,0.3,1
					c-0.1,1.2-0.4,2.6-0.4,2.6s0.8,0.3,1.1-0.3c0.4-0.7,0.7-2.4,0.7-2.8c0-0.4-2.1-3.9-2.3-4.6c-0.3-0.4-1-1.1-0.3-1.1
					c0.4,0,1.2,0.7,2.3,0.8c0.8,0.3,2.4,0.9,2.4,0.9s0,0.4-0.1,0.8c-0.1,0.4-0.7,1.5-0.1,1.2c0.3-0.1,0.7-0.4,1-0.8
					c0.1-0.4,0.7-0.1,0.4,0.7c-0.1,0.7-0.8,1.8-0.8,1.8s0.4,0,0.8-0.4c0.1-0.4,0.8-1.1,0.7-0.7c0,0.4-0.3,1.8-0.4,2.1
					c-0.1,0.3,0,0.9,0.3,0.8c0.3-0.1,0.8-1.1,1.2-2c0.4-0.8-0.4-3.2-0.9-3.8c-0.4-0.8-2.1-2.4-2.6-2.6c-0.4-0.3,0.3-1,1-0.8
					c0.7,0.3,1.7,0.9,2,1.2c0.3,0.3,1.1,0.1,1.2,0.7c0.1,0.3-0.4,1.5,0,1.2c0.3-0.1,0.4-0.1,1.1-0.8c0.4-0.4,0.1,0.9,0,1.5
					c-0.3,0.3-0.9,1.2-0.8,1.2c0.3-0.1,0.8-0.1,1.1-0.8c0.3-0.4,0.8,0.1,0.8,0.8c0,0.7-0.4,0.9-1,1.5c-0.3,0.4,0,1.6,0.4,0.8
					c0.7-0.8,0.9-0.7,1.2-1.6c0.3-1.1-1.1-3.8-1.8-5.3c-0.4-1.5-6.1-3.8-8.2-4.4c-2.1-0.3-13.9-2.3-14.7-2.6
					c-0.9-0.4-0.9-3.5-2.6-3.5C382.1,289.2,381.3,291,381.3,291.9L381.3,291.9z M404.4,294.9c0,0.7,3.8,3.1,4.4,3.6
					c0.3,0.8,0.8,1.8,1.1,2.3c0.4,0.4,1.8,0.4,1.6,0.3c-0.1-0.3-0.7-2.4-0.7-3.1c0-0.8,0.4-2.3,0.4-2.6c0-0.4-0.8-3.8-0.8-3.8
					s-0.7-0.8-1.1-1.1c-0.4-0.3-0.4-0.4-0.9-0.4c-0.4,0.1-0.4,0.7-1,1.5c-0.4,0.8-1.1,1.6-1.6,0.8c-0.3-1-0.7-1.6-0.9-1.5
					C404,291.1,404.4,294.4,404.4,294.9L404.4,294.9z M372.2,283.7c-0.3,0.7-0.7,1.5-1.2,2c-0.7,0.4-2.1,2.4-2.4,3.2
					c-0.2,0.7-3.5,7.1-3.9,7.7c-0.3,0.4-0.1,2.3-0.1,2.8c0,0.7,0.7,1.1,1.1,0.8c0.3-0.1,1.5-2.4,2-3.1c0.3-0.4,2.4-1.7,4.4-3.1
					c2.1-1.5,2.1-4.4,2-5.4c-0.1-1.2,0-2.8,0.3-3.9c0.4-1.1,0.4-2.6-0.4-2.7C373.4,282.1,372.3,282.9,372.2,283.7L372.2,283.7z
					 M359.5,302.2c-0.3,0.7-1.5,2-1.6,2.8c-0.1,1.1,1.1,0.4,1.2-0.1c0-0.8,1.1-2.1,1.6-2.6c0.4-0.3,0.4-1.1-0.1-1.5
					C360.4,300.7,359.9,301.5,359.5,302.2L359.5,302.2z M356.3,301c-0.3,0.4-0.9,1.5-0.9,2.1c0,0.4,0.7,0.9,1.1,0.4
					c0.3-0.4,0.1-1.2,0.9-1.6c0.9-0.4,0.9-1.5,0.4-1.5C357.3,300.4,356.4,300.6,356.3,301L356.3,301z M354.9,298.4
					c-0.3,0.7-1.6,2.8-1.8,3.4c-0.1,0.4,0.3,1.1,0.8,0.4c0.7-0.4,2-3.2,2.1-3.5c0.3-0.3,0.4-0.8-0.1-1.1
					C355.8,297.5,355.2,297.9,354.9,298.4L354.9,298.4z M362.6,304.3c-0.1,0.4-0.8,2-0.9,2.3c0,0.4-0.4,0.9,0,1.2
					c0.7,0.1,0.8-0.1,0.9-0.7c0.1-0.4,0.8-2,1-2.3c0.1-0.4,0.7-1.2,0.1-1.6C363.1,303.1,362.7,303.9,362.6,304.3L362.6,304.3z
					 M364.8,306.7c-0.1,0.4-0.3,1,0.3,1.1c0.4,0.1,0.8-0.7,0.8-1.1c0-0.4,0.1-0.7-0.4-0.7C365.5,306,364.8,306.1,364.8,306.7
					L364.8,306.7z M363.1,299.3c-0.8-0.3-1.5,3.8-1.5,3.8S363.8,299.6,363.1,299.3L363.1,299.3z M353.6,295.4
					c-0.8,0.4-1.2,1.2-2,2.3c-0.7,0.8,0.3,1.6,0.8,1.5c0.4-0.3,2-2.1,2.4-2.6c0.4-0.3,1.2-0.8,1.1-1.2
					C356,295.1,354.5,294.9,353.6,295.4L353.6,295.4z M365.9,288.4c-0.7,0.3-0.9,0.8-1.5,1.5c-0.7,0.7-1.8,2.3-2.6,2.8
					c-0.7,0.4-1.7,1.6-2.4,2.4c-0.7,0.8-2.6,3.1-2,2.8c0.8,0,2.1-0.3,3.5-0.9c1.5-0.7,3.2-3.1,4.1-4.4c0.9-1.2,1.7-3.5,1.7-4.4
					C367,288.4,366.6,288.2,365.9,288.4L365.9,288.4z M376.8,282.7c0,0-0.1,0.7-0.3,1.6c-0.1,0.8-0.7,1.5-1.6,3.2
					c-0.8,1.7,0.4,4.7,0.8,5.4c0.3,0.7,0,5.3,0.3,5.1c0.3-0.1,3.4-6.6,3.5-7.5c0.1-1-0.4-3.5-0.8-4.4c-0.3-1-0.8-3.7-0.8-3.7
					l-0.8,0.1h-0.3L376.8,282.7L376.8,282.7z M401.4,284.9c-0.3,0.7-0.8,1.6-0.4,3.1c0.4,1.2,0.9,3.1,1.5,3.2c0.4,0.1,1-0.4,0.7-1.2
					c-0.1-0.8-0.3-2.3-0.4-2.8C402.3,286.5,401.4,284.9,401.4,284.9L401.4,284.9z M381.4,282.7c0,0.3,1.1,2.4,1.6,3.4
					c0.4,0.9,2.3,3.5,3.1,4.7c0.7,1.2,1.5,1.8,2,1.6c0.4-0.1,0.3-3.5-0.1-4.1c-0.4-0.8-1.1-2.4-3.4-3.6
					C382.2,283.2,381.4,282.7,381.4,282.7L381.4,282.7z M395.3,281.3c-0.1,0.3,0.1,0.9,0.4,2.6c0.3,1.5,1.5,5.9,1.5,6.2v0.7
					c0,0,0.8,0.1,1-0.1c0-0.3,1.8-7.1,1.2-7.4c-0.7-0.1-2.1-1.2-2.8-1.6C396,281.2,395.3,281.3,395.3,281.3L395.3,281.3z
					 M399.9,291.3l-0.3,2.6l1.2,0.4l0.8-1.7L399.9,291.3L399.9,291.3z M389.1,282.2c0.4,0.7,0.8,2.3,1.2,3.9
					c0.4,1.7,0.3,4.1,0.4,4.7c0,0.3,0.9,0.7,1.2,0c0.1-0.7,2-6.3,2-6.5c0-0.1-0.9-1.1-2-1.2c-1.1-0.3-3.5-2.3-3.5-2.3
					S388.8,281.7,389.1,282.2L389.1,282.2z M405.5,286c-0.1,0.4-0.8,2.3-0.9,2.8c-0.3,0.7,0.4,1.2,0.9,0.7c0.3-0.8,0.7-1.7,0.9-2.6
					c0.3-0.8,0.3-1.2,0-1.5C406.4,285.6,405.7,285.6,405.5,286L405.5,286z M374.3,267.3l-0.8,2c0,0,2.1,2.4,1.5,3.4
					c-0.4,0.9-2.7,4.5-1.5,6.2c1.1,1.8,2.6,2.3,4.8,2.6c2.3,0.3,3.7,0,3.9-0.1c0.3-0.1-1.5-0.8-2.1-2c-0.7-1.1-2-3.1-1.6-4.4
					c0.3-1.2,0.8-3.1,0.1-4.4C377.3,267.1,374.3,267.3,374.3,267.3L374.3,267.3z M408.2,286.2c-0.1,0.7-0.7,2-0.4,2.4
					c0.1,0.4,1,0.3,1,0.3s0.1-0.4,0.4-2.1c0.3-1.7,0.4-1.7,0-2.1C409.2,284.8,408.2,285.7,408.2,286.2L408.2,286.2z M408.5,280.9
					c0,0.4,0.1,1.1,0.8,1.1s0.8-1.6,0.8-1.6s0.4-0.3,0.4-0.8c0-0.7-0.8-0.7-0.8-0.7s-0.3-0.4-0.9-0.4
					C408.8,278.5,408.5,280.2,408.5,280.9L408.5,280.9z M400.3,273.9c-0.7-0.1-0.3,2.8,0.3,4.6c0.7,1.6,2,2.7,2.6,3.5
					c0.7,0.7,1.1,1.1,2.3,1.2c1.1,0.3,2,0.4,2.1,0.1c0.1-0.1-0.4-1.1-1.1-2c-0.8-0.7-2.3-3.5-3.1-4.7
					C402.6,275.5,402.2,274,400.3,273.9L400.3,273.9z M381.2,274c0,0.7-0.3,1.5-0.1,2.1c0.1,0.7,0.9,2.8,2.4,4.1
					c1.5,1.5,2.6,2.7,3.4,3.8c0.8,1.2,1.1,2.3,1.1,1.8c0-0.7,0.3-1.8,0.1-2.4c-0.3-0.4-1.6-3.4-1.8-4.5c-0.1-0.9-0.1-2.3-0.1-2.3
					s-0.7-0.4-2.1-0.9C382.8,275.1,381.2,274,381.2,274L381.2,274z M374,263.4v1.5c0,0,2.7,0.8,3.5,1.5c1,0.7,3.4,3.4,3.6,4.7
					c0.3,1.1,0.4,1.7,1.6,2.4c1.2,0.7,2.7,1.1,3.4,1.1c0.7,0.1-0.7-2-1.5-2.6c-0.7-0.8-1.8-1.1-2.3-2.8c-0.4-2-1.8-4.8-3.1-5.6
					c-1.5-0.8-2.3-1.2-3.1-1.1C375.5,262.6,374,263.4,374,263.4L374,263.4z M353.4,243.6c0.1,0.3,1.2,2.7,1,3.8
					c-0.3,1.1-1.8,2.3-1.6,2.6c0,0.3,0.1,0.7,0.1,0.7s-1.6,1.2-2.4,2.3c-0.8,1.1-3.1,5.6-3.1,5.6s3.1-1.1,3.8-1.6
					c0.8-0.3,0.7,0.7,0.1,1.1c-0.4,0.4-0.9,1.8-1.1,2.3c-0.1,0.7-0.7,3.4-0.7,3.4s1.8-2.1,3.1-2.6c1.5-0.4,5.1-1.1,5.6-1.1
					c0.3,0-1.1-0.7-1.6-0.7c-0.4,0-2.6-0.1-2.6-0.1v-0.8c0,0,1.5-0.4,2.4-0.3c0.8,0,3.5,0.7,3.5,1.1c0.1,0.4-0.3,2.1-1.2,2.3
					c-1.1,0.3-1.8,0.7-2.3,1.2c-0.4,0.7-1.5,2.7-1.1,3.8c0.4,0.9,2.6,2.1,3.9,1.1c1.5-0.9,5-3.8,5.3-4.8c0.3-1.1,0.4-2.4-0.1-3.7
					c-0.4-1.2,1.6-1.5,2-0.8c0.3,0.4,2.3,3.9,2.1,5.3c-0.1,1.1-1,3.6-3.9,5.2c-3.2,1.8-3.5,2.3-4.1,2.1c-0.8-0.1-1.2,2,0,2.4
					c1.1,0.4,4.7-0.1,6.2-1.6c1.6-1.6,5.3-6.5,5.1-8.8c0-2.3-3.5-7.7-4.6-8.3c-0.9-0.8,0.7-0.8,1.6-0.1c0.9,0.4,3.9,4.4,4.4,5.6
					c0.1,1.1,0.4,1.6,0.4,1.6s0.4-0.2,0.9-0.3c0.4-0.1,2.3-1.1,3.9,0c2,1.1,4.5,3.5,5.6,3.9c1.1,0.4,2.4,0.4,2.4,0.3
					c0.1-0.3-0.8-0.8-1.1-0.9c-0.3-0.1-2.6-2.6-3.7-3.9c-1.1-1.5-2.7-3.2-4.1-3.5c-1.5-0.1-2.4,0.3-2.4,0.3l-0.7-1.5
					c0,0,3.4,0,4.4,0.1c0.9,0.1,5.1,3.5,6.3,4.4c1.2,0.8,2,0.8,2.7,0.7c0.7-0.3,0.1-0.9-0.1-0.9c-0.3-0.1-3.1-2.1-4.4-4.5
					c-1.1-2.3-3.4-5.8-6.4-5c-3.1,0.8-4.8,2.3-4.8,2.3l-0.7-1.2c0,0,3.8-2.1,4.8-2.7c0.9-0.4,3.2-2.4,3.5-3.7
					c0.1-1.1,0.1-1.8-0.1-2.4c-0.1-0.7-0.9-1.6-1.2-1.1c-0.3,0.7-1,2.7-1.8,3.1c-0.9,0.4-2.4,0.7-3.7,1.5c-1.1,0.8-3.6,3.1-3.6,3.1
					l-1.1-1.1c0,0,2.6-1.8,3.6-2.6c0.9-0.8,2.1-0.7,2.4-2.1c0.4-1.6,0.7-2.7,0-2.6c-0.4,0-0.7,0.9-1.1,1.2c-0.7,0.3-2.7,0.4-3.8,1.1
					c-1.1,0.7-2,1.2-2.4,2c-0.4,0.7-0.8,1.5-0.8,1.5h-0.9c0,0,2.3-2.6,2.4-3.4c0.1-0.8,0.1-4.4-0.4-5.1c-0.7-0.8-1.1-0.1-1.2,0.3
					c-0.1,0.7,0.4,2.7,0,3.5c-0.4,0.7-2.7,3.9-2.7,3.9l-0.7-0.3c0,0,1.1-1.5,1.2-2.4c0-0.9,0.4-3.9-0.7-4.8
					c-0.9-0.7-2.1-1.2-2.1-0.9c0,0.4,1.1,2,0.8,3.4c-0.3,1.5-0.4,2-0.7,2.6c-0.1,0.4-0.3,2.1-0.3,2.1h-1.1c0,0,0.7-2,0.4-2.8
					c-0.1-0.9-0.7-2.1-1.7-2.7c-1.1-0.7-2.3-0.8-2.4-0.3c0,0.4,1.2,2.3,1.5,2.8c0.1,0.7,0.3,2.3,0.1,2.7c-0.1,0.4-0.3,1.1-0.3,1.1
					l-0.7,0.1c0,0,0.1-0.8-0.7-2C355.3,243.8,353.4,243.6,353.4,243.6L353.4,243.6z M364.5,265.3l-1.6,1.2l1.6,2.3V265.3
					L364.5,265.3z M367.8,276c-2.3,2.3-0.4,5.3-0.1,7.4c0.3,2.3-0.3,3.2-0.3,3.2s2.3-1.1,2.8-2.3c0.7-1.1,0-1.5-0.1-2.8
					c-0.1-1.2,0.1-2.7,0.7-3.9c0.7-1.1,1.6-4.1,2-4.8C372.7,272.6,370.1,273.6,367.8,276L367.8,276z M350.6,292.5
					c1.1,0.7,5.9,1.6,8.2,0.7c2.7-1,5.3-4.1,5.6-5.1c0.1-1.1,0-1.6,0-1.6s-2.6,1.7-4.1,2.3c-1.6,0.4-4.8,1.2-5.6,1.8
					c-0.7,0.4-1.5,1.1-2.4,1.2C351.4,291.9,349.1,291.8,350.6,292.5L350.6,292.5z M349.8,296.1c0.3,0.1,1.8-1.5,1.1-1.8
					C350.2,294.1,349.4,296,349.8,296.1L349.8,296.1z M355.8,287.4c2,0,2.6-0.3,4.1-0.7c1.6-0.4,3.7-3.7,3.7-3.7s-0.3-0.1-1.5-0.4
					c-1.1-0.1-1.8,0.7-3.1,1.1c-1.2,0.4-2.1,1.8-3.5,1.8c-1.1,0-2.4,0.7-2.8,0.8c-0.1,0.1-0.1,0.1-0.1,0.1S354,287.4,355.8,287.4
					L355.8,287.4z M363.4,276.5c-0.3,0.7-0.1,1.5-0.8,1.8c-0.4,0.4-2.7,1.2-3.1,1.5c-0.3,0.1,0.3,0.4,1.7,0.8
					c1.2,0.3,4.4-0.4,4.7-2.1l0.3-1.5L363.4,276.5L363.4,276.5z M365.5,254.7l-0.3,0.3c0,0,1.1,1.6,1.8,2.6c0.4,0.9,2.6,3.1,2.6,5.6
					c-0.1,2.6-1.2,4.4-1.8,4.8c-0.4,0.3,1.5-0.3,1.8-0.8c0.1-0.4,2.3-4.4,0.7-6.5C368.5,258.2,365.5,254.7,365.5,254.7L365.5,254.7z
					 M358.7,256.3c-1.5-0.3-2.6-0.7-2.6-0.7l0.3-2.8c0,0,0.8-0.3,1.2-0.3c0.4-0.1,1.5-0.4,1.5-0.4l-0.4-0.9c0,0-0.8,0-1.6,0.4
					c-0.8,0.3-2.3,0.4-2.3,0.4l-0.3,5c0,0,2.3,0.1,3.5,0.3c1.1,0.1,2.8,0.8,2.8,0.8l0.3-0.8C361.2,257.2,360.4,256.5,358.7,256.3
					L358.7,256.3z M361.6,259.8c-0.7,0-0.8,0.8-0.1,0.8c0.4,0,0.7-0.7,0-0.7C361.4,260,362.2,260,361.6,259.8L361.6,259.8z
					 M359.9,263.1c0.7,0.4,0.8-1.5,0.3-1.5C359.6,261.7,359.4,262.7,359.9,263.1L359.9,263.1z M361.1,263.8
					c-0.4,0.3-0.7,1.7,0.4,0.9C362.7,264,361.4,263.4,361.1,263.8L361.1,263.8z M361.9,261.2c-0.4,1,0.1,2,1.2,1
					C364.2,261.4,362.2,260.7,361.9,261.2L361.9,261.2z M362.3,259.6c0,0.7,1.1,0.4,1.5,0C364.1,259,362.6,258.7,362.3,259.6
					L362.3,259.6z M363,258c0.8,0,1.1-1.5,0.1-1.2C361.6,256.8,362.1,258,363,258L363,258z M357,254l0.1,1.1c0,0,1.6,0.3,2.7,0.7
					c0.9,0.1,2.7-0.1,2.7-0.1s0.1-1.1,1.1-2.1c1.1-0.9,1.6-1.6,1.6-1.6l-1.1-1.5c0,0-2.4,1.6-3.1,1.8C360.5,252.2,357,254,357,254
					L357,254z M349.8,266.2c-0.1,0.4-1.1,2,0.9,3.5c2.3,1.5,3.5,1.5,3.8,0.7c0.4-0.8,0.4-2.4-0.4-2.8c-0.8-0.7-1.5-0.8-2.1-0.9
					C351.4,266.4,350.1,265.8,349.8,266.2L349.8,266.2z M384,267.8c0,0,1.5,2.1,2.3,3.4c0.8,1.5,1.5,1.6,1.8,2.8
					c0.1,1.1,1.5,3.4,2.1,4.4c0.8,0.9,2,2,2,2s0.4-4.8,0.1-5.6c-0.3-0.9-1.8-1.2-2.1-2c-0.3-0.7,0.3-0.9-0.9-2
					C388,269.7,384.3,267.7,384,267.8L384,267.8z M390.6,270.4c0.4,0.9,2.6,2.7,3.1,3.5c0.3,0.8,2.1,3.4,3.4,4.7
					c1.2,1.2,2,1.2,1.2-1.1c-0.8-2.4-2-4.8-3.2-5.6C393.7,270.8,390.6,270.4,390.6,270.4L390.6,270.4z M389.8,261.7
					c-0.4,0.3-0.1,3.8,0.9,4.7c1.1,0.7,3.4,1.5,4.1,2.1c0.9,0.7,2,1.8,2.6,2.7c0.4,0.9,0.4-1.6,0.1-2.6c-0.4-0.9-2.1-3.2-2.4-3.6
					c-0.4-0.7-0.7-0.8-1.8-1.1C392.3,263.4,390.6,261.4,389.8,261.7L389.8,261.7z M383.6,252.6c-0.1,0.3,1.2,1.5,2.4,2.8
					c1.1,1.5,3.7,3.5,5.3,4.1c1.5,0.7,3.8,1.5,5.8,1.1c1.5-0.1,2.7-1.1,1.5-1.2c-1.5-0.1-2.3-0.4-3.4-1.6c-1.2-1.2-1.2-2.3-3.4-2.8
					C389.7,254.2,383.7,252,383.6,252.6L383.6,252.6z M380.5,249.4c0.1,0.4,2.8,0,5,0.7c2.3,0.8,4.1,1.5,5.6,1.5
					c1.6,0,3.1,0,4.6-0.8c1.6-0.9,2.1-1.2,1.6-1.5c-0.3,0-2.8-0.3-4.1-0.8c-1.5-0.7-3.4-1.8-5.1-1.2c-2,0.4-5.3,0.8-6.2,1.5
					C380.8,249.1,380.5,249,380.5,249.4L380.5,249.4z M382,243.2c-0.1,0.7,0,1.8-0.1,2.3c-0.1,0.4-1.2,1.5-0.1,1.6
					c0.9,0.1,2.8-0.8,4.4-1.1c1.2-0.1,2.6,0,3.7-0.4c0.9-0.3,1.1-0.9,0-1.5c-0.9-0.4-1.2-1.2-2.8-1.2
					C385.3,242.7,382.1,242.4,382,243.2L382,243.2z M374.2,235.9c-1.1,0-1.6,0.9-2.3,1.6c-0.4,0.7-2,1.2-2.3,1.2
					c-0.1,0-0.1,1.2-0.1,1.2s0.3,1.6,0.1,1.7c0,0.3,1.1-0.3,1.8-0.7c0.4-0.1,1.8-1.2,2.1-2.3c0.1-0.9,1.5-1.2,1.6-0.7
					c0,0.7-0.7,2.1,0.1,2.3c0.7,0.3,2.1-0.8,2.3-1.2C377.5,238.8,375.2,235.9,374.2,235.9L374.2,235.9z M366.1,235.9
					c-1.1,2-0.4,2.3-0.4,2.3s0.8-1.1,1.2-1.2c0.7,0,0.9,1.2,0.9,1.2s1-0.7,1.5-1.5c0.3-0.7,1.1-3.4-0.1-3.6
					C368.5,232.7,367,234.1,366.1,235.9L366.1,235.9z M353.6,242.7c-0.4-0.3-4.4-2.1-4.7,0.1c-0.4,2.1,1.5,3.2,2.4,3.1
					c0.9-0.3,1.8-1.2,1.2-2.1C352.3,243.1,353.6,242.7,353.6,242.7L353.6,242.7z M354.6,240c-0.7-0.1-2.3-1-3.8-1
					c-1.7,0.1-3.1-0.1-4.8,3.4c-2,3.5,5.6,5,5.6,5s-3.1-1.8-3.7-2.6c-0.7-0.8-0.3-3.1,1.2-3.6c1.6-0.7,5.4,0.3,5.4,0.3
					S354.6,241.1,354.6,240L354.6,240z M363.2,232.7c-0.3,0.4,0.4,1.5,0.4,1.5s-0.7,0.7-0.8,1.6c0,1.1,0.7,1.5,0.7,1.5
					s1.5-3.2,2.8-4.4c1.5-0.9,2.4-2,3.5-1.6c1.2,0.4,1.6,2.3,1.5,2.8c-0.3,0.8-0.7,1.5-0.7,1.5s1.6-0.8,2-1.1
					c0.3-0.1,2.1,0.7,2.1-0.3c0-0.8-1.8-0.4-2-0.8c0-0.1,0-0.4-0.1-0.8c-0.1-0.4-0.3-1.1-0.3-1.1s1.5-0.7,0.8-1.6
					c-0.8-0.8-1.6,0.3-1.6,0.3l-1.5-0.4c0,0,1.1-1.7-0.1-2c-1.2,0-1.1,2-1.1,2l-2.3,0.7c0,0-0.7-1.5-1.2-1.1
					c-0.8,0.4,0.3,2.1,0.3,2.1l-1.2,1.5C364.3,232.7,363.7,232.2,363.2,232.7L363.2,232.7z M356,234.1c-0.9,0.4-1.6,2.3-0.8,3.5
					c0.8,1.2,2,1.2,3.2,0.7c1.2-0.8,1-2.3,0.4-2.8C358.5,234.7,357.2,233.5,356,234.1L356,234.1z M317.9,313.2c0,0-0.1,0.3-1.8,0.7
					c-1.8,0.1-3.4,0.9-4.1,2.6c-0.8,1.6,0.8,2.7,1.8,2.6c0.8-0.3,2.1-1.5,3.2-2.3c0.9-0.9,1.5-3.4,1.6-3.9L317.9,313.2L317.9,313.2z
					 M314.1,310.4c-1.5-0.7-2.4-2-2.4-2.3c-0.1-0.3-2.7,1.2-3.2,2.3c-0.4,1.1,2.4,3.9,3.8,3.5c1.2-0.4,5.3-2.7,5.3-2.7
					S315.4,310.8,314.1,310.4L314.1,310.4z M319.2,313.1c0,0-0.1,1.1-0.3,2.4c-0.3,1.2-2.1,1.7-1.6,3.6c0.4,1.7,2.3,0.7,3.4-0.1
					c1.1-0.9,1.5-2.8,0.4-3.8c-0.9-0.8-0.9-2.6-0.9-2.6L319.2,313.1L319.2,313.1z M322.6,311.6c1.1,0.3,2.1,0.8,4.1,0
					c2-0.8,2.3-3.1,1.7-3.9c-0.3-0.8-2.4-1.6-2.8-0.3c-0.4,1.1-4.8,3.9-4.8,3.9S321.5,311.3,322.6,311.6L322.6,311.6z M320.4,309.7
					v-1c0-0.3,0.4-0.8,0.7-0.3c0.3,0.7,0.4,1,0.4,1h0.3c0,0,0-2.6,0-3.1s1.1-0.7,1.1-0.3v1.1c0,0.4,0.1,1.2,0.8,0.8
					c0.7-0.4,1.2-1.2,1.6-2.1s-1.2-3.1-4.6-3.1c-3.2,0-1.2,6.2-0.9,7L320.4,309.7L320.4,309.7z M322,312.8c0,0.4,0.8,2.6,3.1,2.8
					c2.3,0.3,2.6-0.7,1.8-1c-0.8-0.3-3.2-1.5-3.6-1.8C322.7,312.5,322,312.3,322,312.8L322,312.8z M313.3,306.6
					c0-0.4,0.8-0.8,0.8-0.1c0,0.4-0.1,2.6-0.1,2.6s0.4,0,0.8-0.3c0.3-0.3,0.4-2,0.4-2.4c0-0.4,0.9,0.4,0.9,0.8v2.8
					c0,0,1.8,0,2.1-0.1c0.3-0.1,0.3-1.2,0.1-2c-0.3-0.8-1.6-3.2-3.9-3.4c-2.4-0.1-2.6,1.8-2.4,2.4
					C312.2,307.3,313.3,307,313.3,306.6L313.3,306.6z M296.7,313.6c0,0.3-0.1,1.2,0.8,1.1c0.9-0.1,2.1-0.7,2.1-0.7s0.1,0.8,0.7,0.8
					c0.7-0.1,1.2-0.8,1.2-0.8s-0.4,0.9,0.1,0.8c0.7,0,2.1-2,2.1-2s0.7,0.7,1.1,0c0.3-0.8,0.3-1.2,0.3-1.2s0.7,0.7,0.9,0
					c0.3-0.8,0-2.3,0-2.3s0.9-0.8,1.1-1c0.1-0.3-0.7-0.8-1.1-0.7c-0.4,0.3-4.4,2.8-5.1,3.4C300.1,311.6,296.7,313.6,296.7,313.6
					L296.7,313.6z M310.4,298l-0.8,1.1l0.9,2.4l-1.2,0.7c0,0-0.3-1.6-0.4-2.1c0-0.3-1.1,0.1-1.1,0.7c0.1,0.4,0.3,2.6,0.3,2.6h-1.2
					c0,0-0.1-0.9-0.1-1.2c0-0.4-0.9-0.3-1.1,0c0,0.3-0.1,1.6-0.1,1.6l-2,0.4l1.1-2h-1.7c0,0-2.6,2.7-2.7,3.2
					c-0.1,0.3,0.3,0.8,1.5,0.8c1.2,0,2.3-0.7,3.7-0.7c1.6,0,3.1,0,3.8-0.1c0.8-0.3,0.9-0.4,2-0.8c0.9-0.4,3.2-1.1,3.5-1.8
					c0.1-0.7-0.4-1.1-0.4-1.1s-0.1-0.9-0.7-1.2c-0.3-0.4,0.1-0.7-0.4-1.1c-0.8-0.7-1.5-0.8-1.5-0.9C311.3,298,310.4,298,310.4,298
					L310.4,298z M315.3,292.2c0.3-0.1,2.4-0.7,3.1-0.7c0.7-0.1,0,1.5-0.3,1.5c-0.4-0.1-3.8,0.7-3.8,0.7l-0.1,0.9
					c0,0,2.8,0.1,3.4,0.1c0.3,0-0.3,1.2-0.4,1.2c-0.3-0.1-3.8-0.1-3.8-0.1l-0.9,1.6c0,0,2.7,1.7,3.5,2c0.7,0.3,0.3,0.7,1.7,0.7
					c1.5,0,3.1-5,3.8-7c0.8-1.8,0.1-3.7-0.4-4.4c-0.7-0.4-2.4,1.5-3.1,2c-0.7,0.4-2.8,0.9-2.8,0.9l-0.8,0.9
					C313.8,292.9,314.9,292.4,315.3,292.2L315.3,292.2z M304.4,296.9c-0.7,0.7,0.3,2.1,1.2,1C306.4,296.8,304.9,296.3,304.4,296.9
					L304.4,296.9z M303.9,301.5c1.8,0.1,1.1-2.4,0.1-2.1C303.3,299.5,302.2,301.2,303.9,301.5L303.9,301.5z M306.4,298.5
					c-1.2,0.1-1.5,1.5-0.3,1.5C307.5,300,307.3,298.4,306.4,298.5L306.4,298.5z M307.3,298c0,1.7,2.3,0.8,2.1,0
					C309.2,297.1,307.5,296.3,307.3,298L307.3,298z M307.1,296.6c0.9,0.1,1.2-1.6,0-1.5C306,295.1,306.2,296.4,307.1,296.6
					L307.1,296.6z M309.5,295.1c-0.7,0.4,0,2.1,0.8,1.7C311.3,296.6,310.6,294.6,309.5,295.1L309.5,295.1z M304.5,294.6
					c-0.4,1,0.4,1.6,1.2,0.8C306.4,294.5,304.8,294.2,304.5,294.6L304.5,294.6z M289.9,297.2c0,0-0.4,0-0.3,0.4
					c0,0.3,3.2,0.9,3.2,0.9s-0.9,0.3-0.3,0.7c0.7,0.3,1.8,0.1,1.8,0.1s-0.4,1.2,0,1.2c0.3,0,2.4-2.1,2.8-2.7
					c0.4-0.4-0.7-1.1-1.5-1.1s-6.4-0.4-6.6-0.4L289.9,297.2L289.9,297.2z M299.4,294.1c-0.4,0.3-1,1-0.7,1.6c0.1,0.7,0.4,1.7,0,2.1
					c-0.3,0.3-2.3,2.4-2.4,3.1c-0.1,0.7-0.4,1.5,0.4,1.6c0.9,0.1,3.4-0.7,3.8-0.8c0.7-0.3,1.8-0.9,1.8-0.9s0-0.7,0.1-1
					c0.3-0.3,0.8-0.8,0.8-0.8s-0.4-0.4-0.4-0.9c0-0.4,0.3-0.8,0.3-0.8s-1.1-0.4-1.2-1.2c0-0.8,0.1-1.8,0.1-1.8L299.4,294.1
					L299.4,294.1z M302.9,296.1c0.8-0.1,0.8-2,0-1.8C302.1,294.4,302.2,296.1,302.9,296.1L302.9,296.1z M307.6,293.7
					c-0.3,0.7,0.8,1.6,1.2,0.7C309.4,293.6,308,293.1,307.6,293.7L307.6,293.7z M305.9,293c-0.3,0.7,0.1,1.6,1.1,0.8
					C308,293.1,306,292.2,305.9,293L305.9,293z M304.4,292.4c-1,0.4-0.4,1.6,0.3,1.1C305.5,293.1,304.8,292.1,304.4,292.4
					L304.4,292.4z M309.4,292.9c-0.1,1.2,1.6,1.6,1.6,0.3C311,291.3,309.5,292.2,309.4,292.9L309.4,292.9z M311,287.5l0.8-0.8
					l-0.1,2.8h0.4c0,0,0.3-1.1,0.3-1.5c0.1-0.3,0.3-2,0.3-2h1.5c0,0-1.1,2.8-1.2,3.4c-0.3,0.7,0.1,0.7,0.4,0.1
					c0.3-0.3,1.6-3.1,1.6-3.1l1.2,0.4c0,0-0.1,0.3-0.4,0.9c-0.1,0.7-1.8,2.3-1.8,2.3s0.1,0.4,0.7,0.3c0.3-0.3,2.4-2,3.8-2.7
					c1.6-0.9,1.1-1.6,0.7-2.3c-0.3-0.8-2-2-2.7-2.4c-0.8-0.4-2.4-0.9-4.6-0.3c-2,0.4-2.4,2.6-2.4,3.4s0.1,3.5,0.3,3.6
					c0.3,0.1,0.8-0.3,0.8-0.3L311,287.5L311,287.5z M307.5,289.9c0.7,0.4,0.8-1,1.1-2.6c0.1-1.6-0.8-2.1-2-2.6
					c-1.1-0.3-2.1,1.5-2.3,2c-0.1,0.3-2.1,0.9-3.4,2c-1.1,0.8-0.9,3.1-0.1,3.6c0.9,0.7,2.7-0.7,2.6-0.9c-0.1-0.3-1-0.4-1-0.4
					s0.8-0.8,1.5-0.4c0.7,0.3,1.2,1.2,1.8,1.5c0.7,0.1,1.2-0.8,1.1-1.1c-0.3-0.3-1.5-0.9-1.5-0.9s0-0.7,0.3-0.8
					C305.7,288.9,306.8,289.4,307.5,289.9L307.5,289.9z M307.5,292.5c1.1,0.4,2.1-1.1,1.1-1.6C308,290.7,306.3,292.1,307.5,292.5
					L307.5,292.5z M311.7,295.4c1.2,0.4,2-1.6,0.8-2C311.8,293.1,310.6,294.8,311.7,295.4L311.7,295.4z M311.1,290.9
					c-0.4,0.4,0.3,2.3,1.5,1.2C313.6,291.3,311.9,289.9,311.1,290.9L311.1,290.9z M299,282.5c-0.1,2.1,1.5,4.1,2.1,4.1
					c0.8-0.1,1.1-1.2,0.8-2.8c-0.3-1.5-1.5-5.6-1.5-6.5C300.4,277.3,299.1,280.4,299,282.5L299,282.5z M285.5,284.9c0.7,1.1,2,2,2,2
					s-0.1,0-0.1,0.4c0,0.4,1.1,0.7,1.1,0.7l-0.4,0.8l0.9,0.1c0.8,0.3,1.5,0.4,1.5,0.4l-1.5,0.9c0,0,0.3,0.3,1.2,0.4
					c1.1,0,2.4,0,2.4,0l-1.1,1.1c0,0,0.7,0.1,1.8,0c1.1-0.1,3.4-1.1,3.4-1.1s-0.9-1.5-2-2c-0.8-0.3-2.3-0.9-2.3-0.9
					s-0.1-0.3-0.7-0.7c-0.3-0.3-1.6-0.3-2.1-0.3c-0.4-0.1-1.5-0.7-2.3-1.6c-0.7-0.9-2.3-2.1-2.3-2.1S285,283.6,285.5,284.9
					L285.5,284.9z M321.1,286.5c0.3,0.7-0.4,1.1-0.4,1.1l1.8,0.7c0,0,1.1-0.7,1.8-1.1c0.7-0.3,4.4-1.1,5.6-0.9
					c1.5,0.1,6.3,2,8.9,2.3c2.6,0.1,3.8-2,3.8-4.4c0.1-2.3-1.5-5.8-5.3-6.6c-3.1-0.8-11,1.8-11.5,2c-0.4,0.1-1.5,2.8-2.7,4.1
					c-1.1,1.5-3.4,0.9-3.4,0.9S320.7,286,321.1,286.5L321.1,286.5z M307.5,268.5c0.9,0,5.1-0.1,6.1,1.1c1,1.5,1.1,3.1,0.7,5.4
					c-0.4,2.4,1.6,6.5,4.7,5.6c3.1-0.8,5.3-3.5,6.4-3.9c1.2-0.4,8.8-1.7,12-1.2c3.2,0.3,5.4,2.4,6.1,4.4c0.4,1.7,1.2,4.8,0.8,6.5
					c-0.7,1.6,1.6-0.4,1.8-1.8c0.1-1.1-0.8-7.8-3.8-9.6c-2.6-1.6-5.8-2.1-10.1-1.6c-4.1,0.4-6.5,0.8-7.7,1.6c-1,0.9-1.8,0.9-1.8,0.7
					c-0.1-0.3-0.4-3.2-0.9-4.5c-0.7-2-2.6-2.3-2.6-2.3s1.1,1.5,1.1,2.3c0.1,0.8,0.4,2,0.8,3.2c0.1,1.2,0.4,2.1,0.4,2.1l-1.2,0.3
					c0,0-0.7-2.1-1.2-5.1c-0.8-3.1-4.5-4.4-5.4-4.4c-1.7-0.3-5.8,1.1-5.8,1.1L307.5,268.5L307.5,268.5z M302.4,268.3
					c0,0.7-0.3,1.1,2,1.8c2.4,0.8,3.9,0.7,5.4,0.7c1.5-0.1,2.4,1.1,2.1,2.4c-0.3,1.1-0.8,3.9-0.7,4.7c0.3,0.7,1.5,2.6,1.5,2.6
					l0.9-0.4c0,0-1.7-2.8-1.2-4.6c0.4-1.6,0.4-4.5-0.3-5.1c-0.8-0.7-0.9-1.1-2.4-0.8c-1.5,0.1-3.1-0.1-4.7-0.4
					c-1.6-0.3-2.6-0.8-2.6-0.8l0,0L302.4,268.3L302.4,268.3z M321.9,301.2c2.8,2.7,7.3,0.7,10-1.2c2.8-1.8,7.5-3.7,7.5-3.7l0.3,1
					c0,0-4.1,2.7-5.4,3.5c-1.5,0.9-5,4.6-5.1,5.1c-0.3,0.8,3.1-1.2,4.5-2.3c1.2-0.9,8.8-4.4,8.8-4.4l0.8,1c0,0-6.6,3.8-8.9,5.4
					c-2.3,1.8-5.1,7.7-4.1,6.3c0.9-1.2,5.3-3.8,7.7-5.4c2.4-1.7,7.3-3.5,7.3-3.5l0.7,1.1c0,0-6.1,3.2-8.1,5
					c-2.1,1.6-4.6,5.3-3.8,4.8c0.4-0.4,4.7-2.8,6.2-3.8c1.6-0.9,7.4-2.7,7.4-2.7l0.1,0.9c0,0-6.2,4.6-7,5.1
					c-0.7,0.7-0.4,1.2,1.5,0.8c2.1-0.7,7.5-3.5,7.5-3.5l0.3,0.8l-3.4,3.1c0,0,4.8-0.8,6.2-1.1c1.5-0.4,8.8-2.6,8.8-2.6
					s-3.8-2.3-7-3.7c-3.2-1.5-7.7-9-9-13.9c-1.6-4.8-6.2-3.1-7-2.4c-0.8,0.7-6.6,6.1-7.3,6.5c-0.4,0.4-3.8,3.8-7.2,3.5
					c-3.2-0.3-2.4-6.2-2.4-6.2S318.8,298.4,321.9,301.2L321.9,301.2z M329.7,291.1c-3.1-0.9-4.4,1.1-5.8,3.6c-1.6,2.7,2,4.7,3.4,3.4
					c1.5-1.1,7.3-5.8,7.3-5.8S332.7,291.9,329.7,291.1L329.7,291.1z M334.8,290.1c0,0-1.8-1.6-3.1-2.1c-2.3-0.9-4.1-0.3-5.8,0
					c-1.6,0.1-3.7,2.4-3.7,2.4l0.1,3.4c0,0,1.8-3.1,4.6-4.4c1.8-0.8,6.3,0.7,7.5,0.9L334.8,290.1L334.8,290.1z M411.7,265l0.9,1.1
					l3.4-0.8l0.4-1.1L411.7,265L411.7,265z M412.5,261.4l4.4,1.6l0.7-0.9l-5.8-1.8L412.5,261.4L412.5,261.4z M410.8,258.7l7.7,2.6
					l0.7-0.9l-9.2-2.8L410.8,258.7L410.8,258.7z M418.5,258.2l1.2,0.4l0.8-7.8l-1.8-2.7L418.5,258.2L418.5,258.2z M421.2,257.5
					l0.9-1.1l0.4-3.2l-0.9-1.5L421.2,257.5L421.2,257.5z M421.2,238.1c1.1,0.3,1.2-1.1,0-1.5C420.5,236.4,419.8,237.8,421.2,238.1
					L421.2,238.1z M421.8,234.1c1.2,1.5,2.7,0.3,2-0.9C422.9,232,420.9,233.3,421.8,234.1L421.8,234.1z M424.7,232
					c0.9,1.6,2.4,0.3,2-0.7C426.4,230.3,424.1,230.4,424.7,232L424.7,232z M429.2,249c-0.9,0.4-0.3,3.4,2.7,1.7
					c2.8-1.6,7.8-4.8,17.3-5c12.3-0.1,18.4,4.8,18.4,4.8c0.8,0.3,2.4-1.2,0.7-2.4c-4.7-3.1-11.9-4.6-19.1-4.7
					C437.7,243.5,429.9,248.7,429.2,249L429.2,249z M428.2,230c0.1,1.6,2.3,1.1,2-0.1C429.7,228.6,428.1,229.1,428.2,230L428.2,230z
					 M432.9,229.7c-0.4,1.2,0.9,2,1.5,0.8C435,229.2,433.2,229.1,432.9,229.7L432.9,229.7z M438,233.8c-2.4-1.6-3.4-2-7.1-2
					c-3.7,0.1-7.8,3.9-7.5,7.8c0.4,3.9,7.3,7.3,7.3,7.3l0.8-0.4c0,0-3.8-2.7-4.7-4.8c-0.8-2.3-0.7-4.4,3.5-6.1
					c3.9-1.7,10.5,2.1,10.5,2.1l0.1-0.3L438,233.8L438,233.8z M441.1,243.1c0,0-2.8-6.4-6.6-5.6c-3.8,0.7-4.1,3.7-3.7,5
					c0.7,1.2,2.8,3.2,5.4,2.4C438.5,243.9,441.1,243.1,441.1,243.1L441.1,243.1z M438.1,228.9c0,0-1,2-1.1,2.7
					c-0.3,0.7,0.1,0.9,0.4,0.7c0.3-0.3,0.7-0.3,0.7-0.3s1.6-0.1,3.4,2.7c0.8,1.2,3.5,7.7,3.5,7.7h0.8c0,0-0.7-5.4-2.6-8.5
					C441.4,230.8,438.1,228.9,438.1,228.9L438.1,228.9z M446.8,234.9c-0.8,0-0.3,0.7-0.1,1.5c0.1,0.8,0.4,1.5,0.4,1.5l1.6-0.1
					c0,0,0.1,0.3,0.1-0.8s1.5-0.7,1.5-0.1c0,0.7,0,0.9,0,0.9l1.5,0.1c0,0,0.4-0.4,0.8-1.5c0.1-0.9,0.1-1.6-1.1-1.6
					C450.1,234.7,446.8,234.9,446.8,234.9L446.8,234.9z M452.3,242.2c0.4-1.5,0.4-3.4-3.1-3.4s-2.3,3.4-2.3,3.4
					S450.4,242.3,452.3,242.2L452.3,242.2z M463.2,244.3c2.7,0.9,4.8-0.7,4.7-3.9c-0.1-3.4-5-3.5-5.9-2.4c-0.9,0.9-3.5,4.7-3.5,4.7
					S460.5,243.5,463.2,244.3L463.2,244.3z M459.6,237.4c0,0,3.8-1.8,7.4-2.3c3.4-0.4,5.9,2.8,5,5.1c-0.9,2.4-5,5.4-5,5.4l1,0.7
					c0,0,4.6-3.1,5.4-4.4c0.9-1.1,3.2-5.4-0.4-8.8c-3.5-3.1-10-0.4-11.3,1.1c-0.9,0.9-2.3,2.6-2.3,2.6L459.6,237.4L459.6,237.4z
					 M476.4,236.5c0,1.2,2,1.1,2,0C478.2,235.3,476.4,235.8,476.4,236.5L476.4,236.5z M474.5,232.2c-0.8,0.4,0.4,2.3,1.2,1.5
					C476.6,232.6,475.2,231.6,474.5,232.2L474.5,232.2z M471.1,229.7c-0.8,0.8,0.1,2.3,1.1,1.1C473.2,229.9,471.7,229.2,471.1,229.7
					L471.1,229.7z M467,230.2c0.1,1.2,1.8,0.9,1.8-0.1C468.7,228.9,467,229.1,467,230.2L467,230.2z M463.2,231.1
					c0.3,1.1,1.8,0.7,1.8-0.3C464.7,229.9,463,230,463.2,231.1L463.2,231.1z M455.8,234.6c-2.1,3.4-2.3,7.7-2.3,7.7l0.8,0.1
					c0,0,2-5,2.6-6.1c0.9-2.3,4.1-4.5,4.1-4.5s0.1,0.3,0.4,0.7c0.3,0.3,0.4-0.1,0.4-0.1l-0.8-3.2
					C461.2,229.1,458.1,231.1,455.8,234.6L455.8,234.6z M445.9,233.5c0,0,7-0.1,7.1-0.1c0-2.4-2.1-2.8-3.5-2.8
					C446.3,230.4,445.9,233.5,445.9,233.5L445.9,233.5z M449.3,229.9c2.1,0,1.6-2.6-0.3-2.4C447.2,227.5,447.2,229.9,449.3,229.9
					L449.3,229.9z M451.6,228.9l3.4,1.2l0.1-4.7l-3.4,2.7L451.6,228.9L451.6,228.9z M443.4,229.7l3.5-1.1v-0.8l-3.2-2.6L443.4,229.7
					L443.4,229.7z M447.6,226.4c0,0,0.9-0.4,1.6-0.4c0.7,0.1,1.2,0.7,1.2,0.7l2.9-3.2l-8.4-0.7L447.6,226.4L447.6,226.4z
					 M485.8,307.4c0,0,1.1-0.1,1.2,0.3c0.3,0.7,1.2,3.5,1.6,4.7s-1.8,1.2-1.8,1.2l0.2,0.7l4.7-1.6l-0.3-0.4c0,0-1.1,0.4-1.5-0.4
					c-0.4-0.8-1.1-3.6-1.1-3.6l4.6,4.4h1.1l2-5.4c0,0,0.7,2.8,0.7,4.1c0,1.3-1,0.8-1,0.8l0.3,0.8h2.3c0.8,0,3.5,0.3,3.5,0.3L502,313
					c0,0-1.5-0.7-1.8-1.5c-0.3-0.9-0.7-3.6-0.8-4.4c0-0.7,2-0.7,2-0.7l-0.1-0.7l-5-0.3l-1.8,3.8l-3.8-3.4l-4.6,1.1L485.8,307.4
					L485.8,307.4z M501.4,309.4c0,0.8,2,5.4,5.7,5.6c3.5,0.3,3.8-1.1,3.8-2c0.1-0.7,0-1.5-0.7-3.1c-0.8-1.6-3.7-2.8-4.4-3.1
					C501.6,306.1,501.4,308.4,501.4,309.4L501.4,309.4z M504.9,308.9c0,0.7,0.1,2.3,0.4,3.2c0.1,0.9,0.4,1.8,1.2,2.1
					c0.8,0.1,1.2,0,1.1-0.8c-0.1-0.8-0.3-3.1-0.4-3.6c0-0.7-0.8-1.8-1.6-2C505.1,307.7,504.9,308.4,504.9,308.9L504.9,308.9z
					 M510.1,308.2v0.7c0,0,1.2,0.9,1.6,1.6c0.2,0.8,0.7,2.8,0.7,3.9c0.1,1.2-1.5,0.8-1.5,0.8v0.4l5.1,1.6v-0.7c0,0-0.9-0.3-0.9-0.8
					c0-0.7-0.4-3.9-0.4-3.9l5.3,7l2.7,0.8c0,0-1.1-6.1-1.1-6.5c0-0.3,1.8,0.3,1.8,0.3v-0.7l-5.4-1.7l0.1,0.7c0,0,0.9,0.9,1.2,1.2
					c0.1,0.3,0.4,3.5,0.4,3.5l-4.1-6.1l-5-1.6L510.1,308.2L510.1,308.2z M523,317l2.4,2.8l1.2-2.1l-2.1-2.6L523,317L523,317z
					 M543.1,317.9l0.8,2.6c0,0,1.8,0.4,2.3,0.4c0.4,0,1-0.7,0.7-1.2c-0.3-0.8-0.7-1.2-1.6-1.5C544.1,317.9,543.1,317.9,543.1,317.9
					L543.1,317.9z M525.6,313.9c0,0,1.2,0.4,1.5,1.1c0.1,0.7,0.8,4.6,0.9,5.3c0,0.8-1.6,0.1-1.6,0.1l0.1,0.7c0,0,7.4,2,8.6,1.8
					c1.5,0,2.8-1.1,2.8-1.6c0-0.4-0.3-2.7-0.4-2.8c0-0.1-1.5-2.6-3.4-2.8c-1.6-0.3-7.5-2-8.8-2.3c-0.1,0-0.3-0.1-0.3-0.1
					L525.6,313.9L525.6,313.9z M537.4,316.4c0,0,1.1,0.4,1.2,1.1c0.3,0.7,1.6,5,1.8,5.6c0.3,0.7-1.1,0.1-1.1,0.1v0.4l6.5,1.1
					l-0.1-0.3c0,0-1.2-0.4-1.2-0.8c-0.1-0.3-0.7-2-0.7-2s1.6,0.7,2.6,1.2c0.8,0.7,1.5,2.6,2,2.6c0.4,0,4.7,0.7,4.7,0.7l-0.1-0.4
					c0,0-0.7-0.1-1.5-0.7c-0.7-0.7-1.1-1.7-1.5-2.4c-0.3-0.4-1.5-1.1-1.5-1.1s1.8-1.5,1.5-2c-0.1-0.4,0-1.2-2.1-2
					c-2-0.4-10.9-2.3-10.9-2.3L537.4,316.4L537.4,316.4z M554.2,321c0.3,0.8,1.7,2.9,2.1,3.7c0.3,0.9,1.8,1.7,2.3,1.7
					c1.6-0.1,1.5-0.3,1.1-1.2c-0.4-1.1-1.1-2.6-1.8-3.6c-0.7-1.1-1.2-1.2-2.3-1.5C555.7,319.9,554,319.9,554.2,321L554.2,321z
					 M551.4,322.2c1.2,3.5,4.8,5,8.2,5c3.4,0,3.9-1.6,3.8-2.4c-0.3-0.8,0-0.9-1.1-3.1c-1.2-2-5-2.6-7-2.6
					C551,319.1,550.9,321,551.4,322.2L551.4,322.2z M585.6,310.4c0,0-2.3,1.6-3.5,2.3c-1.2,0.7-3.5,2-3.5,2s3.2,2.4,4.6,3.2
					c1.1,0.8,3.9,3.8,3.9,3.8l0.4-0.3c0,0-1.1-2.1-1.8-3.1c-0.7-1.1-2.4-2.8-2.4-2.8s3.7,1.2,4.7,1.5c0.9,0,2.6,0,2.6,0
					s-0.4-0.3-1.2-1.1c-0.9-0.8-4.7-3.4-4.7-3.4l1.5-1.5L585.6,310.4L585.6,310.4z M589.1,301.5c0,0-0.9,5.9-1.5,8.2
					c-0.3,2.3-0.7,3.4-0.7,3.4s2,0.3,3.1,0.9c1.2,0.8,4.1,2.1,4.1,2.1l-0.7-2l-2.8-1.8c0,0,3.8-3.1,5.7-4.7c1.6-1.8,2.3-3.7,2.3-3.7
					s-5.6,2.3-6.2,2.8c-0.8,0.4-1.8,1.1-1.8,1.1L589.1,301.5L589.1,301.5z M581.2,298.4l-0.3,0.3c0,0-1.8,3.7-2.3,5
					c-0.4,1.1-2.6,3.4-2.6,3.4s-0.7-0.7-0.9-1.1c-0.3-0.7-2-1.6-2-1.6s0.7,2.1,0.8,3.6c0.1,1.8,0.9,4.7,0.9,4.7s3.9-0.8,6.5-2.1
					c2.7-1.5,5.1-4.4,5.1-4.4s-1.1-0.3-2.3-0.3c-0.9,0-3.5,0.3-3.5,0.3s0.4-1.5,0.4-3.4V299L581.2,298.4L581.2,298.4z M577.1,285.2
					c-0.8,0.3-0.9,1.1-1.1,2.3c-0.1,1.2,0,2.6-0.3,3.4c-0.3,0.9-1.5,3.4-1.5,3.4l2,0.4c0,0,1.6-2.6,2.1-3.5c0.4-0.8,0.7-1.6,0.7-1.6
					l0.8,0.4c0,0-0.8,1.8-1.1,2.4c-0.3,0.4-1.1,2.3-1.1,2.3l0.9,0.1c0,0,1.1-1.2,1.6-2.1c0.3-0.7,1.5-2.4,1.5-2.4l0.9,0.3
					c0,0-1.1,2-1.6,2.6c-0.3,0.7-1.1,2.6-1.1,2.6l0.7,0.4c0,0,2-2,2.6-2.8s1.1-2.1,1.1-2.1l0.9,0.3c0,0-0.4,2.1-1.1,2.7
					c-0.7,0.7-1.1,2.7-1.1,2.7h0.7c0,0,1.7-1.8,2.3-2.3c0.4-0.4,0.8-1.6,0.8-1.6l1.5,0.8c0,0-0.8,1-1.1,1.5
					c-0.4,0.4-2.7,2.6-2.7,2.6l0.9,0.7c0,0,2-1.2,2.6-2c0.7-0.4,1.6-1.6,1.6-1.6l0.8,1.6c0,0-1.6,0.9-2,1.2
					c-0.4,0.3-1.2,1.6-1.2,1.6l1.5,0.4c0,0,1.5-1.8,2.6-2.3c1.2-0.4,1.8-1.7,1-2c-0.7-0.3,0.3-0.9,0.3-1.7c-0.1-0.8-0.9-1.1-2-1.1
					c-0.8,0,0.4-1.8-0.7-2.3c-1.1-0.3-2.1-0.1-2.4,0c-0.4,0,0-1.6-0.7-2.1c-0.8-0.3-2.6,0-2.6,0s-0.1-2-1.1-2
					c-0.8,0-2.4,0.7-2.4,0.7S579,284.5,577.1,285.2L577.1,285.2z M569.7,299.2l-0.3,2.4l0.4,0.9l1.2-2.3l1.2,0.7l-1.2,2.7l2-1.6h2.6
					c0,0,0-0.4,0.4-1c0.3-0.4,1.1-1.5,1.1-1.5l1.1,0.4c0,0,1.1,0.3,0.7-0.4c-0.3-0.9-2.8-2.6-5.9-3.2c-3.2-0.4-5.9,2.7-5.9,2.7h2.5
					L569.7,299.2L569.7,299.2z M596.4,311.2c-1.6,1.1-1,1.5-0.4,1.5c0.4,0.1,7.5,3.5,8.1,3.8c0.7,0.3,1.8-0.9,1.1-1.2
					c-0.7-0.3-5.3-3.4-5.3-3.4s2.3-1.7,3.1-2.3c0.8-0.7,2.4-2.6,2.4-3.1C605.2,306.6,598.2,310.2,596.4,311.2L596.4,311.2z
					 M595.2,293.3c0,0,0,2.7,0.8,2.4c0.7-0.1,2.8-2,3.8-2.3c1.1-0.1,4.6-1.5,4.6-1.5s-2.8,0.1-4.6,0.3
					C598.3,292.4,595.2,293.3,595.2,293.3L595.2,293.3z M588.1,286.2c0.1,0.7,1.6,3.2,2.6,4.4s1.8,1.7,2.7,1.7
					c0.9,0,4.6-2.6,5.3-3.1c0.7-0.4,3.5-1.6,3.1-1.6c-0.3,0-5.6,0.3-5.6,0.3s1.2-2.4,1.6-3.8c0.1-1.2,0.9-4.8,0.9-4.8
					s-1.6,1.6-2.3,2.8c-0.4,1.1-3.2,5.3-3.2,5.3l-5.3-3.1C587.9,284.5,588.1,285.4,588.1,286.2L588.1,286.2z M483.9,265.3l2.8-0.3
					l1.1-0.9h-4.7L483.9,265.3L483.9,265.3z M481.5,261.5l0.8,1l6.3,0.8l1.1-1.2L481.5,261.5L481.5,261.5z M483.7,259.1l-0.3,0.8
					l3.4-0.7l1.2-2L483.7,259.1L483.7,259.1z M490.1,253.6l-6.6,3.7v0.8l5.4-2.4L490.1,253.6L490.1,253.6z M478.7,250.4l-1.2,1.1
					l0.1,3.4l0.9,0.8L478.7,250.4L478.7,250.4z M480.7,247l-1.1,1.6l0.9,11.7l0.9-1.6L480.7,247L480.7,247z M500.4,263.3
					c-0.3,0.8-0.3,2.1-1.8,2.7c-1.2,0.7-3.2,1.1-3.7,1.6c-0.4,0.7-0.9,0.9-1.1,2c-0.3,0.8,0.3,0.4,0.9,0.1c0.8-0.4,3.1-0.7,4.1-0.7
					c1,0,2.7-0.1,3.4-1.5c0.7-1.1,0.4-2,0.8-2.7c0.3-0.8,0.8-2,0.8-2L500.4,263.3L500.4,263.3z M497.3,259c0.3,0.8,1.1,1.8,1.5,2.4
					c0.3,0.4,0.8,1.2,1.8,0c1.1-1.1,2.7-0.8,3.6-0.8c0.9,0,2,0.1,2-0.4c0-0.4-1.5-1.1-2.3-1.5c-0.8-0.4-1.5-0.1-2.1,0
					c-0.7,0.3-2.6,1.1-2.8,0.8c-0.3-0.4-1.1-1.8-1.5-1.8C497.4,257.7,497,258.3,497.3,259L497.3,259z M567.3,283.3
					c-0.1,0.4-0.3,2,0,2.6c0.3,0.4,0.9,5,0.9,5.9c0,0.9-0.7,2,0.4,2s2.6-0.4,2.8-0.9c0.3-0.3,0.1-2.1-0.3-3.2s-1.5-4.1-2.1-4.8
					c-0.7-0.4-0.7-0.3-1.1-0.8C567.9,283.3,567.3,283.3,567.3,283.3L567.3,283.3z M548.2,291.1c0.1,0.3,0,0.8,0.9,0.4
					c0.9-0.3,2.8-1.6,2.8-1.6s0.8,2.4,2.4,2.4c1.6,0.1,5.8-0.4,5.8-0.4v1c0,0-2.8,1.5-3.2,2c-0.4,0.7-1,2.1,0,1.7
					c0.9-0.3,3.4-1.5,3.4-1.5l0.1,1.1c0,0-2.4,1.8-2.7,2.3c-0.3,0.4-0.1,1.2,0.7,1.1c0.9-0.3,2.8-0.1,2.8-0.1l0.4,1.5
					c0,0-1.8,0.9-2.3,1.2c-0.3,0.3-0.1,1.5,0.8,1.2c1.1,0,2,0,2,0l0.4,2.1c0,0-1.5,0.7-2,0.9c-0.4,0.3-0.4,1.1,0.4,1.2
					c0.9,0,2.4,0.4,2.4,0.4l0.4,1.5c0,0-0.7,0.4-1.5,0.9c-0.7,0.3-0.7,1.2,0.4,1.2s2,0,2.3,0.3c0.3,0.3,0.7,1.1,0.1,1.1
					c-0.4,0-0.9,0.1-1.5,0.3c-0.4,0.1-1.2,1.8,0.4,2.1c1.8,0.3,4.6-0.7,4.6-0.7l0.4,1c0,0-2,0.9-2.4,1.2c-0.4,0.3-0.8,1.2,0.8,2.8
					c1.8,1.8,3.9,3.7,5.3,3.8h1.2c0,0-1.1-2.6-1.5-3.2c-0.3-0.7-0.9-2.4-1.2-3.2c-0.1-0.7,0.7-0.4,0.8-0.1c0.3,0.3,3.1,4.4,3.8,4.7
					c0.7,0.4,1.1,0.3,0.7-0.9c-0.4-1.2-3.5-6.2-3.9-7.2c-0.4-0.8-0.8-2.4-0.8-2.4s-2.3-1.6-2.7-2.4c-0.4-0.8-4.4-8.8-4.8-11
					c-0.7-2.3-1.7-9.8-3.1-10.2c-1.1-0.4-3.9-2.7-6.6-1.7c-2.6,0.9-4.7,2.4-5,2.7c-0.4,0.4-0.4,1.1-0.9,1.1
					C548.8,290.2,548.2,291.1,548.2,291.1L548.2,291.1z M553.7,308.9c-0.4,0.7-1.5,1.2-2.1,2.3c-0.8,0.9-0.4,2.4,0.1,3.4
					c0.7,1.1,1.2,0.8,1.6,0.7c0.3-0.1,0.9-0.7,0.8-0.9c-0.1-0.4-0.4-1.1-0.7-1.7c-0.1-0.9,0.4-1.7,0.8-2.1c0.4-0.4,0.7-0.7,0.8-0.9
					C555.2,309.4,554.5,308.2,553.7,308.9L553.7,308.9z M558.7,313.4c-0.1-0.8-1.5-0.3-1.1,0.3c0.3,0.8,0.1,1.1,0.7,1.6
					c0.3,0.4,1.6,0.7,1.2-0.3C559.2,314.2,558.7,313.4,558.7,313.4L558.7,313.4z M552.4,305.7c0.1,0.4,1.6,0,1.6,0s1.6,2.6,2,3.4
					s-0.1,2-0.9,2.4c-0.8,0.3,0,1.1,0.7,0.8c0.7-0.3,1.6-1.1,2.1-1.2c0.4-0.3,0.4-1.5,0-2.7c-0.7-1.5-1.8-3.8-2.1-4.1
					c-0.3-0.1-0.8-0.4-1.6,0c-0.8,0.3-1.7,0.8-1.7,0.8v0.6H552.4z M549,301c-0.7,0.1-1.1,0.8-1.8,1.5c-0.7,0.7,0.1,2.3,0.7,4.5
					c0.7,2.3,1.2,2.6,2.1,2.4c0.8-0.3,2.6-0.9,3.1-1.1c0.4-0.1-0.1-0.8-0.1-0.8s-0.4-0.1-1.1-0.3c-0.7-0.1-1.1-0.4-1.2-1
					c-0.1-0.3-1.2-3.6-1.2-3.8c0-0.1,0-0.4,0.1-0.4c0.3,0,1.2-0.7,1.2-0.7s0.1-0.1,0.1-0.3c0-0.1-0.3-0.4-0.3-0.4
					S549.6,300.6,549,301L549,301z M546.3,296.8c0.1,0.3,0.7,0.1,0.7,0.1s1.8-0.7,2-0.7c0.1,0,0.4-0.1,0.7,0.1
					c0.1,0.3,2.4,4.8,2.4,5c0.1,0.1,0.1,0.7,0,0.7s-1,0.4-1,0.4l0.3,0.7c0,0,0.7-0.3,1.2-0.4c0.7-0.1,0.9-1.2,0.8-2.1
					c-0.3-0.8-1.1-3.4-2-4.7c-0.8-1.2-2-0.9-2.4-0.8c-0.7,0.3-2.6,0.9-2.6,0.9S546.1,296.4,546.3,296.8L546.3,296.8z M547.7,294.5
					c0.4-0.1,0.4-2.3-1.1-2.4c-1.6,0-4.7,0.7-4.7,3.2c0,2.7,0.9,3.8,2.3,4.1c3.1,0.7,3.2-0.8,3.2-0.8s-2.8-0.4-2.8-2.6
					c0-2.1,0.9-2.1,2.1-2.3C547.5,293.8,547.7,294.5,547.7,294.5L547.7,294.5z M536.6,296.8c0,0-0.8,2.3-1.1,2.7
					c-0.3,0.7-1.1,2.7-1.1,2.7l1.2,0.3c0,0,1-2.1,1.1-2.7c0.1-0.4,0.7-2.7,0.7-2.7L536.6,296.8L536.6,296.8z M532.2,297.2
					c-0.3,0.8-2,3.2-2,3.2l2,0.8c0,0,0.8-1.8,1.1-2.1c0.1-0.3,1.6-4.4,1.6-4.4l-1.1-1.1C533.8,293.7,532.5,296.4,532.2,297.2
					L532.2,297.2z M528.8,294.2c-0.4,0.9-2,3.9-2,3.9l1.1,0.8c0,0,1.2-2.1,1.8-3.1c0.7-1.1,1.7-3.8,1.7-3.8l-1.2-0.9
					C530.3,291.1,529.2,293.3,528.8,294.2L528.8,294.2z M505.2,297.2l1.1,0.4l-5.8,2.7l1.5,0.3l5.1-2.1l0.7,0.4l-3.7,2l1.6,0.4
					l3.2-1.8l0.3,0.7l-2.1,1.2l0.9,0.8l2.1-1.1l0.3,0.7c0,0-1.2,0.9-0.8,1.1c0.4,0.1,20.9,6.3,22.1,6.5c1.2,0.1,3.4-0.4,3.4-0.4
					c0.7-0.1,2-0.4,2.3-0.4c0.3,0,1.5,0.7,2,1c0.3,0.1,0.1,0.7-0.3,0.9c-0.4,0.4-2,0.7-2,0.7s0,0.7,0.7,0.9c0.7,0.3,2.7,0.9,3.1,0.9
					s1.2-0.3,1.6-0.7c0.4-0.3,2.3-1.1,2.8-2.1c0.8-0.8-1.2-4.1-2.3-5.3c-0.9-1.1-2.1-1.5-2.6-1.5c-0.7,0-2.1,0.7-3.1,1.1
					c-0.8,0.3-2.7,0-3.8-0.1c-1.1,0-6.5-2.1-7.1-2.3c-0.4-0.1-2-0.7-2.8-1.6c-0.9-1.1-2.1-2.1-4.1-2.6c-2-0.4-5.6,2.1-5.6,2.1
					s-0.9-0.4-1.1-0.7c-0.3-0.3-0.9-1.1-0.9-1.1s0.7-0.1,1.7-0.9c1.1-0.7,1.1-1.5,1.2-2c0.1-0.4-0.3-1.5-0.3-1.5l1.5-0.8
					c0,0-0.1,0.9-0.1,1.2c0,0.3,0.1,2.4,0.1,2.4h0.8c0,0,0.1-1,0.3-1.2c0-0.3,0.1-0.9,0.1-1.5c0-0.4-0.3-1.5-0.3-1.5l1.6-0.8
					c0,0,0,0.4,0.1,0.7c0.1,0.1,0.3,0.7,0.4,1.1c0.3,0.7,0.3,2.7,0.3,2.7l0.7-0.1c0,0,0.1-0.7,0.3-1.1c0.1-0.4,0-1.6-0.1-2
					c-0.1-0.4-0.4-2-0.4-2l0.9-0.8c0,0,1,0.4,1,0.7c0.1,0.1,0.4,1,0.4,1.8c0,0.7-0.3,3.1-0.3,3.1h1.1c0,0,0-0.1,0.1-0.7
					c0-0.3,0.3-2.8,0.3-2.8s0.4,0.1,0.8,0.3c0.1,0.1,1.1,0.9,1.1,0.9s0,0.4-0.1,1.1c-0.3,0.7-0.8,1.7-0.8,1.7l0.8,0.7
					c0,0,0.7-1.2,0.9-2c0.4-0.7,1.8-3.2,2.1-3.7c0.1-0.4,0.8-1.6,0.8-1.6l-0.7-0.7c0,0-0.4,0.3-0.7,0.7c-0.1,0.3-0.7,0.9-0.7,0.9
					l-0.3-0.3l0.8-2.3l-0.8-0.8l-1.1,2.3l-0.4-0.3c0,0-0.1-0.4,0-1c0-0.3,0.3-2.4,0.3-2.4l-0.9-0.4c0,0-0.3,0.7-0.4,1.1
					c0,0.3-0.7,2.1-0.7,2.1l-0.4-0.3c0,0,0-1.1,0.1-1.6s0.4-1.7,0.4-1.7l-1.1-0.3c0,0-0.4,1.8-0.8,2.1c-0.1,0.1-0.3,1.1-0.3,1.1
					l-0.4-0.4l0.4-2.7h-1.5l-0.1,2.6c0,0-0.8,0-1.1,0.1c-0.4,0.1-1.6,0.9-1.6,0.9l-3.8-0.3v2.6c0,0-1.5,0.8-2.1,1.2
					c-0.7,0.4-3.8,2.3-3.8,2.3l-2-0.7c0,0-0.3,1.2-1.2,2.3c-0.9,0.8-5.4,2.4-6.1,2.7c-0.4,0.3-1.8,1.1-1.8,1.1l2,0.1L505.2,297.2
					L505.2,297.2z M503.8,289.5c0,0.4,0.8,2.4,1.8,2.8c0.8,0.4,0.7,0.9,3.4-0.8c2.7-1.6,3.5-2.1,2.7-3.9c-0.8-1.5-1.7-1.5-1.7-1.5
					s0.1,0.4,0.3,1.1c0.3,0.4-0.7,1.5-1.8,2c-0.9,0.7-2.4,1.6-3.1,1.2C504.8,290.2,503.8,289.5,503.8,289.5L503.8,289.5z
					 M495.9,291.9c-0.4,0.1-0.3,4.7,1.5,4.7c2,0.1,5-0.7,5.8-1.5c0.9-0.7,1.5-2.6,0.7-3.6c-0.8-1.2-1.8-1.1-1.8-1.1s0.3,0.7,0.4,1.1
					c0.1,0.3,1.1,1.6-1.8,2.4c-2.7,0.8-3.5,0.4-3.8-0.1C496.5,293.3,496.2,291.8,495.9,291.9L495.9,291.9z M494,293.3
					c0,0.7-0.4,2.3-2.1,2.7c-1.6,0.4-2.4,0.7-2.8,0.7c-0.4,0.1-0.7,2.7-0.4,3.4c0.4,0.9,2.1,0,3.4-0.7c1.2-0.4,3.1-1.6,2.8-3.8
					C494.7,293.3,494,293.3,494,293.3L494,293.3z M512.1,284.7l-0.7,0.7c0,0,0.7,0.8,2,1.6c1.2,0.8,3.4,0.4,3.8-0.7
					c0.4-1.1,0.9-2.1,1.1-3.5c0-1.5-1.2-1.6-1.8-0.8c-0.4,0.9-2.8,3.5-2.8,3.5L512.1,284.7L512.1,284.7z M500.8,290.7l-0.4-0.9
					c0,0,0-0.7,0.4-1.1c0.7-0.3,2-0.9,2.6-1.1c0.8-0.3,1.1-0.4,1.1,0c0.1,0.3,0.8,0.9,0.8,0.9l1.2-0.3c0,0-0.9-1.5-1.5-2.1
					c-0.4-0.7-1.6-0.9-2.3-0.8c-0.7,0-2.1,0.4-3.6,1.8c-1.6,1.2,0.7,3.9,0.7,3.9L500.8,290.7L500.8,290.7z M491.2,293.6
					c0-0.3-0.7-1.2,0.1-1.8c1-0.7,3.9-1.6,5-1.6c0.8-0.1,1.5,2.1,1.5,2.1l0.8-0.1c0,0-0.8-2-1.6-3.2c-0.9-1.2-4.4-0.8-5.4-0.1
					c-1.1,0.4-2.1,2-2.1,2.7c0,0.8,1.2,3.5,1.2,3.5l0.8-0.3C491.5,294.6,491.3,293.8,491.2,293.6L491.2,293.6z M513,283.3
					c0-0.1,0-0.1,0-0.3c-0.3-0.9-1.2-2.6-3.7-1.6c-2.7,0.9-3.2,2.6-2.9,3.7c0.1,1.2,1,2.7,1,2.7l0.8-0.3c0,0-1.1-2.1,0.1-3.1
					c1.2-0.9,1.7-1.5,2.7-1.6c0.8,0,1.6,0.8,1.6,0.8L513,283.3L513,283.3z M504.4,281.2l-1.1,2.1h1.8l1.1-2.3L504.4,281.2
					L504.4,281.2z M499.2,280.5l-1.5,5.1l3.1-1.5c0,0,1.2-2.6,1.5-3.1c0.1-0.3-0.3-0.7-0.8-0.7C500.8,280.5,499.2,280.5,499.2,280.5
					L499.2,280.5z M493.9,279.2c0,0.4,0,5.9-0.1,6.3l-0.1,0.7l2.3-0.1c0,0,1.6-5.1,1.6-5.4c0-0.3-1-0.9-1.5-1.1
					C495.3,279.5,493.9,279.2,493.9,279.2L493.9,279.2z M489.2,277.3c0,1.2,0.4,9.6,0.4,9.6l1.6-0.3v-8.2L489.2,277.3L489.2,277.3z
					 M545.5,287.5l-5,1.2l-1.2-1.1l1.5-4.1l-1.6-0.7l-4.7,1.1l-0.9-0.8l1.1-4.4l-1.7-1.2l-4.6,2.7l-1.5-0.3l-0.7-5.9l-1.2-0.3
					c0,0-1.6,0.9-2.1,1.5c-0.4,0.3-2.6,1.5-2.6,1.5l-0.9-0.7c0,0,0.1-1.7,0.3-2.4c0.1-0.7,0.1-2,0.1-2l-1.6-1.1c0,0-2.4,2.4-2.8,3.1
					c-0.3,0.7-2.6,1.5-2.7,0.9c0-0.3-3.5-5-3.5-5v3.4v4.8l1.1-3.1l0.8,1.1l-0.1,3.1c0,0,0.1-0.8,0.1-1.1c0.1-0.4,0.4-1.2,0.4-1.2
					l1.1,0.7l-0.1,1.8c0,0,0.4-0.4,0.7-0.8c0.1-0.3,0.1-1.1,0.1-1.1l1.2-0.3c0,0-0.1,1.2,0.1,1.1c0.1-0.3,2.1-1,2.1-1l0.4,1.1
					c0,0-2.8,0.7-3.5,2.8c-0.3,1.5,1.1,1.7,1.1,1.7s-0.1-3.4,3.2-2.8c2.7,0.4,1.1,3.4,1.1,3.4s-0.8,0.9,0,0.8c0.8-0.1,2-0.8,2-1.6
					V280c0,0,1.8,0,2,0.8c0.1,0.8,0.1,2.1,1.2,2.6c1.1,0.4,4.4,2,5.6,2.8c1.1,0.9,4.8,3.5,4.8,3.5l2.4-2l0.4,0.8l-2,1.6l0.4,0.4
					c0,0,1.1-0.9,1.5-1.1c0.4-0.1,1.5-0.7,1.1-0.1c-0.1,0.4-1.1,2-1.1,2l0.9,0.3l1.2-1.1l0.9,0.3l-1.6,2.1l1.6,0.9l1-1.6h0.4
					c0,0,0.4-0.7,1.2-1.5c0.7-0.8,2.3-2,3.1-2.8L545.5,287.5L545.5,287.5z M503.6,249.7c-0.3,0.7-0.9,2.1-1.6,2.4
					c-0.4,0.4-3.2,0.4-3.8,0.4c-0.7,0-1.2,0.4-1.1,1.6c0.1,1.1,0.7,2.1,1.7,2.6c0.9,0.4,2,0.3,3.1,0.1c1.1-0.3,2,0.3,2.6,0
					c0.4-0.3,1.1-0.7,1.6-1.1c0.3-0.4,1.1,0.3,1.1,1.1c0,0.7-0.1,1.1-0.1,1.5c0,0.4,0.1,0.9,0.8,0.8c0.8-0.1,1.6-2.1,1.6-2.1
					s0.1,1.7,0,2.4c-0.3,0.8-1.1,0.9-1.1,1.5c0,0.4,0.4,0.4,1.2,0.3c0.8-0.1,1.1-1.8,1.1-2.6c0.1-0.9-0.1-5.1-0.1-5.1l1.5-0.3
					c0,0,0.7,1.1,0.7,1.8c0.1,0.8,0.1,2.7,0.1,2.7s0.8-0.7,1.2-2c0.7-1.2,0.4-2,0.4-2l1.1,0.3c0,0-0.4,3.9-0.1,5
					c0.4,0.8,3.1,3.1,5.9,3.1c2.8-0.1,5.3-0.4,6.5-2.3c1.2-2,1.8-3.1,1.8-3.1l1.5,0.7c0,0-1.8,3.4-3.2,4.6c-1.6,0.9-5.9,1.8-7.3,2
					c-1.1,0-0.3,1.1,0,1.1c0.3,0,4.6,0.7,6.4-0.8c2-1.6,5.3-5.1,5.3-5.1l-1.2,4.1c0,0-3.1,2.7-5,3.1c-2.1,0.3-5.1,0.8-5.1,0.8v1.2
					c0,0,3.9,0.7,5.7,0.1c1.6-0.4,5-2.7,5-2.7l0.1,1.6c0,0-3.4,2.1-4.6,2.6c-1.1,0.4-4.6,0.8-4.6,0.8v1.1c0,0,2.3,0.3,3.1,0.3
					c1,0.1,4.4,0.1,4.4,0.1l0.1,1.6l-1.5,0.3v3.5l4.1-1.8l3.2,0.9c0,0,0.3,3.2,0.4,3.5c0,0.1,0.8,0.8,1.1,0.1
					c0.3-0.4,4.8-9.3,5.1-10.5c0.1-1-1.1-1.6-1.6-0.7c-0.3,0.9-2.7,5.9-2.7,5.9l-0.7-2.4c0,0,2.7-6.5,3.1-7.4
					c0.3-0.9-0.8-2.1-1.2-1.6c-0.3,0.4-2.6,4.7-2.6,4.7l-0.4-2.3c0,0,2.1-4.4,2.4-5.1c0.1-0.9-0.7-3.1-1.5-2.1
					c-0.8,0.9-2.1,3.7-2.1,3.7l-0.9-2.1c0,0,2.1-3.8,2.3-5.1c0-1.5-0.7-3.8-2-4.1c-1.2-0.3-2.4,0-3.5,0c-1.2,0-2.6-0.7-3.4-1.6
					c-0.7-1.1-1.1-2.3-2.3-2.3c-0.9,0-7.5,0-8.1,0.3c-0.3,0.3-0.7,0.7-0.7,0.7s-0.4-0.4-1-0.3c-0.3,0.1-0.1,0.7-0.9,0.9
					c-0.8,0.3-0.8-0.3-0.7-0.7c0.1-0.3-0.4-1.2-0.8-0.4c-0.4,0.7-0.9,1.5-1.6,1.7c-0.7,0.1-2,0.1-3.2,0c-1.2-0.3-2.8-0.7-3.7-0.7
					C504.5,249.5,503.6,249.7,503.6,249.7L503.6,249.7z M544.1,281.7c0,0-0.8,1.6-0.1,2.3c0.8,0.8,4.8,0.8,4.8,0.8s-2.7-1.6-3.4-2
					C544.8,282.5,544.1,281.7,544.1,281.7L544.1,281.7z M562.2,275.8c-0.7,0-2.4,0-2.8,0.1c-0.7,0.1-3.4,0.8-3.9,0.9
					c-0.8,0.3-0.9,0-2-0.4c-1.1-0.4-3.1-0.7-4.4-0.8c-1.2-0.3-3.5,0-3.5,0s-0.1,1.8-0.4,2.8c-0.3,1.1-0.7,2.3-0.7,2.3
					s0.4,0.3,0.9,0.3c0.4,0.1,2.1,1.1,2.7,1.2c0.4,0.1,2.4,0.9,3.1,1.2c0.8,0.1,1.5,0.7,2.1,0.3c0.7-0.1,3.5-1.5,4.1-2
					c0.8-0.3,3.8-0.3,3.8-0.3V280c0,0-2.3-0.3-2.7-0.3c-0.3,0-1.1,0.7-1.8,1.1c-0.4,0.4-2.7,0.9-3.1,1.5c-0.4,0.4-0.9,0.3-2.1,0.1
					c-1,0-1.8-0.4-2.6-1.1c-0.7-0.7-2.1-1.1-2.6-1.5c-0.7-0.1-1.2-0.3-1.1-0.8c0.1-0.4,0.1-0.3,1.1-0.7c0.8-0.3,3.5-0.1,3.9-0.1
					c0.7,0,2.6,0.8,3.1,0.7c0.4-0.1,4.7-1.8,5.6-2.1c0.8-0.3,2.3,0,3.4,0s2.8,0,2.8,0v-1.6C565.5,275.3,563,275.8,562.2,275.8
					L562.2,275.8z M562.6,268.8c-0.9,0-2.7,0.8-3.4,1.2c-0.7,0.4-2.8,2.3-2.8,2.3s-1.2-0.3-1.8-0.3c-0.4-0.1-2.8-0.4-3.5-0.7
					c-0.7-0.1-2.8-1.1-3.2-1.1c-0.1-0.1-0.3-1.1,0-1.1h2.8c1.1,0,2.4,0.1,3.7,0.1c1.2,0.1,2.7,0.1,3.2-0.1c0.7-0.4,3.9-4.4,4.5-4.5
					c0.3-0.3,4.4-0.3,4.4-0.3s-0.1-1.5-0.3-1.5c-0.3,0-2.8,0.1-3.4,0.1c-0.7,0-1.5,0.7-2,0.8c-0.4,0.3-1.6,1.5-2,1.7
					c-0.3,0.3-2.1,0.7-2.6,1.5c-0.4,0.8-1.8,0.4-2.8,0.3c-0.9-0.3-2-0.4-3.2-0.4c-1.1,0-4.1,0.7-4.7,0.8l0.3,3.1
					c0,0,2.3,0.8,2.8,1.2c0.7,0.3,1.2,0.7,2,0.8c0.8,0.3,3.7,0.4,4.1,0.8c0.4,0.3,1.1,1.1,2,1.1c0.8,0,4.8,0,6.1,0.1
					c1.1,0.1,2.3,0.1,2.3,0.1l0.1-0.8c0,0-2.1-0.9-2.7-0.9c-0.7,0-2.8-0.1-3.5,0c-0.8,0.1-2.1,0.1-2.1,0.1s2.1-1.1,2.4-1.7
					c0.3-0.4,0.8-1.1,2-1.2c0.9-0.1,2.7-0.1,3.4-0.1c0.7,0.1,2.3,0.7,2.3,0.7s0-1.5-0.3-1.6C566.6,269.2,563.5,268.6,562.6,268.8
					L562.6,268.8z M544.1,261.2c0,0,0.9-0.1,1.5-0.1c0.7,0,2.1,0.7,3.2,1.1c1.2,0.4,3.9,2.4,5,2.7c0.9,0.3,3.2,0.3,3.9-0.4
					c0.8-0.8,3.4-2,3.8-2.4c0.3-0.3,3.4-0.1,3.4-0.1l-0.1-1c0,0-1.2-0.4-2.1-0.4c-0.8-0.1-2.7-0.1-2.7-0.1s-0.4,0.1-0.8,1.1
					c-0.4,1-2,1.8-3.2,2c-1.5,0-2.3-0.9-3.1-1.5c-0.9-0.4-2.8-1-3.4-1.1c-0.7-0.1-0.7-0.3,0.1-0.4c0.8-0.3,5-0.7,5.9-1.1
					c0.8-0.3,3.4-3.4,3.9-3.6c0.4-0.4,4.4,0,4.4,0l-0.8-2.1c0,0-2,0.1-2.6,0.1c-0.4,0-2.1,0.3-2.7,0.4c-0.7,0-3.9,3.2-4.7,3.6
					c-0.7,0.4-5.6,1.1-6.5,1.1c-0.8,0-3.2,0.4-3.2,0.4L544.1,261.2L544.1,261.2z M548.5,254.4c0,0,3.2,0.3,4.1,0.3
					c0.8,0,1.5,0,2.1,0c0.7-0.1,3.1-1.5,3.5-2c0.4-0.4,3.8-0.3,3.8-0.3l-0.3-0.8c0,0-2.4,0-3.2,0.1c-0.9,0.1-3.8,2.1-4.6,2.4
					c-0.8,0.3-5.6-0.7-5.6-0.7v1H548.5z M516.8,252.4c0.4-0.1,1.6-0.7,2.1-0.7c0.3,0,0.3,0.1,0.4,1.1c0.1,0.8,1.7,2,2.7,2.1
					c0.9,0.3,3.1-0.4,3.6-0.4c0.4-0.1,0.8,0.4,1.5,0.7c0.7,0.3,1.2,0.3,2,0.3c0.7,0,2.4,0,3.1-0.1c0.4-0.3,1.2-1.1-0.1-0.8
					c-1.6,0.1-3.5-0.7-5-1.2c-1.5-0.7-1.6-3.2-1.6-3.2s-2.8,0.1-3.8,0.1c-0.8-0.1-2.3-0.7-2.3-0.7s-0.3,0.4-0.4,0.4
					c-0.3,0.1-0.7,0.3-0.8,0.7c-0.1,0.3-0.9,0.1-1.6,0.1c-0.4,0-0.7,0.9-0.7,1.2C515.8,252.1,516.3,252.6,516.8,252.4L516.8,252.4z
					 M516.9,256.8c0,0.3-0.4,2.4,1.6,3.1c2,0.7,4.7,0.8,6.2-0.3c1.8-1.1,2-2.3,2.1-2.6c0.1-0.3-1-0.8-1.1-0.7
					c-0.3,0.3-2.7,2.3-3.4,2.4c-0.4,0-2.3,0.1-3.5-0.3C517.7,257.7,516.9,256.8,516.9,256.8L516.9,256.8z M503.8,251.5
					c-0.3,0.4-0.4,0.9-0.3,1.6c0.1,0.4,2,0.1,2.4-0.1c0.4-0.1,1.2-0.3,1.5-0.7c0-0.3-0.4-0.9-0.8-0.9c-0.3,0-1.1-0.1-1.5-0.3
					C505.1,251,504.4,251.2,503.8,251.5L503.8,251.5z M521.1,251.5c0,0.8,0.8,2.6,2.1,2.1c1.5-0.3,1.1-1.5,0.9-1.7
					c-0.1-0.3-0.9-0.8-0.9-0.8s0,0.7-0.1,1.1c0,0.4-0.8,0.7-0.9,0.3C521.8,252,521.1,251.5,521.1,251.5L521.1,251.5z M513,247.3
					c0.8,0.3,3.1,0.3,3.8,0c0.8-0.1,5.8-0.8,6.6-0.8c0.8,0,3.7,0,3.7,0s-0.1-0.4-0.7-0.8c-0.4-0.3-0.9-0.7-1.1-0.9
					c-0.1-0.1-0.8-0.3-2.3-0.9c-1.2-0.7-3.7-0.1-4.6,0.1c-0.8,0.3-3.2,2.3-3.9,2.4c-0.8,0.1-2.7-0.3-3.2-0.4
					C511.4,245.9,512.2,247,513,247.3L513,247.3z M524.9,234c-0.3,0.1-0.1,0.7-0.3,1.1c0,0.4-0.8,1.2-0.9,2c0,0.4,0.4,0.9,0.8,1.6
					c0.4,0.6,0.7,0.8,0.9,0.8c0.1,0,0.1,0,0.9,0.1c0.8,0.1,0.1-3.5,0.1-3.8c-0.1-0.4-0.7-1.6-0.8-2
					C525.7,233.8,525.1,233.8,524.9,234L524.9,234z M500.4,226.5c0.3,0.7,0.9,0.3,1.1,0.1c0-0.1,0.1-0.7,0.3-0.7
					c0.2,0,0.4,0.8,1,1.6c0.4,0.9,0.9,0.9,1.1,0.9c0-0.1,0.7-0.7,0.7-0.7s-0.1,0.7,0.4,1.7c0.8,1.1,1.5,0.7,1.5,0.4s0-0.8,0-0.8
					s0.3,0.1,0.7,0.9c0.1,0.7,0.7,2,1.2,2.4c0.4,0.4,1.2,0,1.2-0.1c0-0.1-0.3-0.8-0.1-0.9c0-0.1,0.7,0.4,0.8,1.2
					c0.1,0.8,0.4,1.6,0.8,2.4c0.1,0.7,1.8,0.8,1.8,0.8s0-1.1,0-1.5c0-0.1,0.1-0.1,0.4,0.3s1.2,2.8,1.6,3.4c0.3,0.4,1.1,0.1,1.1-0.3
					c0-0.3-0.3-1.7-0.3-2c0-0.1,0.4,0.1,0.8,0.8s1.8,3.2,2.3,3.9c0.7,0.7,1.5,0.7,1.6,0.4c0-0.3-0.1-1.5-0.1-2
					c0-0.4,0.4,0.1,1.1,0.7c0.7,0.4,0.3,2,0.3,2s1.2,0.3,2,0.4c0.7,0.1,0-0.7,0.7-0.8c0.8,0,0,0.9,1.1,1.6c1.1,0.6,0.9-1.1,0.7-1.6
					c-0.3-0.4-2.1-0.7-2.1-0.7s-0.3-1.1-0.9-1.5c-0.7-0.3-1.2-0.4-1.2-0.4s-0.1-0.1-0.3-0.3c-0.1-0.1-1.6-1.6-2.1-2
					c-0.3-0.3-1.8-0.7-2.3-0.7c-0.3-0.1-1.5-2.1-2.1-2.4c-0.4-0.4-2.4-0.1-2.4-0.1s-1-2.6-1.5-2.8c-0.7-0.4-2,0.1-2,0.1
					s-0.8-1.6-0.9-2c-0.3-0.4-1.8-0.3-1.8-0.3s-0.4-0.9-1.1-1.5c-0.4-0.4-1.6,0-1.6,0s-0.8-1.2-1.2-1.8c-0.4-0.4-1.1-0.1-1.1-0.1
					s-0.3-0.7-0.8-1.2c-0.4-0.7-0.3,0-0.4,0.3C500.1,224.4,500.2,226,500.4,226.5L500.4,226.5z M535.2,247.7
					c0.3-0.4,0.3-2.1,0.1-2.7c-0.1-0.7-2-6.2-2-6.4c0-0.1,0.1-0.4,0.3-0.9c0.3-0.4,0.1-1.6-0.1-1.5c-0.1,0-1.1,1.7-1.2,2.1
					c-0.1,0.3-1,1.2-0.8,2.1c0,0.9-0.4,4.4-0.9,4.8c-0.3,0.7-1.5,2.3-1.6,2.7c-0.3,0.4-0.3,1.1,0.9,2s2.4,1.2,3.4,0.7
					C534.2,249.7,535.2,247.7,535.2,247.7L535.2,247.7z M552.2,242.9c-1,0.4-0.7,2.3-0.7,3.6c0,1.5-2,1.5-3.2,1.2
					c-1.1-0.3-2-0.1-3.1,0.3c-0.9,0.4-4.6,4.4-4.6,4.4l0.7,1.5c0,0,3.6-2,4.8-2c0.7,0,5.3,0.1,6.6,0.1c1.1,0,1.2-0.3,1.5-1.8
					c0-1.5,1.7-2.7,2.8-2.7c0.9,0,2.7,0.1,2.7,0.1s-0.9-1.2-2-1.5c-1.1,0-2.1,0.3-3.2,0.7c-1.1,0.4-2,3.1-2.7,3.5
					c-0.8,0.4-3.1,0.1-4.1,0.1c-1.2,0-4.6,1.1-4.6,1.1s2-1.7,3.2-2.6c1.1-0.8,3.2-0.4,4.7-0.9c1.5-0.4,0.9-3.5,0.9-4.4
					c0-0.9,3.4-2.1,3.4-2.1l-0.3-0.3L552.2,242.9L552.2,242.9z M371.9,313.1c0,0,1.8-0.4,1.8,0.4s-0.8,4.8-1.2,5.6
					c-0.3,0.8-1.7,1.2-1.7,1.2l-0.1,0.7l10.8-3.1l0.3-2.7c0,0-1.6,2.1-3.1,2.7c-1.2,0.7-2.3,0.4-2.3,0.4l0.4-3.5c0,0,1.1,0,1.6,0.1
					c0.3,0.2,0.7,1,0.7,1l0.7-3.5c0,0-0.3,0.7-0.9,1.1c-0.7,0.4-1.6,0.4-1.6,0.4l0.7-2.3c0,0,1.6-0.8,2.6-0.8c1.1,0,0.8,1.1,0.8,1.1
					l0.9-0.1l0.7-3.1c0,0-3.4,1.1-5.3,1.7c-2,0.7-5.4,1.8-5.4,1.8v0.5h-0.5V313.1z M369.9,315.6l-2.3,2.3l1.2,2.3l2-2.6L369.9,315.6
					L369.9,315.6z M355.2,317.8v0.4h1.6c0.4,0,0.4,0.7,0.3,1.7c-0.3,0.9-0.8,4.8,4.7,3.2c5.4-1.5,4.6-5.3,4.6-5.8
					c0.1-0.4,0.4-2,0.4-2l1.6-0.7v-0.7l-5.1,1.5v0.4c0,0,1.2-0.4,1.2-0.1c0,0.4-0.4,2.7-0.7,4.1c-0.3,2.1-3.6,3.7-3.6,1.6
					c0.1-2,0.7-3.8,1.1-4.4c0.3-0.3,1.1-0.8,1.1-0.8v-0.7c0,0-0.8,0.4-2.3,0.9C358.5,317.4,355.2,317.8,355.2,317.8L355.2,317.8z
					 M344.1,319.4l-0.1,0.7c0,0,1.2,0,0.9,1.2c-0.1,1.1-0.8,2.6-1.1,3.4c-0.3,0.8-2.1,0.9-2.1,0.9v0.4c0,0,6.1-0.1,8.5-0.7
					c2.3-0.3,3.1-0.7,3.1-0.7l0.7-2l-0.7-0.1c0,0-0.3,0.7-0.9,1.1c-1.2,0.9-4.7,1.1-4.7,1.1l1-2.4c0,0,0.9-0.1,1.6,0
					c0.7,0.3,0.9,0.9,0.9,0.9l1.2-3.5c0,0-1.2,1.6-1.8,1.6c-0.4,0-2,0-2,0l0.7-2c0,0,2-0.9,3.1-0.7c0.9,0.3,1.1,1.2,1.1,1.2l0.4-2.1
					c0,0-4.7,0.8-5.7,0.9C347.4,319.4,344.1,319.4,344.1,319.4L344.1,319.4z M338.1,321c0,0.8-0.1,0.9-0.8,2.4
					c-0.4,0.9-0.4,1.5-1.6,2c-0.9,0.3-1.7,0.3-1.7,0.3l-0.3,0.7h7.4v-0.7l-1.5-0.1l2.1-5.3h1.7v-0.8l-7.1,0.1v0.7
					C336.3,320.2,338.1,320.1,338.1,321L338.1,321z M327.8,320.2l-2.6,5.1c0,0,2,0.4,2.8,0.1c1.1-0.1,2.1-1.5,2.3-2.3
					c0-0.8,0.8-2.4,0-2.6C329.6,320.6,327.8,320.2,327.8,320.2L327.8,320.2z M322.7,319.4c0,0,1.1,0.1,0.8,0.8
					c-0.1,0.7-1.5,3.5-2.3,4.4c-0.7,0.8-2.7,0.9-2.7,0.9s5.7,0.7,6.2,0.8c1.1,0.1,7.4,0.7,8.8-1.7c1.1-2,1.2-3.7,0.1-4.1
					c-1.1-0.4-8.6-1.2-10.1-1.2C322.2,319.1,322.7,319.4,322.7,319.4L322.7,319.4z M347.1,282.5c-1.5-7.2-4.8-8.8-7.8-9.9
					c-3.9-1.5-14.1,0.8-15.6,0.9c-1.2,0.1,0.8-3.4-2.1-5.4c-1.1-0.8-3.8,0-3.8,0s-1.1-0.9-1.7-1.2c-0.4-0.4-1.1-2-3.9-1.6
					c-0.8,0-3.7,1.2-4.6,1.6c-0.8,0.4-5.1,0-6.1-0.3c-0.8-0.4-1.7,0.1-1.7,0.1s0.7,2.4,1.1,3.1c0.7,0.4,2.6,2.3,3.1,2.4
					c0.7,0,3.6-0.4,5-0.3c1.1,0.1,1.6,2.6,1.6,2.8c0,0.4-0.8,2.1-0.9,2.8c-0.1,0.9,1.2,3.2,2,3.8c0.8,0.7,0.3,1.1-1.2,1.2
					c-1.6,0.1-1.2,2-1.2,2s-0.8-0.7-1.8-0.9c-0.9-0.4-1.8,0.3-1.8,0.3l0.1-1.1c0.1-1.2-1.1-2.8-1.8-3.2c-0.4-0.4-2.3-1.8-2.6-2.8
					c-0.3-0.9-0.4-1.6-1.1-1.1c-0.4,0.3-0.3,2-0.3,2l-0.4,0.8l-0.8-0.1l0.3,1.6h-0.7l0.3,1.6h-0.8c0,0,0.1,0.8,0.4,1.6
					c0.3,0.8,0.3,1.5,0.9,2.4c0.4,0.9,0.4,2.1,0.8,2.7c0.1,0.4,0.1,1.5-0.8,1.6c-0.9,0-0.7-0.9-0.8-2.1c-0.1-0.9-1.2-2.1-1.2-2.6
					c0-0.3-0.9-0.7-1.5-0.7c-0.3,0-1.1-0.9-1.1-0.9s-0.3,0.9-0.7,0.4c-0.4-0.3-1.5-0.9-1.5-0.9s-0.3,0.9-0.9,0.1
					c-0.7-0.8-1.5-0.7-1.5-0.7l0.1,1.1c0,0-0.7,0-1.2-0.4c-0.7-0.3-2.8-1.8-2.8-1.8s0.1,1.1-0.4,0.7c-0.8-0.7-2.3-0.9-2.3-0.9
					s0.1,1.2,0.8,2.6c0.7,1.1,0,0.9,0.7,2c0.8,0.9,1.6,1.1,1.6,1.1v0.7l0.9,1.1c0,0-0.4,0.7,0.1,1.2c0.7,0.4,1.1,0.8,1.1,0.8
					s-0.1,1.5,0.8,1.7c1.1,0.3,1.5,0,1.5,0s-0.4,1,0.3,1c0.8,0,2.1-0.4,2.1-0.4v0.8c0,0,0.3,0,1.1-0.1c0.8-0.1,2-0.7,2.6-1.1
					c0.7-0.3,1.1-0.3,1.8-0.3c0.6,0,0.1,1.2,0,1.6c-0.1,0.4-0.9,0.7-0.9,0.7h-1.2c-0.4,0-1.1,0.3-2,0.4c-0.8,0.1-1,0.3-1.6,0.3
					c-0.7,0.1-1.5,0.3-2,0.4c-0.3,0.1-0.8,0.1-1.6,0c-0.8-0.1-0.7,0.4-0.7,0.4s-1.1-0.1-1.6-0.1c-0.3-0.1,0,0.8,0.4,0.8
					c0.3,0.1,0.9,1.2,0.9,1.2s0.4,0.9,0.8,1.1c0.4,0.1,1.5,0.4,2,0.4s0,0.8,0,0.8s1.1,0.1,1.8,0.1c0.4,0.1-1.1,1.1-0.3,1.1
					c0.8,0,2,0.4,2,0.4l0.4,0.8c0.3,0.8,0.9,1.2,2.3,0.9c1.2-0.3,3.2-0.7,3.2-0.7L300,304c-0.7,0.8-1,2.8-0.4,2.8
					c0.7,0,2.4,0.1,2.4,0.1s0.9,0,0.9,0.4c-0.1,0.8-0.9,0.8-2.3,0.8c-1.1,0-2.3-0.4-2.3-0.4l-0.7,0.7c0,0-0.8-0.7-1.5-0.3
					c-0.4,0.1-0.3,1.5-0.8,1.5c-0.3,0-1.1-0.1-1.6,0.3c-0.3,0.3-0.8,1.2-0.8,1.2s0,0.3,0.3,0.8c0.3,0.3,0.4,0.8,0.4,0.8
					s-0.7,0-0.7,0.4c0,0.4,2.6,1,2.6,1v0.9c0,0.8,1.6,0.3,1.6,0.3s0.1,0.4,0.8,0.4s1.2-0.8,1.2-0.8s0,0.8,0.7,0.8
					c0.7,0,1.1-0.4,1.1-0.4s0.4,1.1,1.2,0.4c0.8-0.8,0.8-1.5,1.5-1.6c0.7,0,2.7,0.4,3.4,0.4c0.4,0,0.9,0.8,1.5,1.6
					c0.4,0.8,1.8,0.4,1.8,0.4v1.5c0,0.9,1.6,1.7,2.3,1.7c0.4,0,2.7-0.7,3.5-0.9c0.8-0.1,1.2,0.9,0.4,1.1c-0.8,0.1-4.7,1.5-4.7,1.5
					l1.5,4.1l5.4-2.7l-0.8-2.3c0,0,2.3-0.3,3.1-0.8c0.9-0.4,1.6-3.5,1.6-3.5s17.4,0.9,23.9,0.1c6.5-0.8,14.8-3.6,17.9-4.6
					c2.8-0.8,25.5-8.5,26.9-8.6c1.5,0,3.2,1.6,0.1,2.4c-3.1,0.9-7.7,2.6-7.7,2.6l-0.7,4.4c0,0,3.2-3.6,3.9-4.4
					c0.8-0.7,0.7,0,0.7,0.7c0,0.7-0.9,4.5-1.5,5.8c-0.7,1.1-1.8,1-1.8,1v0.8c0,0,2.6-0.7,3.8-1.1s4.1-1.2,4.1-1.2v-0.8
					c0,0-2.1,0.8-2,0.1c0.1-0.4,0.9-4.7,1.1-5.4c0.1-0.7,0.7-0.9,1.1-1.1c0.4-0.1,1.2,1,1.2,1.6v1.8l2-0.4v-0.4l0.9-0.1l0.3,0.9
					c0,0,1,0.8,2,0.7c0.9-0.1,2.6-0.7,3.1-1.5c0.3-0.8,1.5-0.7,1.5-0.7s0.8,0.9,1.7,0.8c1.1-0.3,0.8-0.4,1.2-0.7
					c0.3-0.3,0.7-0.3,1.2-0.4c0.7-0.1,0.9,1.6,0.9,1.6s0.8,0.1,1.2,0.1s0.4-0.9,0.9-0.9c0.3,0,1.2,1.1,2,1.8
					c0.7,0.4,1.6,1.5,2.6,2.4c0.9,0.8,6.5,7.4,6.5,7.4l0.8,3.4c0,0-3.8-3.9-9.3-8.2c-5.3-3.9-16.3-0.7-19.7,0.3
					c-3.2,0.9-35.1,12.1-46.6,13c-11.7,0.8-32.7-0.8-35.4-0.9c-2.6-0.1-13.9-0.9-16.4-1.1c-2.7-0.3-7.5-1.5-7.5-1.5l2,5
					c0,0,31.7,3.4,45.6,2.8c13.9-0.4,17.1,0.9,45.3-8.3c25.9-8.5,25.7-7.2,30.4-5.8c2.8,0.9,6.2,4.6,7.7,5.8
					c1.5,1.2-0.3,3.8-2.3,2.1c-2.1-2.3-7-6.6-13.5-5.3c-6.5,1.5-11.5,4.1-11.5,4.1l1.6,2.4c0,0,8.9-4.4,12.7-3.5
					c3.6,0.9,7.7,2.6,9.2,5.3c1.5,2.7,4.1,4.4,6.6,2.3c2.7-2,2.8-5.3,3.1-6.3c0.1-1.1-0.7-5.1-0.7-5.1s1.8,2.6,2.3,3.1
					c0.7,0.7,2.1,2,2.1,2l-0.7,0.4c0,0-1.1,0.3-1.5,1.1c-0.3,0.8,1.1,3.5,1.1,5v2.7l1.2,2.1c0,0,2.6,0.1,3.9,0.3
					c1.2,0.3,3.8,1.5,5.9,0.3s1.8-2.3,1.8-2.3l1.2-2.3c0,0,6.2,2.1,8.5,2.4c2.1,0.3,8.3,0.9,10,0.8c1.6-0.1,2.3-1.2,2.7-2.4
					c0.3-1.1-0.4-2.1-0.4-2.1l5.3-3.2c0,0,2.4,0.7,3.1,0.3c0.4-0.3,2.3-2.1,2.6-2.8c0.3-0.7-0.3-3.1-0.3-3.1l1.7-1.5
					c0,0-0.1,3.6-0.1,5.4c0,1.7,0.4,3.1,1.6,3.6c1,0.8,5.3,2.6,7.3,0.9c2-1.6,7-7.4,12.7-5.9s9.3,3.4,9.3,3.4l2-3.4
					c0,0-8.8-4.7-12.9-3.9c-3.9,0.4-9.8,2.7-11.8,5.6c-1,1.2-4.8,0.1-2.4-2c2.1-1.7,9.6-7.8,15.1-7c6.4,1.2,30.7,9.4,33.4,10.2
					c10.8,2.8,30.4,5.1,37.3,5.6c15.7,1.5,41.2-2.8,41.2-2.8l4.7-5.9c0,0-9.2,1.7-13.2,2.3c-3.4,0.3-22.4,3.4-43,0.9
					c-18.3-2.1-36.9-7.4-48.9-11.5c-11.9-4.1-16.6-2.6-22.1,0.7c-5.8,3.4-8.8,9.6-8.8,9.6s0-2,0.1-2.6c0.3-0.7,0.8-2,1.2-2.8
					c0.4-1.1,2.6-3.5,3.4-5c0.7-1.5,3.2-7.7,3.5-8.9c0.3-1.2,1.5-3.9,2.8-5c1.6-1.1,12.4-0.3,15,0.3c2.7,0.4,23.5,7,34.5,9.6
					c11,2.8,23.7,3.5,24.4,3.4c0.7,0,1.2,0.8,0.9,1.5c-0.4,0.7-1.2,0.4-1.2,0.4v0.4c0,0,2.3,0.8,2.6,0.8c0.4,0.1,1.7,4.7,2.3,5.6
					c0.4,1.1-1.2,0.9-1.2,0.9v0.7l6.6-0.1l-0.1-0.4c0,0-1.6-0.1-1.6-0.7c-0.1-0.7-0.7-2.4-0.7-2.4s1.5,1.1,2.7,2
					c1.1,0.8,2.8,0.3,2.8,0.3v0.7l-1.2,0.9l7.1-0.3l-1.8-0.8l-0.8-2.8l1.5-1.8l1.6,0.1l1.1,1.6l1.2-0.1l-2-4.1l-3.1-0.3
					c0,0-0.4-1.1,0-1.1c0.3,0,1.8,0,2.6,0.1c0.8,0,1.8,0.7,2.3,0.9c0.4,0.3,2.8,2.8,2.8,2.8l-1.8,2.1l3.5,3.1l2.7-3.1l-2.3-2.1
					l0.7-0.9l-1.6-2.7c0,0,4.7,0.4,5.3,0.4c0.4,0,0.3-1.6,0.3-1.6s0.7,0.3,0.9,0.3c0.4,0,0.8-0.4,0.8-0.4l1.1,0.4
					c0,0,0.8-0.3,0.9-0.7c0.1-0.3-0.8-2.7-0.8-2.7l5,1.5l-10.1,6.1l5.4,1.8l12.9-7.1l1.8-6.5c0,0-5.4,2.8-6.4,3.1
					c-0.8,0.3-2.3-1.1-2.3-1.1s2.8-3.2,3.6-4.1c0.7-1,1.2-2.8,1.2-2.8s-3.9,1.6-4.7,1.8c-0.7,0-3.1,0.8-3.1,0.8s0.1-1.7,0.3-2.3
					c0-0.4,0.7-3.8,0.7-3.8s-0.9,0.4-2.6,0.9c-1.5,0.4-5.9,2.4-5.9,2.4v-4.4c0,0,2-0.7,2.8-0.8c1.1-0.1,3.5-0.1,5.3-0.1
					c1.8,0,5,0.8,5,0.8s0.3-0.4-0.4-1.6c-0.7-1.1-2.4-1.1-3.4-1.6s-3.7-0.8-3.7-0.8s2.1-1.5,2.8-1.8c0.8-0.3,3.4-1.2,4.6-1.5
					c1-0.1,2.8-1.2,1.2-1.8c-1.5-0.3-2.8-0.1-4.6-0.1c-1.6,0-4.6,0.7-4.6,0.7s3.1-1.2,4.4-2.1c1.5-0.8,4.1-1.5,5.1-1.7
					c0.9-0.4,2.4-0.7,0.9-1.2c-1.5-0.4-4.4-0.7-5.8-0.7c-1.5,0.1-3.9,0.7-3.9,0.7s0.3-2.7,0.7-3.4c0.1-0.7,1.5-4.1,1.5-4.1l-2-0.8
					l-4.1,3.9l-0.7-3.4l-1.7,1.1l-1.6,4.6c0,0-1.2-0.8-1.7-1.1c-0.4-0.3-0.9-2-0.9-2l-1.2,0.4c0,0,0.8,2.6,1,3.4
					c0.1,0.7,0,2.1,0,2.1l-1.5-0.1l-0.3-0.3c-0.4-0.3-0.8-0.4-1.1-0.9c-0.3-0.3-0.9-0.1-1.6-0.1c-0.7,0-1.1-0.3-1.1-0.3
					s0.9-1.8,1.7-2.7c0.7-0.9,2-2.8,2-2.8l-1.6-0.7c0,0-1.6,0.7-2.3,1.2c-0.7,0.4-4.1,3.2-4.7,3.8c-0.3,0.7-1,0.8-1,0.4
					c0-0.4-0.1-4.1-0.1-5.1c0-1.1-1.1-2.1-1.1-2.1s-0.8,1.5-0.8,2.3c-0.1,0.8-0.4,5-0.4,5.4s-0.3,1.2-0.7,1
					c-0.3-0.3-1.1-0.8-2.1-1.8c-1.1-1.1-2.4-2.4-2.4-2.4l-2.1,0.8c0,0,0.1,0.7,0.8,1.6c0.4,1.1,0.7,3.9,0.7,5c0,1.1-0.3,3.6-0.3,3.6
					c0,0.1-0.8,0.7-1.2,0c-0.3-0.8-1.1-2.4-1.5-2.8c-0.3-0.3-0.8-1.2-0.8-1.6c-0.1-0.1-0.1-0.7-0.7-1.2c-0.4-0.4-0.9-0.3-0.9-0.3
					l-0.1-0.1c-0.1-0.1-3.2-2.3-5.3-2.1c-1.2,0-4.7,1.1-5.4,1.5c-0.8,0.4-3.1,1.1-3.4,1.1c-0.3-0.1-1.5-0.7-2-0.8
					c-0.4-0.1-2.8,0.7-3.4,0.9c-0.7,0.1-0.8-0.1-0.7-0.4c0-0.4,1.1-2.6,1.1-2.6s-0.4-0.3-0.8-0.3c-0.3-0.1-0.3-0.7-0.3-0.7
					s0.1,0,2.4-7.4c2.1-7.2-1.8-17-2-17.4c-1.5-3.1-5.4-8.2-5.4-8.2s0.1-0.4,0.3-0.8c0.3-0.3,0.8-1.2,1.1-1.5
					c0.4-0.1,3.8-2.3,5.1-2.7c1.2-0.7,4.1,0.4,5.6,0.7c1.3,0.2,1.8-0.9,1.8-2.3c0-1.2,0.3-1.8,0.8-2.1c0.4-0.3,3.4-1.2,3.4-1.2v-0.4
					c0,0-3.7,0.8-4.8,1.2c-0.9,0.3-1.2,2-1.2,2.6c0,0.7-0.1,0.9-1.8,0.7c-1.6-0.4-2.8-0.8-3.4-0.8c-0.4,0-4.6,2-5,2.3
					c-0.3,0.3-0.8,0-0.8-1.1c-0.1-0.9-0.8-2.6-1.6-3.4c-0.8-0.8-1.2-2.4-1.2-3.2v-2.7l-2.1-0.8c0,0-1.2,2-1.8,2.3
					c-0.3,0.4-2,2.1-2.4,2.7c-0.3,0.7-0.3,3.4-0.3,3.4s-1.1-0.9-1.2-1.6c-0.3-0.7,0.3-2.1,0.3-3.1c0-0.9-0.3-2.6-0.3-3.4
					c0-0.8-0.1-1.7-0.1-1.7l-2-0.8c0,0-0.1,0.7-0.4,1.2c-0.4,0.7-1.2,1.7-1.8,2.6c-0.4,0.7-0.9,1.5-0.9,1.5s-2.1-1.6-2.8-2.1
					c-0.8-0.3-1.6-0.4-1.6-0.4s-0.7-1.2-1.2-2c-0.7-0.4-2.3-0.8-2.3-0.8s-1.6-1.5-2-2.1c-0.4-0.8-2.3-0.3-2.3-0.3
					c-0.8-1.5-0.8-1.2-1.1-1.6c-0.4-0.7-1.6-0.3-1.6-0.3s-0.3-0.4-0.7-1.1c-0.7-0.9-2.1-0.4-2.1-0.4s-0.4-0.8-0.8-1.2
					c-0.4-0.4-1.2-0.4-1.8-0.4c0,0-0.4-1.2-0.9-1.5c-0.3-0.3-1.1-0.7-1.1,0.4c-0.1,0.9,0,2.1,0.3,2.8c0.3,0.8,1.7,1.1,2.1,1.1
					c0.4,0,0.4,0.4,0.8,1.5c0.4,0.8,1.6,1.1,2.3,1.2c0.4,0,0.4,0.4,0.9,1.6c0.4,1.1,1.2,0.7,2.3,1.1c0.9,0.3,0.1,0.9,0.9,2
					c0.8,0.9,1.5,0.8,2.1,0.8c0.7,0,0.7,0.9,1.2,1.7c0.7,0.8,1.2,0.9,1.6,0.9c0.4,0,0.9,0.8,1.5,1.6c0.7,0.8,2.3,1.1,2.3,1.1
					l-0.7,0.7c0,0-2.1,0.1-3.1-0.1c-0.8-0.3-1.6,0-1.6,0s0.4,0.8,0.8,1.2c0.4,0.7,1.8,2.3,1.8,2.3h-1.1c-1.2-0.1-3.2-1.5-3.2-1.5
					s-1.1,0.1-0.8,0.9c0.3,0.8,1.7,2.7,2,3.2c0.3,0.3-0.4,0.8-1.8,0.8c-1.1-0.1-2.1-0.8-2.8-1.1c-0.8-0.1-2,0-2.6,0
					c-0.6,0-2.1,2.1-2.7,2.3c-0.7,0.3-1.6,1-2.4,1.2c-0.9,0.1-1.7-0.1-3.7,0.8c-1.7,0.8,0.4,3.9,0.1,4.7c-0.1,0.8-1.6,1.6-0.8,2.3
					c0.8,0.7,2.3,3.2,2.3,3.2s-0.3,1.6-2.7,2.6c-2.4,0.9-2.6,3.1-2.7,4.4c-0.3,1.5,0.4,5,0.4,5l1.8-0.4c0,0,0.7-1.5,0.8-2.3
					c0-0.8,0.7-1.5,3.8-1.1c3.4,0.3,3.7-1.1,4.4-2.4c0.4-1.2,1.5-4.5,2.1-5c0.7-0.3,1.6-0.7,2.6-0.1c0.9,0.3,2.6,0.1,3.5-0.8
					c1-1.1,1.8-1.2,2.6-1.1c0.8,0.3,2.1,2,2.1,2s0,1.1,0.4,2.3c0.7,0.9,2.4,1.6,2.4,1.6l0.1,2.6l-1.6,0.3c0,0-1.1,0.8-1.5,1.5
					c-0.3,0.7-2.7,2.1-2.7,2.1s-0.8-1.5-1.1-2.4c-0.3-0.8-1.8-2.7-1.8-2.7l-2.8,0.1c0,0-0.3,3.2-0.1,4.1c0.1,1.1-0.4,5.9-0.4,5.9
					l1.5,1.7c0,0-3.7,0.7-9.2-0.8c-2.7-0.7-10.6-3.9-10.6-3.9s-0.8-2.8-1.1-3.5c-0.1-0.7-1.5-4.4-1.5-4.4s2.7-2.7,3.2-3.2
					c0.4-0.4,2.8-3.4,2.8-3.4h-3.2c-0.3,0-2.1,0-2.1,0s1.2-2.1,2.1-3.1c0.7-1.1,2.7-5.3,2.7-5.3s-2.7,0.7-3.4,0.9
					c-0.4,0.4-2.7,1.2-2.7,1.2s0.3-3.1,0.4-3.6c0.1-0.7,0.7-3.4,0.7-3.4s-2.7,3.2-3.2,3.9c-0.7,0.8-1.2,1.2-1.5,0.8
					c0-0.7-0.8-7.7-0.8-7.7l-5.6,7.5l-4.1-3.2c0,0,0.4-1.2,0-1.7c-0.3-0.4-0.8-1-0.8-1l2.3-1.7c0,0,1.6,0.7,2.3-0.4
					c0.8-0.9-0.8-1.6-0.8-1.6l0.8-0.7c0,0,2.1,1.1,2.7-0.9c0.4-1.1-1.2-2-1.2-2l0.3-0.7c0,0,2.4,0.4,2.4-2.6c0-1.8-2.6-0.8-2.6-0.8
					l-0.4-0.8c0,0,2-1.6,0.1-3.1c-1.2-0.9-3.2,0.4-3.2,0.4l-0.3-0.4c0.1-0.1,0.7-1.8-0.8-2.4c-1.8-0.7-2.6,1.5-2.6,1.5l0,0
					c0-0.3,0.1-2.1-1.6-2c-2,0.1-2,2-2,2h-0.3c0,0,0.1-1.1-1.5-1.2c-1.6-0.1-1.6,0.8-1.6,0.8l-0.3-0.4l-0.8-2c0,0-0.8,0.7-1.5,0.9
					c-0.4,0.4-3.1,2.7-3.1,2.7l0.1-7.8l-1.7,0.3l0.3-2l-11.4-0.7l0.3,2.3l-2-0.4v7.1l-3.5-2.6l-2.1,2.8h-0.8c0,0-0.1-2-2.4-1.8
					c-1.5,0-1.5,2-1.5,2h-0.7c0,0,0-2.4-2.3-2.1c-2.3,0.1-1.1,2.3-1.1,2.3h-0.4c0,0-1.1-1.2-2.6-0.7c-1.5,0.7-0.4,2.4-0.4,2.4
					l-0.3,0.1c0,0-0.7-1.5-2.4,0c-1.7,1.5,0.4,2.6,0.4,2.6l-0.4,0.7c0,0-2-0.4-2,1.2c-0.1,2.6,2.4,2.1,2.4,2.1v0.7
					c0,0-2.1,0.1-1.5,2c0.4,1.6,3.1,0.9,3.1,0.9s-0.7,1.1-0.1,2c0.3,0.8,2.3,0.7,2.3,0.7l1.7,2.1c0,0-0.1,0.4-0.7,1.2
					c-0.3,0.8,0,1.1,0,1.1s-2,1.1-1.6,2.1c0.4,1.1-0.7,0.9-1.7,0.1c-1.2-0.8-2.8-3.2-3.4-3.8c-0.4-0.7-2-2.1-2-2.1s-0.2,0.4-0.2,1.1
					c0,0.8-0.1,7-0.1,7s-3.4-2.3-3.9-2.8c-0.7-0.7-1.8-0.9-1.8-0.9s0.4,2.4,0.9,3.5c0.7,1.1,2,4.6,2,4.6s-2.1-1.1-2.7-1.1
					c-0.4-0.1-3.9-0.9-3.9-0.9s0.4,1.7,1.5,2.7c0.9,0.9,3.5,4.8,3.5,4.8l-4.1,0.7l4.7,5c0,0-0.3,2.4-0.7,2.7
					c-0.1,0.3-0.9,3.2-1.2,3.8c-0.3,0.7-4.1,2.6-5.1,2.7c-1.1,0-1.1-0.4-1.5-1.5c-0.4-0.9-1.1-2.7-2-3.5s-3.2-2-3.7-2.7
					c-0.4-0.7-0.4-2.3-0.7-2.8c-0.3-0.4-1.1-1.7-2-2.7c-0.8-1.1,0.1-2.1,1.2-1.5c0.9,0.4,1.1,1.7,2.3,3.2c0.9,1.6,3.1,2.1,3.1,2.1
					s-0.7-0.9-1.1-2.1c-0.4-0.9,0.3-2.6-0.1-3.2c-0.3-0.7-2.4-2.6-2.4-2.6l0.9-2.3c0,0-1.6-0.7-2.4-0.9c-1-0.1-2-0.9-2.7-1.8
					c-0.8-0.7-1.5-0.9-0.7-0.9c0.7,0,1.2,0.3,2.8,0.3c1.6-0.1,2.7-0.8,2.7-0.8s-0.8-0.4-1.6-0.8c-1-0.4-2.3-2.3-2.3-2.3
					s0.8-0.7,1.1-1.2c0.3-0.7,0.8-1.5,0.8-1.5s-0.8-0.3-1.6-0.4c-0.8-0.3-2.6-0.7-3.4-1.2c-0.8-0.4,0-0.8,0-0.8s0.8,0,2.3-0.1
					c1.2-0.3,1.6-3.2,1.6-3.2l-0.9-1.1c0,0-1.5,0.8-2.6,1.1c-1.2,0.3-2.6,0.1-2.6,0.1s-0.9-0.8-0.9-1.2c0-0.7,0.8-1.2,0.8-2.3
					c0-0.8-0.8-1.6-0.8-1.6s-1.1,1-2.1,1.5c-1,0.3-1.6,0.1-2.6,0.1c-0.8,0-0.7-0.1-3.7-0.3c-3.1-0.1-1.6,0.1-2.4,0.7
					c-0.7,0.4-1.5,0.9-1.5,0.9s-0.7-0.7-0.4-1.5c0.1-0.7,0.4-1.5,0.4-2.3s-2.6-2.6-2.6-2.6s0.4-1.2,0.3-2.3
					c-0.3-1.1-2.7-0.7-2.7-0.7l-0.1-0.7c0,0,1.5-2,0.4-3.1c-1.1-0.9-2.8,0.1-2.8,0.1s-0.1-2.1-1.5-2.3c-1.2-0.1-1.6,1.7-1.6,1.7
					l-1.5,0.4c0,0-0.4-0.9-2-0.3c-1.5,0.4,0,2.6,0,2.6l-0.7,0.7c0,0-1.1-0.3-1.8,0.8c-0.7,0.9,0.3,2.3,0.3,2.3l-0.9-0.1
					c0,0-0.4-1.5-0.7-2.1c0-0.8-0.3-1.6-0.3-1.6l-0.3,0.4c-0.4,0.4-1.8,2-1.8,2l-1.2-0.4l1.8-3.9l-8.2,4.1l3.5,1.5l-0.7,1.7
					c0,0-2.7-0.7-3.1-0.1c-0.3,0.4,1.2,2.1,1.2,2.1h-1.5c0,0,0-1.2-1.6-0.8c-1.6,0.4-0.8,1.5-0.8,1.5l-1.1,0.7c0,0-0.3-0.7-0.8-0.7
					c-0.4,0-0.7-0.8-2.1,1.1c-1.5,1.8,1.2,2.1,1.2,2.1l-0.1,1.2c0,0-2.1,1.2-1.5,2.3c0.7,0.8,2.1,0.1,2.1,0.1l0.9,0.7
					c0,0-0.3,1.5,0.7,1.6c1.1,0.3,1.2-0.7,1.2-0.7l0.8,0.4c0,0-0.4,0.9,0.3,1.1c0.8,0.1,1.2,0,1.2,0s-1.5,2.7-2.3,4.1
					c-1,1.6-2.3,5.4-2.7,6.1c-0.3,0.7,0,1.1,0.7,2c0.7,0.8,1.5,1.6,2.1,2c0.8,0.1-0.1,0.7-0.3,1.5c-0.1,0.8,0.3,1.1,0.3,1.1
					s-0.8,1.7-0.8,2.8c0.1,0.9,2.4,2.8,3.2,3.2c0.9,0.4,1.8,0.8,2.4,1.2c0.7,0.7,1.5,2.4,2.1,2.3c0.8-0.3,0-3.6,0-3.6s2-1.1,2.3-1.6
					c0.1-0.3,0.8,0,0.4,0.8c-0.3,0.9-0.4,2.4-0.3,3.2c0.3,0.8,1.8,2.1,2.6,2.1c0.8,0-1.2,1.5-2,1.6c-0.4,0.3-3.1,0.3-3.9,1.1
					c-1.2,1.1-2.4,2.6-4.1,2.7c-1.7,0.3-1.7,0.3-1.7,0.3s0,0.3,0.9,0.9c0.9,0.4,2.7,0.3,4.4-0.4c1.7-0.8,2.4-1.5,3.8-1.5
					c1.2,0,2.3,0.8,1.6,1.1c-0.4,0.1-2.3,0.9-2.6,0.9c-0.4,0.1-1.5,0.9-2,0.9c-0.3,0-3.2,1.1-3.9,1.5c-0.7,0.4-2.1,1.1-1.8,1.5
					c0.3,0.4,4.6,2.3,4.6,2.3s-0.4,1.1-1.5,1.6c-0.9,0.7-3.5,0.4-3.5,0.9c0.1,0.4,0.8,1.6,0.8,1.6s-0.8,0.1-2-0.1
					c-1.1-0.1-1.6-2.1-1.6-2.1S348.3,289.2,347.1,282.5L347.1,282.5z M286.2,310.7c0,0,7.5,4.5,9.8,5.6c2.4,1.2,12.3,5.1,12.3,5.1
					l-6.6,2.3c-8.6-3.8-4.1-1.8-8.2-3.8c-1.6-0.7-5.1-2.7-5.1-2.7L286.2,310.7L286.2,310.7z"/>
			</g>
		</g>
	</g>
	<path class="st0" d="M266.5,328.4h-74.6v-1.2l10.9-6.1v-73l-10.9-6.2v-1.1h30.7h41.3l1.6,22.9l-1.2,0.4c0,0-11.5-12-14.3-14.4
		c-2.6-2.4-4.6-3.1-6.2-3.7c-3.5-0.9-7.4-0.8-7.4-0.8l-13.3-0.4v36.9c0,0,13.9-0.1,15.5-0.3c2.1-0.3,2.8-0.3,5.8-3.6
		c2.4-2.7,6.1-7.5,6.1-7.5h1.6v29.3h-1.6c0,0-7.3-10.6-7.8-10.9c-0.4-0.4-1.6-2.1-5.4-2.1c-3.8,0.1-13.9-0.1-13.9-0.1v37.8
		c0,0,7.8,0.1,14.3-0.4c6.2-0.4,9.8-0.7,13.9-4.1c4.1-3.4,15-16.2,15-16.2l1.8,0.4L266.5,328.4L266.5,328.4z"/>
	<path class="st0" d="M933.7,303.9l-1.8-0.4c0,0-10.9,12.6-15,16.2c-4.1,3.5-7.7,3.6-13.9,4.1c-6.4,0.7-14.3,0.4-14.3,0.4v-37.8
		c0,0,10.1,0.3,13.9,0.1c3.8,0,5,1.6,5.4,2.1c0.7,0.3,7.8,10.9,7.8,10.9h1.6v-29.3h-1.6c0,0-3.7,4.8-6.1,7.5
		c-2.8,3.4-3.7,3.4-5.8,3.6c-1.5,0.1-15.5,0.3-15.5,0.3v-36.9l13.3,0.4c0,0,3.8-0.1,7.4,0.8c1.6,0.7,3.7,1.2,6.2,3.7
		c2.7,2.4,14.3,14.4,14.3,14.4l1.2-0.4l-1.6-22.9H888h-30.7v1.1l10.9,6.2v73l-10.9,6.1v1.2H932L933.7,303.9L933.7,303.9z"/>
	<polygon class="st0" points="797.8,300.7 824.4,240.8 853.7,240.8 853.7,242 842.9,248.2 842.9,321 853.7,327.1 853.7,328.3 
		812,328.3 812,327.2 823,321.1 823,258.8 791.4,327.2 787.6,327.2 753.9,257.5 753.9,321 764.6,327.1 764.6,328.3 736.8,328.3 
		736.8,327.2 747.5,321.1 747.5,247.9 736.8,241.9 736.8,240.8 768.4,240.8 	"/>
	<g>
		<g>
			<g>
				<defs>
					<rect id="SVGID_00000019671294976520857320000009818127291748017585_" x="939.9" y="238.4" width="60.1" height="93.8"/>
				</defs>
				<clipPath id="SVGID_00000000911448884855965120000014368341573611029649_">
					<use xlink:href="#SVGID_00000019671294976520857320000009818127291748017585_"  style="overflow:visible;"/>
				</clipPath>
				
					<path style="clip-path:url(#SVGID_00000000911448884855965120000014368341573611029649_);fill-rule:evenodd;clip-rule:evenodd;fill:#334155;" d="
					M992.8,241.9l1.6,21.8l-1.5,0.1c0,0-15-16.2-16.7-17.5c-0.9-0.7-8.1-5.8-15.6-0.3c0,0-7.4,5-2.7,14.3
					c4.8,9.3,18.7,15.9,22.4,17.9c3.5,2.1,21.5,10.9,19.3,28.7c-2.3,16.7-17.1,21.5-23.3,22.7c-13.3,2.4-33.7-3.2-33.7-3.2
					l-1.6-22.5l1.8-0.3c0,0,14.8,17.9,20.9,20.2c5.9,2.3,14.1,3.1,19-3.2c4.8-6.2,0.8-14.8-3.9-18.3c-6.6-4.6-16.7-9.8-23.5-14.3
					c-7.7-5.1-12.4-12.7-13.6-21c-1.5-11.8,5.7-21.5,14.6-25.2c8.3-3.2,15-2.6,21.1-2.3C983.4,240,992.8,241.9,992.8,241.9
					L992.8,241.9z"/>
			</g>
		</g>
	</g>
</g>
</svg>
