<?xml version="1.0" encoding="utf-8"?>
<!-- Generator: Adobe Illustrator 27.0.0, SVG Export Plug-In . SVG Version: 6.00 Build 0)  -->
<svg version="1.1"
	 id="svg3058" xmlns:dc="http://purl.org/dc/elements/1.1/" xmlns:sodipodi="http://sodipodi.sourceforge.net/DTD/sodipodi-0.dtd" xmlns:cc="http://creativecommons.org/ns#" xmlns:inkscape="http://www.inkscape.org/namespaces/inkscape" xmlns:svg="http://www.w3.org/2000/svg" xmlns:rdf="http://www.w3.org/1999/02/22-rdf-syntax-ns#"
	 xmlns="http://www.w3.org/2000/svg" xmlns:xlink="http://www.w3.org/1999/xlink" x="0px" y="0px" viewBox="0 0 280 160"
	 style="enable-background:new 0 0 280 160;" xml:space="preserve">
<style type="text/css">
	.st0{clip-path:url(#SVGID_00000141415980626837023150000009242839446658256512_);}
	.st1{fill:#334155;}
</style>
<sodipodi:namedview  bordercolor="#666666" borderopacity="1" fit-margin-bottom="0" fit-margin-left="0" fit-margin-right="0" fit-margin-top="0" gridtolerance="10" guidetolerance="10" id="namedview3060" inkscape:current-layer="g3066" inkscape:cx="317.81561" inkscape:cy="157.23149" inkscape:guide-bbox="true" inkscape:pageopacity="0" inkscape:pageshadow="2" inkscape:window-height="1004" inkscape:window-maximized="1" inkscape:window-width="1680" inkscape:window-x="0" inkscape:window-y="22" inkscape:zoom="1" objecttolerance="10" pagecolor="#ffffff" showgrid="false" showguides="true">
	</sodipodi:namedview>
<g>
	<g id="g16865" transform="translate(-528,-192)">
		<g>
			<g>
				<g>
					<defs>
						<path id="SVGID_1_" d="M540.1,283.3c6.6,0,12-5.4,12-12s-5.4-12-12-12c-6.7,0-12,5.5-12,12.1
							C528.1,277.9,533.4,283.3,540.1,283.3"/>
					</defs>
					<clipPath id="SVGID_00000088105327801074190290000007547332107690244246_">
						<use xlink:href="#SVGID_1_"  style="overflow:visible;"/>
					</clipPath>
					<g id="g16867" style="clip-path:url(#SVGID_00000088105327801074190290000007547332107690244246_);">
						<path id="path16869" inkscape:connector-curvature="0" class="st1" d="M540.5,272.4h0.2v0.2l0,0l0.3-0.3l0,0L540.5,272.4
							L540.5,272.4z M540.5,271.9L540.5,271.9l0.2-0.2l0,0h-0.3l0,0L540.5,271.9L540.5,271.9L540.5,271.9z M539.7,273.8h-0.3l0,0
							h0.1v0.1l0,0L539.7,273.8L539.7,273.8L539.7,273.8z M540.3,273.4H540l0,0h0.1v0.1l0,0L540.3,273.4L540.3,273.4L540.3,273.4z
							 M540.6,273h0.2v0.2l0,0l0.2-0.3l0,0L540.6,273L540.6,273L540.6,273z M539.7,274.5L539.7,274.5L539.7,274.5v0.2l0,0l0.2-0.2
							l0,0H539.7L539.7,274.5z M541.3,274.5l0.2-0.2l0,0h-0.3L541.3,274.5L541.3,274.5L541.3,274.5L541.3,274.5L541.3,274.5z
							 M541.4,272.7l0.3-0.4l0,0l-0.6,0.1l0,0h0.2V272.7L541.4,272.7L541.4,272.7z M540.5,273.9h-0.3l0,0h0.1l-0.1,0.1l0,0
							L540.5,273.9L540.5,273.9L540.5,273.9z M541.1,271.6h0.2l-0.1,0.2l0,0l0.3-0.3l0,0L541.1,271.6L541.1,271.6z M541,273.9
							l0.3-0.3l0,0l-0.4,0.1l0,0h0.2L541,273.9L541,273.9L541,273.9z M541.8,270.7L541.8,270.7l0.2-0.1l0,0h-0.3l0,0L541.8,270.7
							L541.8,270.7L541.8,270.7z M541.1,271.2L541.1,271.2l0.3-0.2l0,0H541l0,0l0.2,0.1L541.1,271.2L541.1,271.2z M542.4,273.3
							L542.4,273.3h0.1v0.1l0,0l0.2-0.2l0,0L542.4,273.3L542.4,273.3z M543.4,270.8L543.4,270.8l0.2-0.1l0,0h-0.3l0,0L543.4,270.8
							L543.4,270.8z M540.8,274.5h-0.3l0,0h0.1v0.1l0,0L540.8,274.5L540.8,274.5z M542.8,270.7L542.8,270.7l0.3-0.2l0,0h-0.3l0,0
							h0.1L542.8,270.7L542.8,270.7z M542.2,272.6h0.2v0.2l0,0l0.3-0.3l0,0L542.2,272.6L542.2,272.6L542.2,272.6z M542.4,270.2h1.3
							c0,0,0.4,0.2,1,0.3c0.3,0.1,0.4,0.3,0.3,0.7c0,0,0.2,0.2,0.3,0.3c0.1,0.2,0.2,0.4,0,0.6c-0.1,0.1-0.3,0.2-0.3,0.2l0,0
							c0.1-0.1,0-0.2,0-0.3c-0.1-0.1-0.1-0.1-0.2-0.1h-0.1l0.2,0.3l0,0c-0.2,0-0.4,0-0.6-0.1c0,0,0,0-1.1,0l0,0l0.7,0.1l0,0l-2,2.4
							l0,0l0.7-0.7v0.6v0.1v0.3v0.1l0.7,0.6l0,0l0,0l0,0l0,0l0,0l0,0l0,0l0,0l0,0l0,0l0,0l0,0l0,0l0,0l0,0l0,0l0,0l0,0l0,0l0,0l0,0
							l0,0l0,0l0,0l0,0l0,0l0,0l0,0c0.1,0,0.1,0,0.2,0l0,0l0,0l0,0l0,0l0,0l0,0l0,0l0,0l0,0l0,0l0,0l0,0l0,0l0,0l0,0l0,0l0,0l0,0
							l0,0l0,0l0,0l0,0l0,0l0,0l0,0l0,0l0,0c1.1-0.2,2-0.4,2-0.4c1.1,0.7,1,0.7,1.2,0.8c0.4,0.2,0.4,0.9-0.4,0.9
							c-0.7,0-1.8,0.1-2.4,0.2l0.7-0.6l0,0c0,0-0.7,0.4-1.3,0.8l0,0c-0.3,0.1-1,0.4-1.5,0.7l0.9-0.9l0,0c0,0-1.1,0.9-1.9,1.3
							c-0.4,0.2-0.9,0.4-1.1,0.6c-0.3,0.1-0.6,0.2-0.9,0c-0.6-0.2-0.8-0.3-1.3-0.4c-0.3-0.1-0.3-0.6,0-0.7c0.1,0,0.4-0.1,0.7-0.2
							c0.1,0,0.2,0.1,0.3,0.1c0.1,0.1,0.3,0.1,0.4,0.2c0.1,0,0.1,0,0.2,0.1l0,0l0,0l0,0l0,0l0,0l0,0l0,0c0,0,0,0,0.1,0l0.1,0.1v0.1
							c0,0,0,0,0,0.1l0,0l0,0l0,0c0,0,0,0,0-0.1v-0.1c0,0,0-0.1-0.1-0.2c0,0,0,0-0.1,0l0,0l0,0l0,0l0,0l0,0l0,0c0,0-0.1-0.1-0.2-0.1
							c-0.1-0.1-0.3-0.2-0.4-0.3c-0.3-0.2-0.7-0.3-0.9-0.6l0,0c0,0,1.2-0.3,2.8-0.8l0.2,0.1l0,0l0,0l-0.1-0.1l-0.3-0.3h-0.2
							l-0.1-0.3l-0.2-0.1l-0.2-0.8l0,0v0.9l-0.4,0.3v-1.1l0,0l-0.1,1.2L538,276l0.2-1.2l0,0l-0.3,1.3h-0.7l0.4-1.3l0,0l-0.7,1.3l0,0
							h-0.7l0.7-1.4l0,0l-1,1.4l-0.7,0.1l1.1-1.5l0,0l-1.8,2.1h-0.1l1.5-2.5l2.4-0.9c0,0,0.2-0.1,0.3-0.1h0.1c0,0,0,0,0.1,0
							c0,0,0,0,0.1,0l0.1-0.1l0,0l0,0l0,0l0,0l0,0l0,0l0,0V273c0,0,0,0,0-0.1l0,0l0,0l0,0l0,0l0,0c0,0,0,0,0,0.1c0,0,0,0,0,0.1l0,0
							l0,0l0,0l0,0l0,0l0,0l0,0c0,0-0.1,0-0.1,0.1l0,0c0,0,0,0-0.1,0c-0.1,0-0.1,0-0.1,0c-0.1,0-0.2,0-0.3,0.1c-0.1,0-0.1,0-0.2,0
							l-0.1-0.3l0.3-0.3l0,0l-0.9,0.6l-0.2-0.4l1.2-0.9l0,0l-1.8,1l-0.1-0.4l1.7-1.1l0,0l-2.1,1.2l-0.1-0.4l1.9-1.2l0,0l-2.2,1.1
							v-0.4l0,0l1.9-1l0,0l-2.2,0.9v-0.4l1.9-0.7l0,0l-2.2,0.7v-0.6l1.7-0.3l0,0l-2.2,0.3v-0.4l1.5-0.2l0,0h-2.2v-0.3h1.8l0,0
							l-3.2-0.2l0,0l0.6-0.2l0,0l-1.3-0.6l0,0h0.6l0,0l-1.2-0.7l0,0h0.8l0,0l-0.9-0.9l0,0l0.4,0.1l0,0l-0.4-0.6l-0.3-0.8l0,0
							l0.4,0.6l0.9,0.6l0,0l-0.7-0.9l-0.2-1l0,0l0.4,0.8l0.9,0.8l0,0l-0.6-1.1l-0.2-1.3l0,0l0.6,1.1l1.2,1l0,0l-0.9-1.3l-0.2-1.5
							l0,0l0.6,1.4l1.7,1.5l2.1,1.1l2.3,3.2l0.9,0.8l0,0l-0.4-0.6l0,0l0,0l0,0l0.9-0.2l0,0h-0.8l0,0l1.2-0.2l0,0l-1.5-0.1l0,0
							l1.9-0.3l0.8,0.2l0,0l-0.7-0.3h-1.2l0,0l1.2-0.2l0.8,0.3l0,0l-0.7-0.4h-0.9l0,0l0.9-0.1l0.9,0.3l0,0l-0.7-0.7h-0.8l0,0
							l0.9-0.2l0.8,0.7l0,0l-0.7-0.9l-0.7-0.1l0,0h0.9l0.8,0.9l0,0l-0.6-1.2l-0.8-0.2l0,0l0.9,0.1l0.7,1.2l0,0l-0.4-1.4l-0.9-0.3
							l0,0l1.1,0.2l0.7,1.4l0,0l-0.4-1.7l-1-0.6l0,0l1.2,0.4l0.6,1.7l0,0l-0.3-1.8l-1.1-0.8l0,0l1.2,0.7l0.4,1.8l0,0l-0.3-1.9
							l-1.1-1l0,0l1.3,0.9l0.3,1.8l0,0l-0.2-1.9l-1.1-1.2l0,0l1.3,1.1l0.3,1.7l0,0l-0.1-1.8l-1-1.3l0,0l1.2,1.3l0.2,1.4l0,0v-1.5
							l-1-1.5l0,0l1.1,1.4l0.1,1.1l0,0v-1.1l-0.7-1.5l0,0l0.9,1.4l0.1,0.7l0,0v-0.7l-0.3-1.4l0,0l0.4,1.2l0,0l0.3-1.2l0,0l-0.1,1.2
							l0,0l0.9-1.2l0,0l-0.6,1.1l0,0l1.2-0.9l0,0l-1.9,2.5c0,0-0.7,1.7-0.9,2.2c0,0.1-0.1,0.2-0.2,0.2l-1.5,0.7l-0.4,0.3
							L542.4,270.2L542.4,270.2L542.4,270.2z M540.3,259.7c-6.5,0-11.8,5.3-11.8,11.8c0,6.5,5.3,11.8,11.8,11.8s11.8-5.3,11.8-11.8
							C552.2,265,546.9,259.7,540.3,259.7 M542.1,271.7h0.2l-0.1,0.3l0,0l0.3-0.3l0,0H542.1L542.1,271.7L542.1,271.7z M543,272.7
							L543,272.7v0.1l0,0l0.2-0.2l0,0L543,272.7L543,272.7L543,272.7z M541.2,276.5L541.2,276.5
							C541.3,276.5,541.3,276.5,541.2,276.5C541.3,276.5,541.3,276.5,541.2,276.5L541.2,276.5c0.1,0.1,0.1,0.1,0.1,0.1l0,0l0,0l0,0
							l0,0l0,0l0,0l0,0l0,0l0,0l0,0l0,0l0,0l0,0l0,0l0,0l0,0l0,0l0,0l0,0h-0.1C541.3,276.5,541.3,276.5,541.2,276.5L541.2,276.5
							L541.2,276.5L541.2,276.5L541.2,276.5L541.2,276.5L541.2,276.5L541.2,276.5L541.2,276.5L541.2,276.5L541.2,276.5 M542.3,276.9
							C542.2,276.9,542.2,276.9,542.3,276.9c-0.1,0-0.2,0.1-0.3,0.1c0,0-0.1,0-0.2,0h-0.1h-0.1c-0.1,0-0.3,0.1-0.6,0.2
							c-0.1,0-0.2,0.1-0.3,0.1c0,0-0.1,0-0.2,0s-0.1,0-0.1,0s0,0-0.1,0h-0.1l0,0c-0.1,0-0.1,0-0.2,0.1c0,0,0,0-0.1,0s-0.1,0-0.1,0
							l0,0l0,0l0,0c0,0,0,0,0.1,0c0,0,0,0,0.1,0c0,0,0.1,0,0.2-0.1l0,0h0.1h0.1h0.1c0,0,0.1,0,0.2,0s0.2-0.1,0.3-0.1
							c0.2,0,0.3-0.1,0.6-0.2c0.1,0,0.1,0,0.2-0.1h0.1l0,0c0.1,0,0.1,0,0.2-0.1C542.2,276.9,542.2,276.9,542.3,276.9L542.3,276.9
							l0.1-0.1L542.3,276.9L542.3,276.9z M540,277.2L540,277.2c0.2-0.1,0.3-0.1,0.4-0.2h0.1l0,0h0.1c0,0,0.1,0,0.2,0l0,0h0.1l0,0
							l0,0l0,0c0,0,0,0-0.1,0l0,0c0,0-0.1,0-0.2,0h-0.1h-0.1l0,0c-0.1,0-0.2,0.1-0.3,0.1c-0.1,0-0.2,0-0.3,0.1h-0.1l0,0
							c-0.1,0-0.2,0.1-0.3,0.1h-0.1l0,0h-0.1H539l0,0l0,0c0,0,0,0,0.1,0l0,0h0.1c0,0,0,0,0.1,0c0,0,0.1,0,0.2,0c0.1,0,0.1,0,0.1,0
							C539.8,277.4,539.9,277.4,540,277.2 M542,273.9L542,273.9h0.1v0.1l0,0l0.2-0.2l0,0L542,273.9L542,273.9z M541.7,273.5l0.3-0.4
							l0,0l-0.6,0.2l0,0h0.2V273.5L541.7,273.5L541.7,273.5z M543.2,271.9h-0.3l0,0h0.1v0.1l0,0L543.2,271.9L543.2,271.9
							L543.2,271.9z M541.7,275.7l-0.7-0.9l0,0l0.2,1l0.3,0.4l0,0l0,0l0,0l0,0l0,0l0,0l0,0l0,0l0,0l0,0l0,0l0,0l0,0l0,0l0,0l0,0l0,0
							l0,0l0,0l0,0l0,0l0,0l0,0l0,0l0,0l0,0l0,0l0,0l0,0c0,0,0.1,0,0.2,0l0,0l0,0l0,0l0,0l0,0l0,0l0,0l0,0l0,0l0,0l0,0l0,0l0,0l0,0
							l0,0l0,0l0,0l0,0l0,0l0,0l0,0l0,0l0,0l0,0l0,0l0,0l0,0c0.2,0,0.3-0.1,0.6-0.1l-0.7-0.3L541.7,275.7L541.7,275.7z M542.9,271.2
							l0.2,0.1l-0.1,0.2l0,0l0.3-0.3l0,0L542.9,271.2L542.9,271.2L542.9,271.2z M536.7,267.4l-0.8,0.4v-0.2l0,0v0.3l0,0L536.7,267.4
							L536.7,267.4L536.7,267.4z M537.5,268.3l-1.1,0.7v-0.2l0,0v0.3l0,0L537.5,268.3L537.5,268.3L537.5,268.3z M537.1,267.9l-1,0.6
							l-0.1-0.3l0,0v0.3l0,0L537.1,267.9L537.1,267.9z M538.8,269.7l-0.8,0.4V270l0,0v0.3l0,0L538.8,269.7L538.8,269.7L538.8,269.7z
							 M538.3,269.3l-0.9,0.6v-0.2l0,0v0.3l0,0L538.3,269.3L538.3,269.3z M537.9,268.7l-1.1,0.6v-0.2l0,0v0.3l0,0L537.9,268.7
							L537.9,268.7L537.9,268.7z M535.3,268.2L535.3,268.2l-2.4-0.7l-1.1-0.9l0,0l1,1L535.3,268.2z M535.4,267.8L535.4,267.8
							l-2.1-0.7l-1-0.9l0,0l0.9,1.1L535.4,267.8L535.4,267.8z M542,271.1l0.2,0.1l-0.1,0.2l0,0l0.3-0.3l0,0L542,271.1L542,271.1
							L542,271.1z M533,268.6l0.9,0.3l1.8,0.1l0,0L533,268.6L533,268.6L533,268.6z M533.1,265.7L533.1,265.7l0.7,1l1.9,0.7l0,0
							l-1.7-0.7L533.1,265.7L533.1,265.7z M539.1,270.2l-0.6,0.3v-0.2l0,0v0.3l0,0L539.1,270.2L539.1,270.2L539.1,270.2z
							 M535.4,268.6l-3.3-0.7l0,0l0.9,0.3L535.4,268.6L535.4,268.6L535.4,268.6z M536.4,267.1L536.4,267.1l-1.5-0.8l-0.9-1.2l0,0
							l0.9,1.4L536.4,267.1L536.4,267.1z M542.9,276.7C542.9,276.7,543,276.7,542.9,276.7C543,276.7,543,276.7,542.9,276.7
							c0.1,0,0.1,0,0.2,0s0.1,0,0.2,0h0.1l0,0c0,0,0.1,0,0.2,0s0.1,0,0.1,0s0,0,0.1,0l0,0l0,0l0,0l0,0l0,0l0,0l0,0c0,0,0,0-0.1,0
							s-0.1,0-0.2,0c0,0-0.1,0-0.2,0c-0.1,0-0.2,0-0.3,0.1C543.1,276.7,543.1,276.7,542.9,276.7L542.9,276.7L542.9,276.7
							L542.9,276.7L542.9,276.7L542.9,276.7L542.9,276.7z M544.4,276.1L544.4,276.1L544.4,276.1c0.1,0,0.1,0,0.2,0
							c0.1,0,0.3,0,0.4-0.1l0,0c0,0,0.1,0,0.2,0s0,0,0.1,0h0.1h0.1l0,0l0,0l0,0l0,0l0,0l0,0l0,0h-0.1l0,0c0,0-0.1,0-0.2,0
							c-0.1,0-0.1,0-0.2,0l0,0c-0.1,0-0.3,0-0.4,0.1C544.5,276,544.4,276,544.4,276.1L544.4,276.1C544.4,276,544.4,276,544.4,276.1
							L544.4,276.1L544.4,276.1L544.4,276.1L544.4,276.1z M543.1,275.9C543.2,275.9,543.2,275.9,543.1,275.9
							C543.2,275.9,543.2,276,543.1,275.9C543.2,276,543.2,276,543.1,275.9L543.1,275.9L543.1,275.9c0.1,0.1,0.1,0.1,0.1,0.1l0,0
							l0,0l0,0l0,0l0,0l0,0l0,0l0,0l0,0l0,0l0,0l0,0l0,0l0,0l0,0l0,0l0,0C543.2,276,543.2,276,543.1,275.9L543.1,275.9L543.1,275.9
							L543.1,275.9L543.1,275.9L543.1,275.9L543.1,275.9L543.1,275.9H543l0,0l0,0C543.1,275.9,543.1,275.9,543.1,275.9L543.1,275.9
							 M544.4,271.8C544.4,271.9,544.4,271.9,544.4,271.8C544.4,271.9,544.4,271.9,544.4,271.8C544.4,271.9,544.4,271.9,544.4,271.8
							L544.4,271.8L544.4,271.8L544.4,271.8L544.4,271.8L544.4,271.8L544.4,271.8L544.4,271.8C544.4,271.9,544.4,271.9,544.4,271.8
							L544.4,271.8L544.4,271.8L544.4,271.8L544.4,271.8L544.4,271.8L544.4,271.8L544.4,271.8L544.4,271.8
							C544.4,271.7,544.4,271.7,544.4,271.8L544.4,271.8L544.4,271.8L544.4,271.8L544.4,271.8L544.4,271.8c0.1-0.1,0.1-0.1,0.1-0.1
							l0,0l0,0l0,0l0,0l0,0l0,0l0,0l0,0l0,0l0,0l0,0l0,0l0,0l0,0C544.4,271.7,544.3,271.7,544.4,271.8L544.4,271.8L544.4,271.8
							L544.4,271.8L544.4,271.8L544.4,271.8C544.3,271.7,544.3,271.7,544.4,271.8c-0.1,0-0.1,0-0.1,0
							C544.4,271.8,544.4,271.8,544.4,271.8L544.4,271.8 M544.4,271.1L544.4,271.1L544.4,271.1L544.4,271.1
							C544.4,271.2,544.5,271.2,544.4,271.1L544.4,271.1L544.4,271.1C544.5,271.2,544.5,271.2,544.4,271.1L544.4,271.1
							c0.1,0.1,0.1,0.1,0.2,0.1l0,0l0,0l0,0l0,0l0,0l0,0l0,0l0,0l0,0l0,0l0,0l0,0l0,0l0,0l0,0l0,0l0,0l0,0l0,0l0,0l0,0l0,0l0,0l0,0
							l0,0l0,0l0,0l0,0l0,0l0,0l0,0l0,0l0,0l0,0l0,0l0,0l0,0l0,0l0,0l0,0l0,0l0,0l0,0l0,0l0,0l0,0l0,0l0,0l0,0l0,0l0,0l0,0l0,0l0,0
							l0,0l0,0l0,0l0,0l0,0l0,0l0,0l0,0C544.5,271,544.5,271.1,544.4,271.1L544.4,271.1L544.4,271.1L544.4,271.1L544.4,271.1z
							 M545.4,271.7L545.4,271.7L545.4,271.7C545.5,271.7,545.5,271.7,545.4,271.7v0.1l0,0l0,0l0,0l0,0l0,0l0,0l0,0l0,0l0,0l0,0
							C545.5,271.8,545.5,271.8,545.4,271.7C545.5,271.7,545.5,271.7,545.4,271.7L545.4,271.7L545.4,271.7L545.4,271.7
							c0-0.1,0-0.1,0-0.1l0,0l0,0l0,0c-0.1-0.1-0.2-0.2-0.3-0.3l-0.1,0.1C545.2,271.5,545.3,271.6,545.4,271.7L545.4,271.7
							 M539.6,271.7L539.6,271.7L539.6,271.7l-0.1,0.1l0,0l0.4-0.3l0,0L539.6,271.7L539.6,271.7z M539.5,270.7L539,271v-0.1l0,0v0.3
							l0,0L539.5,270.7L539.5,270.7L539.5,270.7z M539.7,272.2L539.7,272.2L539.7,272.2l-0.1,0.1l0,0l0.3-0.2l0,0L539.7,272.2
							L539.7,272.2z M539.9,271.1l-0.4,0.2v-0.1l0,0l-0.1,0.3l0,0L539.9,271.1L539.9,271.1L539.9,271.1z M545.3,276.2
							c0,0-0.1,0-0.2,0c0,0-0.1,0-0.2,0c0,0,0,0-0.1,0l0,0l0,0c0,0,0,0-0.1,0h-0.1l0,0h-0.1l0,0h0.1l0,0h0.1h0.1l0,0h0.1
							c0,0,0.1,0,0.2,0h0.1H545.3L545.3,276.2h0.1c0.1,0,0.1,0,0.2,0c0,0,0,0,0.1,0s0.1,0,0.1,0s0,0,0.1,0h0.1l0,0l0,0
							c0,0,0,0-0.1,0l0,0c0,0-0.1,0-0.2,0c0,0,0,0-0.1,0s-0.1,0-0.2,0h0.1C545.5,276.1,545.3,276.2,545.3,276.2 M538.1,274.3
							L538.1,274.3L538.1,274.3v0.2l0,0l0.2-0.2l0,0H538.1L538.1,274.3z M538.6,278.7l-0.3-0.2l0.3-0.2l0,0l-0.6,0.1l0,0v0.1l0,0
							L538.6,278.7c0.1,0.1,0.2,0.1,0.3,0.1l0.3,0.1l0,0l-0.3-0.2C538.8,278.7,538.7,278.7,538.6,278.7 M538.9,274.3L538.9,274.3
							L538.9,274.3v0.2l0,0l0.2-0.2l0,0H538.9L538.9,274.3z"/>
					</g>
				</g>
			</g>
		</g>
	</g>
	<path id="path16873" inkscape:connector-curvature="0" class="st1" d="M33.1,87.6c0,1.5,0.4,2.8,2.8,3.3l0.9,0.2v0.2h-11v-0.2
		l0.9-0.2c2.3-0.4,2.8-1.8,2.8-3.3V71.5c0-1.5-0.4-2.9-2.8-3.3l-1-0.2v-0.1h11v0.1l-0.9,0.2C33.4,68.6,33,70,33,71.5v16.1H33.1z
		 M59.9,72.7v19h-0.2l-17-20.1l0.1,12.4c0,5.6,1.9,6.4,3.9,6.8l0.6,0.1v0.2h-9v-0.2l0.6-0.1c2-0.6,3.9-1.3,3.9-6.8V71.5L42.2,71
		c-1.8-2-2.9-2.8-4.7-3.1v-0.1h8.2c0.9,1.5,2.1,3,4.7,6.1l9.5,11.3l-0.1-12c0-4-1.5-4.9-3.5-5.2l-1,0v-0.2h21.1
		c8.7,0,13.1,5.5,13.1,11.6c0,6.1-4.4,11.8-13.1,11.8H64.6v-0.2l0.8-0.1c2.4-0.4,2.8-1.8,2.8-3.3V72.7c0-3.5-1.9-4.7-4.2-4.7
		S59.9,69,59.9,72.7 M75.6,91c6.2,0,9.5-4.4,9.5-11.6c0-7.1-3.5-11.5-9.7-11.5h-3.2v19.5c0,1.9,0.4,3.4,2.8,3.4L75.6,91L75.6,91z
		 M101.8,91c3.8,0,5.7-1.1,7.3-3.8l1.5-2.6h0.2v6.6H90.2V91l0.9-0.1c2.3-0.3,2.8-1.9,2.8-3.3V71.3c0-1.5-0.4-2.8-2.8-3.2l-0.9-0.2
		v-0.1H110v6.6h-0.2l-1.5-2.9c-1.5-2.9-3.8-3.6-7.8-3.6h-2.8v11h1.7c3.6,0,4.7-0.2,6-3.9l0.3-1.2h0.2v10.3h-0.2l-0.3-1.1
		c-1.2-3.6-2.3-3.8-6-3.9h-1.7v8.4c0,2,0.8,3.3,3.1,3.3h1.1V91z M123.7,67.8c5.2,0,8.9,2.9,8.9,7c0,4.2-3.6,7.1-8.9,7.1h-1.4v-0.2
		l0,0c3.8,0,6.1-2.6,6.1-6.8c0-4.2-2.2-6.8-6.1-6.8H121v19.2c0,2.5,0.7,3.1,3.3,3.6l0.7,0.1v0.2h-11.5v-0.2l0.9-0.2
		c2.3-0.4,2.8-1.8,2.8-3.3v-16c0-1.5-0.4-2.8-2.8-3.3l-0.9-0.1v-0.1H123.7L123.7,67.8z M145.1,91c3.8,0,5.7-1.1,7.3-3.8l1.5-2.6h0.2
		v6.6h-20.6V91l0.9-0.1c2.3-0.3,2.8-1.9,2.8-3.3V71.3c0-1.5-0.4-2.8-2.8-3.2l-0.9-0.2v-0.1h19.7v6.6H153l-1.5-2.9
		c-1.5-2.9-3.8-3.6-7.8-3.6h-2.8v11h1.7c3.5,0,4.7-0.2,6-3.9l0.3-1.2h0.2v10.3h-0.2l-0.3-1.1c-1.2-3.6-2.3-3.8-6-3.9h-1.7v8.4
		c0,2,0.8,3.3,3.1,3.3h1.1V91z M178.4,72.7v19h-0.2l-17-20.1l0.1,12.4c0,5.6,1.9,6.4,3.9,6.8l0.6,0.1v0.2h-9.2v-0.2l0.6-0.1
		c2-0.6,3.9-1.3,3.9-6.8V71.5l-0.3-0.4c-1.8-2-2.9-2.8-4.7-3.1v-0.1h8.2c0.9,1.5,2.1,3,4.7,6.1l9.5,11.3l-0.1-12
		c0-4-1.5-4.9-3.5-5.2l-0.8-0.1v-0.2h21.1c8.7,0,13.1,5.5,13.1,11.6S203.7,91,194.9,91h-11.7v-0.2l0.8-0.1c2.4-0.4,2.8-1.8,2.8-3.3
		V72.7c0-3.5-1.9-4.7-4.2-4.7C180.3,67.9,178.4,69,178.4,72.7 M194.1,91c6.2,0,9.5-4.4,9.5-11.6c0-7.1-3.5-11.6-9.8-11.6h-3.2v19.5
		c0,1.9,0.4,3.4,2.8,3.4L194.1,91L194.1,91z M220.2,91c3.8,0,5.7-1.1,7.3-3.8l1.5-2.6h0.2v6.6h-20.6V91l0.9-0.1
		c2.3-0.3,2.8-1.9,2.8-3.3V71.3c0-1.5-0.4-2.8-2.8-3.2l-0.9-0.2v-0.1h19.7v6.6h-0.2l-1.5-2.9c-1.5-2.9-3.8-3.6-7.7-3.6h-2.8v11h1.7
		c3.5,0,4.7-0.2,5.8-3.9l0.3-1.2h0.2v10.3H224l-0.3-1.1c-1.2-3.6-2.3-3.8-5.8-3.9h-1.7v8.4c0,2,0.8,3.3,3.1,3.3h1V91z M253.3,73.9
		c0-4.3-1.5-5.5-3.5-5.8l-0.8-0.1v-0.2h8.9v0.2l-0.8,0.1c-2.1,0.3-3.5,1.5-3.5,5.8v17.8h-0.2l-17.1-20.1l0.1,12.4
		c0,5.6,1.9,6.4,3.9,6.8l0.6,0.1v0.2h-9v-0.2l0.6-0.1c2-0.6,3.9-1.3,3.9-6.8V71.5l-0.3-0.4c-1.8-2-2.9-2.8-4.7-3.1v-0.1h8.2
		c0.9,1.5,2.1,3,4.7,6.1l9.5,11.3L253.3,73.9L253.3,73.9z M267.6,67.9h-1.4c-3.1,0-4.4,1.5-5.6,4.6l-1.1,2.9h-0.2v-7.6H280v7.6h-0.2
		l-1.1-2.9c-1.2-3-2.4-4.6-5.6-4.6h-1.4v19.6c0,1.5,0.4,3,2.8,3.3l0.9,0.1v0.2h-11V91l0.9-0.1c2.3-0.3,2.8-1.9,2.8-3.3V67.9H267.6z"
		/>
</g>
</svg>
