<?xml version="1.0" encoding="utf-8"?>
<!-- Generator: Adobe Illustrator 27.0.0, SVG Export Plug-In . SVG Version: 6.00 Build 0)  -->
<svg version="1.1" id="Layer_1" xmlns="http://www.w3.org/2000/svg" xmlns:xlink="http://www.w3.org/1999/xlink" x="0px" y="0px"
	 viewBox="0 0 280 160" style="enable-background:new 0 0 280 160;" xml:space="preserve">
<style type="text/css">
	.st0{fill:#334155;}
</style>
<g transform="translate(-14.716233 -1019.5262)">
	<g>
		<g>
			<path class="st0" d="M149.1,1130.3h52.1c1.4-0.1,2.8-0.8,3.7-2.2l8.5-12.4h-51.7c-1.6,0-3,0.8-4,2.2L149.1,1130.3z"/>
			<path class="st0" d="M150.9,1068.8H96.4c-1.6,0-3,0.8-4,2.2l-8.5,12.4h54.6c1.4-0.1,2.8-0.8,3.7-2.2L150.9,1068.8z"/>
			<path class="st0" d="M196.9,1106.9c10.5-0.1,22-8.6,24.2-19.1c2.2-10.4-6.6-18.9-16.9-19.1h-39.7c-1.6,0-3,0.8-4,2.2l-8.2,12.5
				c0.6,0,49.3,0,49.3,0c2.4,0,3.6,1.9,3,4.4c-0.5,2.4-2.9,4.3-5.3,4.4h-21.5c-1.6,0-3,0.8-4,2.3l-8.5,12.4H196.9z"/>
			<path class="st0" d="M164.1,1092.3h-15.5c-1.8,0-3.2,0.8-4.1,2.1L123,1126l3.9-34.1h-16.2l-3.7,32.7c0,0.5,0,1,0.1,1.5
				c0,0.1,0.1,0.2,0.1,0.2c0.2,1.1,0.9,2.4,1.8,3.1c0.3,0.2,0.7,0.5,1.1,0.6c0.4,0.2,0.8,0.2,1.1,0.2h24.2c1.8,0,3.2-0.8,4.1-2.1
				L164.1,1092.3z"/>
		</g>
	</g>
</g>
</svg>
