<?xml version="1.0" encoding="utf-8"?>
<!-- Generator: Adobe Illustrator 27.0.0, SVG Export Plug-In . SVG Version: 6.00 Build 0)  -->
<svg version="1.1" id="圖層_1" xmlns="http://www.w3.org/2000/svg" xmlns:xlink="http://www.w3.org/1999/xlink" x="0px" y="0px"
	 viewBox="0 0 280 160" style="enable-background:new 0 0 280 160;" xml:space="preserve">
<style type="text/css">
	.st0{fill:#334155;}
	.st1{clip-path:url(#SVGID_00000039842592438667245220000015667119839655299470_);fill:#334155;}
	.st2{clip-path:url(#SVGID_00000156548591149180108480000003400793024253336737_);fill:#334155;}
	.st3{clip-path:url(#SVGID_00000147935843908054916840000002963255487924841364_);fill:#334155;}
	.st4{clip-path:url(#SVGID_00000133502312256820649660000000699641520845445777_);fill:#334155;}
	.st5{clip-path:url(#SVGID_00000034787600210713325890000003405504534029232262_);fill:#334155;}
	.st6{clip-path:url(#SVGID_00000075132608543651683760000004240601950566528679_);fill:#334155;}
</style>
<path class="st0" d="M164.1,106H139c1.3-0.6,2.9-1.4,4.6-3c1.3-1.1,2.4-2.4,3.5-3.7l0.6-0.6c2.8,1.8,6.1,4.9,7.6,6.4l0.1,0.1
	l0.1-0.1c0.8-0.6,3.8-1.4,3.9-1.4l0.2-0.1l-0.2-0.2c0,0-3.7-3.1-10-5.8h11v-1.8H150c0.6-0.9,1-1.8,1.5-2.6l0.1-0.2H147v0.1
	c-0.4,0.9-1,1.8-1.6,2.8h-10.2v1.8h8.9c-2.8,3.8-6.1,7.3-8.1,8.3h-4.2v1.8H155l0.1,12.1c0,1.9-0.3,3.3-2.7,3.4l-1,0.1l0.3,1.8h0.1
	c0,0,0.3,0,0.8,0c0.6,0,1.4,0,2-0.1c2.7-0.4,4.4-2.2,4.4-4.5v-12.7h5.2V106L164.1,106z"/>
<path class="st0" d="M143.3,109.3c-5.4,0-8.7,2.7-8.7,7c0,4.3,3.4,7,9,7c5.4,0,8.8-2.6,8.8-7C152.3,112.1,148.6,109.3,143.3,109.3
	 M143.4,121.9c-3.2,0-4.9-1.9-4.9-5.5c0-4.6,2.6-5.6,4.8-5.6h0.2c3.1,0,4.7,1.9,4.7,5.6C148.2,120.9,145.6,121.9,143.4,121.9"/>
<path class="st0" d="M185.8,115.7h9.8v-1.8h-9.8v-1.6c3-0.2,7-0.4,9.3-0.8h0.2l-1.1-2.5h-0.1c-0.5,0.2-2.2,0.2-2.8,0.4v-4.8
	c1.2,1.8,2,2.5,3.9,3.6l0.1,0.1l2.3-2.2l-0.2-0.1c-2.2-0.8-4.3-2.1-5.8-3.5h4.7v-1.8h-5v-3h5.4v-1.8H184v-2.8h-3.2v2.8h-13.6v9.7
	c0,5.8,0,13-2.9,18.8l-0.1,0.1l1,0.4l0.1-0.1c3.9-3.8,5.8-8.7,5.8-15.9c1.5-1,3.7-2.5,4.7-3.6v5.5c-1,0-2.1,0.1-3,0.1h-0.2l0.2,1.6
	h0.1c0.7,0,1.5,0,2.3,0c0.9,0,1.8,0,2.7,0c1,0,2.5,0,4,0v1.4h-10.1v1.8h10.1v1.8h-11.2v1.8h11.2v1c0,1.8-0.2,2.9-2.6,3l-1,0.1
	l0.3,1.8h0.1c0,0,0.2,0,0.5,0c0.6,0,1.6,0,2.4-0.1c2.7-0.3,4.3-1.8,4.3-4v-1.8h11.3v-1.8h-11.3L185.8,115.7L185.8,115.7z
	 M186.8,102.5c-0.6,1.1-1.4,2.2-2.2,3.3c-2-0.8-3.9-2-5.3-3.3H186.8z M188.1,100.6h-9v-3h9V100.6z M175.8,100.6h-4.7v-3h4.7V100.6z
	 M182.3,108.1L182.3,108.1l0.2,0.1l0,0c0.1,0.1,0.2,0.1,0.2,0.2l0.8,0.5h0.1c1.7-0.9,3.2-2.2,4.6-3.6v4.7c-2.9,0.4-6,0.6-9,0.6v-5.8
	C180,106.2,181,107.3,182.3,108.1 M174.5,102.5c-0.9,1.5-2.2,3.3-3.4,4.6v-4.6H174.5z"/>
<g>
	<g>
		<g>
			<defs>
				<rect id="SVGID_1_" x="49.4" y="46.7" width="193.1" height="44.9"/>
			</defs>
			<clipPath id="SVGID_00000134934484677605887970000017684367816863344050_">
				<use xlink:href="#SVGID_1_"  style="overflow:visible;"/>
			</clipPath>
			<path style="clip-path:url(#SVGID_00000134934484677605887970000017684367816863344050_);fill:#334155;" d="M234,81.6
				c0.2,0,0.4,0,0.6,0.1l0,0c0.4,0.1,0.7,0.2,1,0.3c0.1-0.4,0.2-1.1,0.4-2c0.5-2.9,1.4-8.2,3.2-15.3c0.6-2.8,3.2-13.8,3.2-13.9
				c0-0.1,0-0.2,0.1-0.3c0.1-0.4,0.1-0.8,0-1.2c-0.1-0.4-0.2-0.6-0.5-1c-0.2-0.2-0.5-0.5-0.8-0.6c-0.3-0.2-0.7-0.3-1.1-0.4l0,0
				c-0.4-0.1-0.8-0.1-1.2,0c-0.4,0.1-0.7,0.2-1,0.4c-0.3,0.2-0.6,0.5-0.7,0.8c-0.2,0.3-0.3,0.7-0.4,1.1v0.2c0,0.1-0.1,0.4-0.1,0.5
				c-0.4,4.2-1,11.2-1.2,13.9c-0.6,7.3-1.3,12.6-1.7,15.5c-0.2,1-0.2,1.6-0.2,2.1C233.6,81.6,233.8,81.6,234,81.6"/>
		</g>
	</g>
	<g>
		<g>
			<defs>
				<rect id="SVGID_00000039119614972399365490000016872191742546571167_" x="49.4" y="46.7" width="193.1" height="44.9"/>
			</defs>
			<clipPath id="SVGID_00000088094225978995111510000009932853496816466051_">
				<use xlink:href="#SVGID_00000039119614972399365490000016872191742546571167_"  style="overflow:visible;"/>
			</clipPath>
			<path style="clip-path:url(#SVGID_00000088094225978995111510000009932853496816466051_);fill:#334155;" d="M217,88
				c2.4-0.9,4.6-2.1,6.3-3.7c1.9-1.8,3.4-3.9,4.6-6.4c1-2.5,1.6-5.4,1.6-8.6c0-3.2-0.6-6.1-1.6-8.6c-1-2.5-2.6-4.6-4.6-6.4
				c-1.9-1.8-4.2-3.1-7-4c-2.7-0.9-5.7-1.4-9-1.4c-3.2,0-6.2,0.5-8.9,1.4c-0.3,0.1-0.7,0.2-1,0.4c-2.2,0.9-4.2,2.1-5.9,3.6
				c-1.9,1.8-3.4,3.9-4.6,6.4c-1,2.5-1.6,5.4-1.6,8.6c0,3.2,0.6,6.1,1.6,8.6c1,2.5,2.6,4.6,4.6,6.4c1.9,1.8,4.3,3,7,3.9
				c2.7,0.9,5.7,1.3,8.9,1.3c3.3,0,6.2-0.4,9-1.3c0.2-0.1,0.3-0.1,0.5-0.2C216.9,88,217,88,217,88 M215.7,85.4
				c-0.6,0.3-1.2,0.6-1.8,0.8c-2,0.7-4.2,1.1-6.4,1.1s-4.4-0.4-6.4-1.1c-2-0.7-3.7-1.8-5.2-3.3c-1.4-1.5-2.6-3.4-3.4-5.7
				c-0.8-2.2-1.2-5-1.2-8.2s0.4-5.8,1.2-8.2c0.8-2.2,2-4.2,3.4-5.7c0.9-0.9,1.8-1.7,2.9-2.2c0.7-0.4,1.4-0.8,2.2-1
				c2-0.7,4.1-1,6.4-1c2.3,0,4.5,0.3,6.4,1c1.9,0.7,3.7,1.8,5.1,3.3c1.4,1.5,2.6,3.4,3.4,5.7c0.8,2.2,1.2,5,1.2,8.2
				c0,3.1-0.4,5.8-1.2,8.2c-0.8,2.2-2,4.2-3.4,5.7C218,84,216.9,84.8,215.7,85.4"/>
		</g>
	</g>
	<g>
		<g>
			<defs>
				<rect id="SVGID_00000024720983470264253580000003831810499297337508_" x="49.4" y="46.7" width="193.1" height="44.9"/>
			</defs>
			<clipPath id="SVGID_00000145759095702055021420000011407023906840751000_">
				<use xlink:href="#SVGID_00000024720983470264253580000003831810499297337508_"  style="overflow:visible;"/>
			</clipPath>
			<path style="clip-path:url(#SVGID_00000145759095702055021420000011407023906840751000_);fill:#334155;" d="M181.9,77
				c1-2.2,1.4-4.8,1.4-7.7c0-2.9-0.5-5.4-1.4-7.7c-1-2.2-2.2-4.2-3.9-5.8c-1.7-1.5-3.7-2.7-6-3.6c-2.3-0.8-5-1.2-7.8-1.2
				s-5.4,0.4-7.7,1.2c-2.3,0.8-4.4,2-6,3.6c-1.7,1.5-3,3.5-3.9,5.8c-1,2.2-1.4,4.9-1.4,7.7c0,2.9,0.5,5.4,1.4,7.7
				c1,2.2,2.2,4.2,3.9,5.8c1.7,1.5,3.7,2.7,6,3.5c2.3,0.8,4.9,1.1,7.7,1.1s5.4-0.4,7.8-1.1c2.3-0.8,4.4-1.9,6-3.5
				C179.7,81.1,181,79.2,181.9,77 M176.5,76.5c-0.6,2-1.6,3.7-2.8,5c-1.2,1.4-2.6,2.3-4.2,3s-3.4,1-5.3,1c-1.8,0-3.6-0.3-5.2-1
				c-1.6-0.6-3-1.6-4.2-3c-1.2-1.3-2.2-3-2.8-5c-0.6-2-1-4.5-1-7.2c0-2.8,0.3-5.2,1-7.2c0.6-2,1.6-3.7,2.8-5c1.2-1.3,2.6-2.3,4.2-3
				s3.4-1,5.2-1c1.8,0,3.7,0.3,5.3,1s3,1.6,4.2,3c1.2,1.3,2.2,3,2.8,5c0.6,2,1,4.4,1,7.2C177.6,72,177.2,74.5,176.5,76.5"/>
		</g>
	</g>
	<g>
		<g>
			<defs>
				<rect id="SVGID_00000098192833100697671700000014040853497496170920_" x="49.4" y="46.7" width="193.1" height="44.9"/>
			</defs>
			<clipPath id="SVGID_00000108271092345345315940000017881218722823207581_">
				<use xlink:href="#SVGID_00000098192833100697671700000014040853497496170920_"  style="overflow:visible;"/>
			</clipPath>
			<path style="clip-path:url(#SVGID_00000108271092345345315940000017881218722823207581_);fill:#334155;" d="M79,56.1
				c0.5-0.9,1-1.7,1.4-2.4c1.4-2.3,2.6-4.2,3.2-5.1c0.5-0.7,0.8-1.1,1.1-1.7l0.1-0.1h-0.1c-0.9,0.2-1.9,0.4-2.9,0.4
				c-1,0-1.9-0.2-2.9-0.4h-0.1l0,0c-1.8,3.2-6.6,11-9.4,15.7c-1.4,2.2-2.2,3.8-2.4,4.1h-0.1c-0.2-0.2-1.1-1.8-2.5-4.1
				c-2.9-4.6-7.6-12.4-9.4-15.7l-0.2,0.1c-0.9,0.2-1.8,0.4-2.8,0.4s-2-0.2-2.9-0.4c0,0,0,0-0.1,0l0,0c0.3,0.6,0.6,1,1.1,1.8
				c0.6,1,1.8,2.9,3.2,5.1c0.4,0.6,0.9,1.5,1.4,2.4c0.9,1.5,1.9,3.3,2.8,4.7c1.1,2,2.5,4.4,3.8,6.7c1.1,1.9,2,3.5,2.8,5l0,0v1.7
				c0,2.3-0.1,4.8-0.2,7c-0.1,1-0.1,2.8-0.2,4.6c-0.1,2.2-0.1,4.6-0.2,5.8c0.9-0.2,1.8-0.4,2.9-0.4s2,0.2,2.9,0.4
				c-0.1-1.2-0.1-3.5-0.2-5.8c0-1.8-0.1-3.6-0.2-4.6c-0.1-2.2-0.2-4.6-0.2-7v-1.7v-0.1c0.8-1.4,1.8-3.1,2.8-5
				c1.4-2.4,2.8-4.9,3.8-6.7C77.1,59.4,78.1,57.6,79,56.1"/>
		</g>
	</g>
	<g>
		<g>
			<defs>
				<rect id="SVGID_00000077284277308326148250000014569944382292787604_" x="49.4" y="46.7" width="193.1" height="44.9"/>
			</defs>
			<clipPath id="SVGID_00000163069564540350050930000002644045290387509895_">
				<use xlink:href="#SVGID_00000077284277308326148250000014569944382292787604_"  style="overflow:visible;"/>
			</clipPath>
			<path style="clip-path:url(#SVGID_00000163069564540350050930000002644045290387509895_);fill:#334155;" d="M143.4,86.9
				c-0.1-1.9-0.2-4.2-0.3-6.5c-0.1-2.2-0.2-4.4-0.2-6.6V65c0-2.2,0.1-4.5,0.2-6.6c0-0.8,0.1-1.6,0.1-2.5c0.1-1.4,0.1-3,0.2-4.3
				c-0.9,0.2-1.9,0.4-2.9,0.4c-1,0-2-0.2-3-0.4l0,0l0.1,0.8c0.1,2.1,0.2,4.2,0.2,6c0.1,2.2,0.2,4.4,0.2,6.6v3l0,0
				c0,0-2.6,0.1-3.8,0.1h-0.6c-1.7,0-3.5,0.1-5.4,0.1c-1.8,0-3.6,0-5.4-0.1h-0.6c-1.3,0-2.6-0.1-3.9-0.1l0,0v-3c0-2.2,0-4.5,0.2-6.6
				c0.1-1.9,0.2-4,0.2-6.1v-0.8c-1,0.2-1.9,0.4-3,0.4s-2-0.2-3-0.4c0.1,1.4,0.1,2.9,0.2,4.3c0,0.9,0.1,1.7,0.1,2.5
				c0.1,2.2,0.2,4.4,0.2,6.6v8.8c0,2.2-0.1,4.5-0.2,6.6c-0.1,2.4-0.2,4.6-0.2,6.5c0.9-0.2,1.9-0.4,3-0.4c1,0,2,0.2,2.9,0.4l0,0
				c-0.1-2.2-0.2-4.3-0.3-6.5c-0.1-2.2-0.2-4.4-0.2-6.6v-3.3l0,0c1.5,0,3-0.1,4.5-0.1c1.7,0,3.5,0,5.4,0c1.8,0,3.6,0,5.4,0
				c1.4,0,3,0,4.5,0.1l0,0v3.3c0,2.2,0,4.5-0.2,6.6c-0.1,2.2-0.2,4.3-0.3,6.5v0.1c0.9-0.2,1.9-0.4,3-0.4
				C141.5,86.5,142.5,86.6,143.4,86.9"/>
		</g>
	</g>
	<g>
		<g>
			<defs>
				<rect id="SVGID_00000168800176273754851060000010813489425825948343_" x="49.4" y="46.7" width="193.1" height="44.9"/>
			</defs>
			<clipPath id="SVGID_00000083071415333673702470000009240445558417200062_">
				<use xlink:href="#SVGID_00000168800176273754851060000010813489425825948343_"  style="overflow:visible;"/>
			</clipPath>
			<path style="clip-path:url(#SVGID_00000083071415333673702470000009240445558417200062_);fill:#334155;" d="M86.2,76.6L86.2,76.6
				c0.2,0,0.5-0.1,0.7-0.1c0.7,0,1.4,0,2.1,0c1.2,0,3.4,0,4.5,0h0.1c1.1,0,3.3,0,4.5,0c0.6,0,1.4,0,2,0.1c0.2,0,0.5,0,0.7,0l0,0
				c0.8,1.9,1.5,3.8,2.2,5.4c1,2.6,1.8,4.5,2,5c0.9-0.2,1.9-0.4,2.9-0.4c1,0,2,0.2,2.9,0.4c-0.1-0.2-0.4-0.7-0.6-1
				c-3.8-7.3-11.8-27.2-14.3-33.6c0,0-0.2-0.6-0.3-0.8l0,0l0,0c-0.6,0.2-1.3,0.4-2,0.4c-0.6,0-1.3-0.1-1.9-0.3c0,0-0.1,0-0.2-0.1
				c-0.1,0.2-0.2,0.4-0.2,0.6c-2.7,7-3.8,9.5-4.5,11.1c-2.7,6.9-7,16.8-9.9,22.6c-0.2,0.3-0.5,0.8-0.6,1c0.9-0.2,1.9-0.4,2.9-0.4
				c1,0,1.9,0.1,2.8,0.4h0.1c0.2-0.6,1-2.4,1.9-5C84.6,80.3,85.4,78.5,86.2,76.6 M87.1,74c3.9-9.9,6-15.4,6.3-16.6v-0.1v0.1
				c0.3,1.3,2.4,6.7,6.3,16.6l0,0c-1.1,0.1-5.2,0.2-6.3,0.2C92.3,74.2,88.3,74.1,87.1,74L87.1,74z"/>
		</g>
	</g>
</g>
<path class="st0" d="M232.7,86.1c-0.4,0.1-0.7,0.2-1,0.4c-0.3,0.2-0.6,0.5-0.7,0.8c-0.2,0.3-0.3,0.7-0.4,1.1c-0.1,0.4-0.1,0.9,0,1.2
	c0.1,0.3,0.2,0.7,0.5,1c0.2,0.3,0.5,0.5,0.9,0.6c0.3,0.2,0.7,0.3,1.1,0.3c0.2,0,0.5,0.1,0.6,0.1c0.2,0,0.4,0,0.6-0.1
	c0.4-0.1,0.7-0.2,1-0.4c0.3-0.2,0.6-0.5,0.7-0.8c0.2-0.3,0.3-0.7,0.4-1.1s0.1-0.9,0-1.2c-0.1-0.3-0.2-0.7-0.5-1
	c-0.2-0.2-0.5-0.5-0.8-0.7c-0.3-0.2-0.7-0.3-1.1-0.4c-0.2,0-0.4-0.1-0.6-0.1C233.1,86,232.8,86,232.7,86.1"/>
</svg>
